<svg width="52" height="44" viewBox="0 0 52 44" fill="none" xmlns="http://www.w3.org/2000/svg">
<g clip-path="url(#clip0_414_4539)">
<path d="M43.8555 8.03076H39.9355V11.9508H43.8555V8.03076Z" fill="#D94625"/>
<path d="M43.8555 4.11084H39.9355V8.03084H43.8555V4.11084Z" fill="#D94625"/>
<path d="M43.8555 15.8711H39.9355V19.7911H43.8555V15.8711Z" fill="#D94625"/>
<path d="M43.8555 19.791H39.9355V23.721H43.8555V19.791Z" fill="#D94625"/>
<path d="M47.7855 8.03076H43.8555V11.9508H47.7855V8.03076Z" fill="#D94625"/>
<path d="M43.8555 11.9507H39.9355V15.8707H43.8555V11.9507Z" fill="#D94625"/>
<path d="M47.7855 15.8711H43.8555V19.7911H47.7855V15.8711Z" fill="#D94625"/>
<path d="M47.7855 11.9507H43.8555V15.8707H47.7855V11.9507Z" fill="#D94625"/>
<path d="M39.9356 23.7207H36.0156V27.6407H39.9356V23.7207Z" fill="#D94625"/>
<path d="M36.0157 27.6411H32.0957V31.5611H36.0157V27.6411Z" fill="#D94625"/>
<path d="M36.0157 23.7207H32.0957V27.6407H36.0157V23.7207Z" fill="#D94625"/>
<path d="M39.9356 19.791H36.0156V23.721H39.9356V19.791Z" fill="#D94625"/>
<path d="M39.9356 11.9507H36.0156V15.8707H39.9356V11.9507Z" fill="#D94625"/>
<path d="M39.9356 15.8711H36.0156V19.7911H39.9356V15.8711Z" fill="#D94625"/>
<path d="M39.9356 8.03076H36.0156V11.9508H39.9356V8.03076Z" fill="#D94625"/>
<path d="M39.9356 4.11084H36.0156V8.03084H39.9356V4.11084Z" fill="#D94625"/>
<path d="M36.0157 19.791H32.0957V23.721H36.0157V19.791Z" fill="#D94625"/>
<path d="M36.0157 15.8711H32.0957V19.7911H36.0157V15.8711Z" fill="#D94625"/>
<path d="M36.0157 4.11084H32.0957V8.03084H36.0157V4.11084Z" fill="#D94625"/>
<path d="M36.0157 8.03076H32.0957V11.9508H36.0157V8.03076Z" fill="#D94625"/>
<path d="M36.0157 11.9507H32.0957V15.8707H36.0157V11.9507Z" fill="#D94625"/>
<path d="M24.2557 15.8711H20.3257V19.7911H24.2557V15.8711Z" fill="#D94625"/>
<path d="M24.2557 23.7207H20.3257V27.6407H24.2557V23.7207Z" fill="#D94625"/>
<path d="M24.2557 11.9507H20.3257V15.8707H24.2557V11.9507Z" fill="#D94625"/>
<path d="M28.1756 15.8711H24.2556V19.7911H28.1756V15.8711Z" fill="#D94625"/>
<path d="M28.1756 11.9507H24.2556V15.8707H28.1756V11.9507Z" fill="#D94625"/>
<path d="M32.0955 8.03076H28.1755V11.9508H32.0955V8.03076Z" fill="#D94625"/>
<path d="M32.0955 11.9507H28.1755V15.8707H32.0955V11.9507Z" fill="#D94625"/>
<path d="M32.0955 15.8711H28.1755V19.7911H32.0955V15.8711Z" fill="#D94625"/>
<path d="M20.3255 19.791H16.4055V23.721H20.3255V19.791Z" fill="#D94625"/>
<path d="M20.3255 15.8711H16.4055V19.7911H20.3255V15.8711Z" fill="#D94625"/>
<path d="M24.2557 19.791H20.3257V23.721H24.2557V19.791Z" fill="#D94625"/>
<path d="M28.1756 19.791H24.2556V23.721H28.1756V19.791Z" fill="#D94625"/>
<path d="M32.0955 19.791H28.1755V23.721H32.0955V19.791Z" fill="#D94625"/>
<path d="M32.0955 23.7207H28.1755V27.6407H32.0955V23.7207Z" fill="#D94625"/>
<path d="M28.1756 23.7207H24.2556V27.6407H28.1756V23.7207Z" fill="#D94625"/>
<path d="M28.1756 27.6411H24.2556V31.5611H28.1756V27.6411Z" fill="#D94625"/>
<path d="M32.0955 27.6411H28.1755V31.5611H32.0955V27.6411Z" fill="#D94625"/>
<path d="M32.0955 31.561H28.1755V35.481H32.0955V31.561Z" fill="#D94625"/>
<path d="M28.1756 35.481H24.2556V39.401H28.1756V35.481Z" fill="#D94625"/>
<path d="M28.1756 31.561H24.2556V35.481H28.1756V31.561Z" fill="#D94625"/>
<path d="M24.2557 31.561H20.3257V35.481H24.2557V31.561Z" fill="#D94625"/>
<path d="M24.2557 27.6411H20.3257V31.5611H24.2557V27.6411Z" fill="#D94625"/>
<path d="M20.3255 27.6411H16.4055V31.5611H20.3255V27.6411Z" fill="#D94625"/>
<path d="M20.3255 23.7207H16.4055V27.6407H20.3255V23.7207Z" fill="#D94625"/>
<path d="M16.4056 23.7207H12.4856V27.6407H16.4056V23.7207Z" fill="#D94625"/>
<path d="M12.4857 19.791H8.56567V23.721H12.4857V19.791Z" fill="#D94625"/>
<path d="M12.4857 11.9507H8.56567V15.8707H12.4857V11.9507Z" fill="#D94625"/>
<path d="M16.4056 15.8711H12.4856V19.7911H16.4056V15.8711Z" fill="#D94625"/>
<path d="M16.4056 19.791H12.4856V23.721H16.4056V19.791Z" fill="#D94625"/>
<path d="M20.3255 4.11084H16.4055V8.03084H20.3255V4.11084Z" fill="#D94625"/>
<path d="M12.4857 4.11084H8.56567V8.03084H12.4857V4.11084Z" fill="#D94625"/>
<path d="M16.4056 4.11084H12.4856V8.03084H16.4056V4.11084Z" fill="#D94625"/>
<path d="M24.2557 8.03076H20.3257V11.9508H24.2557V8.03076Z" fill="#D94625"/>
<path d="M20.3255 8.03076H16.4055V11.9508H20.3255V8.03076Z" fill="#D94625"/>
<path d="M16.4056 8.03076H12.4856V11.9508H16.4056V8.03076Z" fill="#D94625"/>
<path d="M12.4857 8.03076H8.56567V11.9508H12.4857V8.03076Z" fill="#D94625"/>
<path d="M8.56551 8.03076H4.64551V11.9508H8.56551V8.03076Z" fill="#D94625"/>
<path d="M8.56551 11.9507H4.64551V15.8707H8.56551V11.9507Z" fill="#D94625"/>
<path d="M8.56551 15.8711H4.64551V19.7911H8.56551V15.8711Z" fill="#D94625"/>
<path d="M12.4857 15.8711H8.56567V19.7911H12.4857V15.8711Z" fill="#D94625"/>
<path d="M51.7056 15.8711H47.7856V19.7911H51.7056V15.8711Z" fill="#D94625"/>
<path d="M51.7056 11.9507H47.7856V15.8707H51.7056V11.9507Z" fill="#D94625"/>
<path d="M51.7056 8.03076H47.7856V11.9508H51.7056V8.03076Z" fill="#D94625"/>
<path d="M47.7855 19.791H43.8555V23.721H47.7855V19.791Z" fill="#D94625"/>
<path d="M47.7855 4.11084H43.8555V8.03084H47.7855V4.11084Z" fill="#D94625"/>
<path d="M43.8555 23.7207H39.9355V27.6407H43.8555V23.7207Z" fill="#D94625"/>
<path d="M43.8555 0.190918H39.9355V4.11092H43.8555V0.190918Z" fill="#D94625"/>
<path d="M39.9356 27.6411H36.0156V31.5611H39.9356V27.6411Z" fill="#D94625"/>
<path d="M39.9356 0.190918H36.0156V4.11092H39.9356V0.190918Z" fill="#D94625"/>
<path d="M36.0157 31.561H32.0957V35.481H36.0157V31.561Z" fill="#D94625"/>
<path d="M36.0157 0.190918H32.0957V4.11092H36.0157V0.190918Z" fill="#D94625"/>
<path d="M32.0955 35.481H28.1755V39.401H32.0955V35.481Z" fill="#D94625"/>
<path d="M32.0955 4.11084H28.1755V8.03084H32.0955V4.11084Z" fill="#D94625"/>
<path d="M28.1756 39.4009H24.2556V43.3209H28.1756V39.4009Z" fill="#D94625"/>
<path d="M28.1756 8.03076H24.2556V11.9508H28.1756V8.03076Z" fill="#D94625"/>
<path d="M24.2557 35.481H20.3257V39.401H24.2557V35.481Z" fill="#D94625"/>
<path d="M24.2557 4.11084H20.3257V8.03084H24.2557V4.11084Z" fill="#D94625"/>
<path d="M20.3255 31.561H16.4055V35.481H20.3255V31.561Z" fill="#D94625"/>
<path d="M20.3255 11.9507H16.4055V15.8707H20.3255V11.9507Z" fill="#D94625"/>
<path d="M20.3255 0.190918H16.4055V4.11092H20.3255V0.190918Z" fill="#D94625"/>
<path d="M16.4056 27.6411H12.4856V31.5611H16.4056V27.6411Z" fill="#D94625"/>
<path d="M16.4056 11.9507H12.4856V15.8707H16.4056V11.9507Z" fill="#D94625"/>
<path d="M16.4056 0.190918H12.4856V4.11092H16.4056V0.190918Z" fill="#D94625"/>
<path d="M12.4857 23.7207H8.56567V27.6407H12.4857V23.7207Z" fill="#D94625"/>
<path d="M12.4857 0.190918H8.56567V4.11092H12.4857V0.190918Z" fill="#D94625"/>
<path d="M8.56551 19.791H4.64551V23.721H8.56551V19.791Z" fill="#D94625"/>
<path d="M8.56551 4.11084H4.64551V8.03084H8.56551V4.11084Z" fill="#D94625"/>
<path d="M4.64559 15.8711H0.725586V19.7911H4.64559V15.8711Z" fill="#D94625"/>
<path d="M4.64559 11.9507H0.725586V15.8707H4.64559V11.9507Z" fill="#D94625"/>
<path d="M4.64559 8.03076H0.725586V11.9508H4.64559V8.03076Z" fill="#D94625"/>
</g>
<defs>
<clipPath id="clip0_414_4539">
<rect width="50.98" height="43.13" fill="white" transform="translate(0.725586 0.190918)"/>
</clipPath>
</defs>
</svg>
