<svg width="51" height="44" viewBox="0 0 51 44" fill="none" xmlns="http://www.w3.org/2000/svg">
<g clip-path="url(#clip0_409_11374)">
<path d="M27.4698 39.5293H23.5498V43.4493H27.4698V39.5293Z" fill="#D94625"/>
<path d="M31.3902 35.6094H27.4702V39.5294H31.3902V35.6094Z" fill="#D94625"/>
<path d="M23.5501 35.6094H19.6201V39.5294H23.5501V35.6094Z" fill="#D94625"/>
<path d="M35.3101 31.6895H31.3901V35.6095H35.3101V31.6895Z" fill="#D94625"/>
<path d="M19.6202 31.6895H15.7002V35.6095H19.6202V31.6895Z" fill="#D94625"/>
<path d="M15.6998 27.7695H11.7798V31.6895H15.6998V27.7695Z" fill="#D94625"/>
<path d="M39.2301 27.7695H35.3101V31.6895H39.2301V27.7695Z" fill="#D94625"/>
<path d="M43.15 23.8491H39.23V27.7691H43.15V23.8491Z" fill="#D94625"/>
<path d="M11.7799 23.8491H7.85986V27.7691H11.7799V23.8491Z" fill="#D94625"/>
<path d="M47.0799 19.9194H43.1499V23.8494H47.0799V19.9194Z" fill="#D94625"/>
<path d="M7.85994 19.9194H3.93994V23.8494H7.85994V19.9194Z" fill="#D94625"/>
<path d="M51.0001 15.9995H47.0801V19.9195H51.0001V15.9995Z" fill="#D94625"/>
<path d="M51.0001 12.0791H47.0801V15.9991H51.0001V12.0791Z" fill="#D94625"/>
<path d="M51.0001 8.15918H47.0801V12.0792H51.0001V8.15918Z" fill="#D94625"/>
<path d="M3.94002 15.9995H0.0200195V19.9195H3.94002V15.9995Z" fill="#D94625"/>
<path d="M3.94002 12.0791H0.0200195V15.9991H3.94002V12.0791Z" fill="#D94625"/>
<path d="M3.94002 8.15918H0.0200195V12.0792H3.94002V8.15918Z" fill="#D94625"/>
<path d="M47.0799 4.23926H43.1499V8.15926H47.0799V4.23926Z" fill="#D94625"/>
<path d="M7.85994 4.23926H3.93994V8.15926H7.85994V4.23926Z" fill="#D94625"/>
<path d="M43.15 0.319336H39.23V4.23934H43.15V0.319336Z" fill="#D94625"/>
<path d="M39.2301 0.319336H35.3101V4.23934H39.2301V0.319336Z" fill="#D94625"/>
<path d="M35.3101 0.319336H31.3901V4.23934H35.3101V0.319336Z" fill="#D94625"/>
<path d="M31.3902 4.23926H27.4702V8.15926H31.3902V4.23926Z" fill="#D94625"/>
<path d="M27.4698 8.15918H23.5498V12.0792H27.4698V8.15918Z" fill="#D94625"/>
<path d="M23.5501 4.23926H19.6201V8.15926H23.5501V4.23926Z" fill="#D94625"/>
<path d="M19.6202 12.0791H15.7002V15.9991H19.6202V12.0791Z" fill="white"/>
<path d="M19.6202 0.319336H15.7002V4.23934H19.6202V0.319336Z" fill="#D94625"/>
<path d="M15.6998 12.0791H11.7798V15.9991H15.6998V12.0791Z" fill="white"/>
<path d="M15.6998 0.319336H11.7798V4.23934H15.6998V0.319336Z" fill="#D94625"/>
<path d="M11.7799 0.319336H7.85986V4.23934H11.7799V0.319336Z" fill="#D94625"/>
</g>
<defs>
<clipPath id="clip0_409_11374">
<rect width="50.98" height="43.13" fill="white" transform="translate(0.0200195 0.319336)"/>
</clipPath>
</defs>
</svg>
