<svg width="24" height="20" viewBox="0 0 24 20" fill="none" xmlns="http://www.w3.org/2000/svg">
<path d="M16.617 16.6099H15.6941V17.5324H16.617V16.6099Z" fill="#262523"/>
<path d="M16.617 17.5322H15.6941V18.4547H16.617V17.5322Z" fill="#262523"/>
<path d="M17.5398 18.4546H16.6169V19.3771H17.5398V18.4546Z" fill="#262523"/>
<path d="M18.4627 18.4546H17.5398V19.3771H18.4627V18.4546Z" fill="#262523"/>
<path d="M19.3855 17.5322H18.4626V18.4547H19.3855V17.5322Z" fill="#262523"/>
<path d="M19.3855 16.6099H18.4626V17.5324H19.3855V16.6099Z" fill="#262523"/>
<path d="M17.5398 15.6875H16.6169V16.61H17.5398V15.6875Z" fill="#262523"/>
<path d="M18.4627 15.6875H17.5398V16.61H18.4627V15.6875Z" fill="#262523"/>
<path d="M11.0747 16.6099H10.1519V17.5324H11.0747V16.6099Z" fill="#262523"/>
<path d="M11.0747 17.5322H10.1519V18.4547H11.0747V17.5322Z" fill="#262523"/>
<path d="M10.1519 18.4546H9.229V19.3771H10.1519V18.4546Z" fill="#262523"/>
<path d="M9.2288 18.4546H8.30591V19.3771H9.2288V18.4546Z" fill="#262523"/>
<path d="M8.30595 17.5322H7.38306V18.4547H8.30595V17.5322Z" fill="#262523"/>
<path d="M8.30595 16.6099H7.38306V17.5324H8.30595V16.6099Z" fill="#262523"/>
<path d="M10.1519 15.6875H9.229V16.61H10.1519V15.6875Z" fill="#262523"/>
<path d="M9.2288 15.6875H8.30591V16.61H9.2288V15.6875Z" fill="#262523"/>
<path d="M24 2.76758H23.0771V3.69008H24V2.76758Z" fill="#262523"/>
<path d="M23.0772 2.76758H22.1543V3.69008H23.0772V2.76758Z" fill="#262523"/>
<path d="M22.1543 8.30225H21.2314V9.22475H22.1543V8.30225Z" fill="#262523"/>
<path d="M22.1543 7.37988H21.2314V8.30238H22.1543V7.37988Z" fill="#262523"/>
<path d="M22.1543 6.45752H21.2314V7.38002H22.1543V6.45752Z" fill="#262523"/>
<path d="M22.1543 5.53516H21.2314V6.45766H22.1543V5.53516Z" fill="#262523"/>
<path d="M22.1543 4.6123H21.2314V5.5348H22.1543V4.6123Z" fill="#262523"/>
<path d="M22.1543 3.68994H21.2314V4.61244H22.1543V3.68994Z" fill="#262523"/>
<path d="M22.1543 2.76758H21.2314V3.69008H22.1543V2.76758Z" fill="#262523"/>
<path d="M21.2312 13.8423H20.3083V14.7648H21.2312V13.8423Z" fill="#262523"/>
<path d="M21.2312 12.915H20.3083V13.8424H21.2312V12.915Z" fill="#262523"/>
<path d="M21.2312 11.9927H20.3083V12.9152H21.2312V11.9927Z" fill="#262523"/>
<path d="M21.2312 11.0698H20.3083V11.9923H21.2312V11.0698Z" fill="#262523"/>
<path d="M21.2312 10.1475H20.3083V11.07H21.2312V10.1475Z" fill="#262523"/>
<path d="M21.2312 9.2251H20.3083V10.1476H21.2312V9.2251Z" fill="#262523"/>
<path d="M21.2312 8.30225H20.3083V9.22475H21.2312V8.30225Z" fill="#262523"/>
<path d="M21.2312 2.76758H20.3083V3.69008H21.2312V2.76758Z" fill="#262523"/>
<path d="M20.3084 13.8423H19.3855V14.7648H20.3084V13.8423Z" fill="#262523"/>
<path d="M20.3084 8.30225H19.3855V9.22475H20.3084V8.30225Z" fill="#262523"/>
<path d="M20.3084 2.76758H19.3855V3.69008H20.3084V2.76758Z" fill="#262523"/>
<path d="M19.3855 13.8423H18.4626V14.7648H19.3855V13.8423Z" fill="#262523"/>
<path d="M19.3855 8.30225H18.4626V9.22475H19.3855V8.30225Z" fill="#262523"/>
<path d="M19.3855 2.76758H18.4626V3.69008H19.3855V2.76758Z" fill="#262523"/>
<path d="M18.4627 13.8423H17.5398V14.7648H18.4627V13.8423Z" fill="#262523"/>
<path d="M18.4627 12.915H17.5398V13.8424H18.4627V12.915Z" fill="#262523"/>
<path d="M18.4627 11.9927H17.5398V12.9152H18.4627V11.9927Z" fill="#262523"/>
<path d="M18.4627 11.0698H17.5398V11.9923H18.4627V11.0698Z" fill="#262523"/>
<path d="M18.4627 10.1475H17.5398V11.07H18.4627V10.1475Z" fill="#262523"/>
<path d="M18.4627 9.2251H17.5398V10.1476H18.4627V9.2251Z" fill="#262523"/>
<path d="M18.4627 8.30225H17.5398V9.22475H18.4627V8.30225Z" fill="#262523"/>
<path d="M18.4627 7.37988H17.5398V8.30238H18.4627V7.37988Z" fill="#262523"/>
<path d="M18.4627 6.45752H17.5398V7.38002H18.4627V6.45752Z" fill="#262523"/>
<path d="M18.4627 5.53516H17.5398V6.45766H18.4627V5.53516Z" fill="#262523"/>
<path d="M18.4627 4.6123H17.5398V5.5348H18.4627V4.6123Z" fill="#262523"/>
<path d="M18.4627 3.68994H17.5398V4.61244H18.4627V3.68994Z" fill="#262523"/>
<path d="M18.4627 2.76758H17.5398V3.69008H18.4627V2.76758Z" fill="#262523"/>
<path d="M17.5398 13.8423H16.6169V14.7648H17.5398V13.8423Z" fill="#262523"/>
<path d="M17.5398 8.30225H16.6169V9.22475H17.5398V8.30225Z" fill="#262523"/>
<path d="M17.5398 2.76758H16.6169V3.69008H17.5398V2.76758Z" fill="#262523"/>
<path d="M16.617 13.8423H15.6941V14.7648H16.617V13.8423Z" fill="#262523"/>
<path d="M16.617 8.30225H15.6941V9.22475H16.617V8.30225Z" fill="#262523"/>
<path d="M16.617 2.76758H15.6941V3.69008H16.617V2.76758Z" fill="#262523"/>
<path d="M15.6941 13.8423H14.7712V14.7648H15.6941V13.8423Z" fill="#262523"/>
<path d="M15.6941 8.30225H14.7712V9.22475H15.6941V8.30225Z" fill="#262523"/>
<path d="M15.6941 2.76758H14.7712V3.69008H15.6941V2.76758Z" fill="#262523"/>
<path d="M14.771 13.8423H13.8481V14.7648H14.771V13.8423Z" fill="#262523"/>
<path d="M14.771 8.30225H13.8481V9.22475H14.771V8.30225Z" fill="#262523"/>
<path d="M14.771 2.76758H13.8481V3.69008H14.771V2.76758Z" fill="#262523"/>
<path d="M13.8482 13.8423H12.9253V14.7648H13.8482V13.8423Z" fill="#262523"/>
<path d="M13.8482 12.915H12.9253V13.8424H13.8482V12.915Z" fill="#262523"/>
<path d="M13.8482 11.9927H12.9253V12.9152H13.8482V11.9927Z" fill="#262523"/>
<path d="M13.8482 11.0698H12.9253V11.9923H13.8482V11.0698Z" fill="#262523"/>
<path d="M13.8482 10.1475H12.9253V11.07H13.8482V10.1475Z" fill="#262523"/>
<path d="M13.8482 9.2251H12.9253V10.1476H13.8482V9.2251Z" fill="#262523"/>
<path d="M13.8482 8.30225H12.9253V9.22475H13.8482V8.30225Z" fill="#262523"/>
<path d="M13.8482 7.37988H12.9253V8.30238H13.8482V7.37988Z" fill="#262523"/>
<path d="M13.8482 6.45752H12.9253V7.38002H13.8482V6.45752Z" fill="#262523"/>
<path d="M13.8482 5.53516H12.9253V6.45766H13.8482V5.53516Z" fill="#262523"/>
<path d="M13.8482 4.6123H12.9253V5.5348H13.8482V4.6123Z" fill="#262523"/>
<path d="M13.8482 3.68994H12.9253V4.61244H13.8482V3.68994Z" fill="#262523"/>
<path d="M13.8482 2.76758H12.9253V3.69008H13.8482V2.76758Z" fill="#262523"/>
<path d="M12.9253 13.8423H12.0024V14.7648H12.9253V13.8423Z" fill="#262523"/>
<path d="M12.9253 8.30225H12.0024V9.22475H12.9253V8.30225Z" fill="#262523"/>
<path d="M12.9253 2.76758H12.0024V3.69008H12.9253V2.76758Z" fill="#262523"/>
<path d="M12.0025 13.8423H11.0747V14.7648H12.0025V13.8423Z" fill="#262523"/>
<path d="M12.0025 8.30225H11.0747V9.22475H12.0025V8.30225Z" fill="#262523"/>
<path d="M12.0025 2.76758H11.0747V3.69008H12.0025V2.76758Z" fill="#262523"/>
<path d="M11.0747 13.8423H10.1519V14.7648H11.0747V13.8423Z" fill="#262523"/>
<path d="M11.0747 8.30225H10.1519V9.22475H11.0747V8.30225Z" fill="#262523"/>
<path d="M11.0747 2.76758H10.1519V3.69008H11.0747V2.76758Z" fill="#262523"/>
<path d="M10.1519 13.8423H9.229V14.7648H10.1519V13.8423Z" fill="#262523"/>
<path d="M10.1519 8.30225H9.229V9.22475H10.1519V8.30225Z" fill="#262523"/>
<path d="M10.1519 2.76758H9.229V3.69008H10.1519V2.76758Z" fill="#262523"/>
<path d="M9.2288 13.8423H8.30591V14.7648H9.2288V13.8423Z" fill="#262523"/>
<path d="M9.2288 12.915H8.30591V13.8424H9.2288V12.915Z" fill="#262523"/>
<path d="M9.2288 11.9927H8.30591V12.9152H9.2288V11.9927Z" fill="#262523"/>
<path d="M9.2288 11.0698H8.30591V11.9923H9.2288V11.0698Z" fill="#262523"/>
<path d="M9.2288 10.1475H8.30591V11.07H9.2288V10.1475Z" fill="#262523"/>
<path d="M9.2288 9.2251H8.30591V10.1476H9.2288V9.2251Z" fill="#262523"/>
<path d="M9.2288 8.30225H8.30591V9.22475H9.2288V8.30225Z" fill="#262523"/>
<path d="M9.2288 7.37988H8.30591V8.30238H9.2288V7.37988Z" fill="#262523"/>
<path d="M9.2288 6.45752H8.30591V7.38002H9.2288V6.45752Z" fill="#262523"/>
<path d="M9.2288 5.53516H8.30591V6.45766H9.2288V5.53516Z" fill="#262523"/>
<path d="M9.2288 4.6123H8.30591V5.5348H9.2288V4.6123Z" fill="#262523"/>
<path d="M9.2288 3.68994H8.30591V4.61244H9.2288V3.68994Z" fill="#262523"/>
<path d="M9.2288 2.76758H8.30591V3.69008H9.2288V2.76758Z" fill="#262523"/>
<path d="M8.30595 13.8423H7.38306V14.7648H8.30595V13.8423Z" fill="#262523"/>
<path d="M8.30595 8.30225H7.38306V9.22475H8.30595V8.30225Z" fill="#262523"/>
<path d="M8.30595 2.76758H7.38306V3.69008H8.30595V2.76758Z" fill="#262523"/>
<path d="M7.38309 13.8423H6.46021V14.7648H7.38309V13.8423Z" fill="#262523"/>
<path d="M7.38309 8.30225H6.46021V9.22475H7.38309V8.30225Z" fill="#262523"/>
<path d="M7.38309 2.76758H6.46021V3.69008H7.38309V2.76758Z" fill="#262523"/>
<path d="M6.46025 13.8423H5.53735V14.7648H6.46025V13.8423Z" fill="#262523"/>
<path d="M6.46025 12.915H5.53735V13.8424H6.46025V12.915Z" fill="#262523"/>
<path d="M6.46025 11.9927H5.53735V12.9152H6.46025V11.9927Z" fill="#262523"/>
<path d="M6.46025 11.0698H5.53735V11.9923H6.46025V11.0698Z" fill="#262523"/>
<path d="M6.46025 10.1475H5.53735V11.07H6.46025V10.1475Z" fill="#262523"/>
<path d="M6.46025 9.2251H5.53735V10.1476H6.46025V9.2251Z" fill="#262523"/>
<path d="M6.46025 8.30225H5.53735V9.22475H6.46025V8.30225Z" fill="#262523"/>
<path d="M6.46025 2.76758H5.53735V3.69008H6.46025V2.76758Z" fill="#262523"/>
<path d="M5.53739 8.30225H4.6145V9.22475H5.53739V8.30225Z" fill="#262523"/>
<path d="M5.53739 7.37988H4.6145V8.30238H5.53739V7.37988Z" fill="#262523"/>
<path d="M5.53739 6.45752H4.6145V7.38002H5.53739V6.45752Z" fill="#262523"/>
<path d="M5.53739 5.53516H4.6145V6.45766H5.53739V5.53516Z" fill="#262523"/>
<path d="M5.53739 4.6123H4.6145V5.5348H5.53739V4.6123Z" fill="#262523"/>
<path d="M5.53739 3.68994H4.6145V4.61244H5.53739V3.68994Z" fill="#262523"/>
<path d="M5.53739 2.76758H4.6145V3.69008H5.53739V2.76758Z" fill="#262523"/>
<path d="M4.61454 2.76758H3.69165V3.69008H4.61454V2.76758Z" fill="#262523"/>
<path d="M3.69169 2.76758H2.7688V3.69008H3.69169V2.76758Z" fill="#262523"/>
<path d="M3.69169 1.84473H2.7688V2.76723H3.69169V1.84473Z" fill="#262523"/>
<path d="M3.69169 0.922363H2.7688V1.84486H3.69169V0.922363Z" fill="#262523"/>
<path d="M3.69169 0H2.7688V0.9225H3.69169V0Z" fill="#262523"/>
<path d="M2.76859 0H1.8457V0.9225H2.76859V0Z" fill="#262523"/>
<path d="M1.84575 0H0.922852V0.9225H1.84575V0Z" fill="#262523"/>
<path d="M0.922887 0H0V0.9225H0.922887V0Z" fill="#262523"/>
</svg>
