<svg width="32" height="33" viewBox="0 0 32 33" fill="none" xmlns="http://www.w3.org/2000/svg">
<g clip-path="url(#clip0_751_5383)">
<path d="M21.5082 29.1148H20.459V30.1931H21.5082V29.1148Z" fill="#FFFDF9"/>
<path d="M21.5082 28.306H20.459V29.1148H21.5082V28.306Z" fill="#FFFDF9"/>
<path d="M21.5082 27.4973H20.459V28.3061H21.5082V27.4973Z" fill="#FFFDF9"/>
<path d="M21.5082 26.4189H20.459V27.4973H21.5082V26.4189Z" fill="#FFFDF9"/>
<path d="M21.5082 25.6102H20.459V26.419H21.5082V25.6102Z" fill="#FFFDF9"/>
<path d="M22.0329 29.1148H21.5083V30.1931H22.0329V29.1148Z" fill="#FFFDF9"/>
<path d="M22.0329 28.306H21.5083V29.1148H22.0329V28.306Z" fill="#FFFDF9"/>
<path d="M22.0329 27.4973H21.5083V28.3061H22.0329V27.4973Z" fill="#FFFDF9"/>
<path d="M22.0329 26.4189H21.5083V27.4973H22.0329V26.4189Z" fill="#FFFDF9"/>
<path d="M22.0329 25.6102H21.5083V26.419H22.0329V25.6102Z" fill="#FFFDF9"/>
<path d="M22.0329 23.7231H21.5083V24.8015H22.0329V23.7231Z" fill="#FFFDF9"/>
<path d="M22.0329 22.6448H21.5083V23.7232H22.0329V22.6448Z" fill="#FFFDF9"/>
<path d="M22.0329 22.1057H21.5083V22.6448H22.0329V22.1057Z" fill="#FFFDF9"/>
<path d="M22.0329 21.0273H21.5083V22.1057H22.0329V21.0273Z" fill="#FFFDF9"/>
<path d="M22.0329 19.949H21.5083V21.0274H22.0329V19.949Z" fill="#FFFDF9"/>
<path d="M22.0329 19.4099H21.5083V19.949H22.0329V19.4099Z" fill="#FFFDF9"/>
<path d="M22.0329 18.3315H21.5083V19.4099H22.0329V18.3315Z" fill="#FFFDF9"/>
<path d="M22.0329 17.2532H21.5083V18.3316H22.0329V17.2532Z" fill="#FFFDF9"/>
<path d="M22.0329 16.4445H21.5083V17.2532H22.0329V16.4445Z" fill="#FFFDF9"/>
<path d="M22.0329 15.6357H21.5083V16.4445H22.0329V15.6357Z" fill="#FFFDF9"/>
<path d="M22.0329 14.5574H21.5083V15.6358H22.0329V14.5574Z" fill="#FFFDF9"/>
<path d="M22.0329 13.7487H21.5083V14.5574H22.0329V13.7487Z" fill="#FFFDF9"/>
<path d="M22.0329 12.9399H21.5083V13.7487H22.0329V12.9399Z" fill="#FFFDF9"/>
<path d="M22.0329 11.8616H21.5083V12.9399H22.0329V11.8616Z" fill="#FFFDF9"/>
<path d="M22.0329 10.7833H21.5083V11.8616H22.0329V10.7833Z" fill="#FFFDF9"/>
<path d="M17.8358 10.2441H16.7866V10.7833H17.8358V10.2441Z" fill="#FFFDF9"/>
<path d="M19.4099 10.2441H18.623V10.7833H19.4099V10.2441Z" fill="#FFFDF9"/>
<path d="M18.6228 10.2441H17.8359V10.7833H18.6228V10.2441Z" fill="#FFFDF9"/>
<path d="M15.2132 10.2441H14.1641V10.7833H15.2132V10.2441Z" fill="#FFFDF9"/>
<path d="M16.7869 10.2441H16V10.7833H16.7869V10.2441Z" fill="#FFFDF9"/>
<path d="M15.9998 10.2441H15.2129V10.7833H15.9998V10.2441Z" fill="#FFFDF9"/>
<path d="M8.91783 10.2441H7.86865V10.7833H8.91783V10.2441Z" fill="#FFFDF9"/>
<path d="M21.5082 10.2441H20.459V10.7833H21.5082V10.2441Z" fill="#FFFDF9"/>
<path d="M20.4588 10.2441H19.4097V10.7833H20.4588V10.2441Z" fill="#FFFDF9"/>
<path d="M7.86892 10.2441H7.08203V10.7833H7.86892V10.2441Z" fill="#FFFDF9"/>
<path d="M6.29527 26.4189H5.24609V27.4973H6.29527V26.4189Z" fill="#FFFDF9"/>
<path d="M8.91783 30.1931H7.86865V31.2714H8.91783V30.1931Z" fill="#FFFDF9"/>
<path d="M8.91783 29.1148H7.86865V30.1931H8.91783V29.1148Z" fill="#FFFDF9"/>
<path d="M8.91783 26.4189H7.86865V27.4973H8.91783V26.4189Z" fill="#FFFDF9"/>
<path d="M8.91783 25.6102H7.86865V26.419H8.91783V25.6102Z" fill="#FFFDF9"/>
<path d="M9.96715 30.1931H8.91797V31.2714H9.96715V30.1931Z" fill="#FFFDF9"/>
<path d="M9.96715 29.1148H8.91797V30.1931H9.96715V29.1148Z" fill="#FFFDF9"/>
<path d="M9.96715 28.306H8.91797V29.1148H9.96715V28.306Z" fill="#FFFDF9"/>
<path d="M6.29527 30.1931H5.24609V31.2714H6.29527V30.1931Z" fill="#FFFDF9"/>
<path d="M6.29527 29.1148H5.24609V30.1931H6.29527V29.1148Z" fill="#FFFDF9"/>
<path d="M6.29527 27.4973H5.24609V28.3061H6.29527V27.4973Z" fill="#FFFDF9"/>
<path d="M6.29527 25.6102H5.24609V26.419H6.29527V25.6102Z" fill="#FFFDF9"/>
<path d="M6.29527 23.7231H5.24609V24.8015H6.29527V23.7231Z" fill="#FFFDF9"/>
<path d="M6.29527 22.6448H5.24609V23.7232H6.29527V22.6448Z" fill="#FFFDF9"/>
<path d="M6.29527 22.1057H5.24609V22.6448H6.29527V22.1057Z" fill="#FFFDF9"/>
<path d="M6.29527 21.0273H5.24609V22.1057H6.29527V21.0273Z" fill="#FFFDF9"/>
<path d="M6.29527 16.4445H5.24609V17.2532H6.29527V16.4445Z" fill="#FFFDF9"/>
<path d="M5.24587 30.1931H4.45898V31.2714H5.24587V30.1931Z" fill="#FFFDF9"/>
<path d="M5.24587 27.4973H4.45898V28.3061H5.24587V27.4973Z" fill="#FFFDF9"/>
<path d="M5.24587 26.4189H4.45898V27.4973H5.24587V26.4189Z" fill="#FFFDF9"/>
<path d="M5.24587 25.6102H4.45898V26.419H5.24587V25.6102Z" fill="#FFFDF9"/>
<path d="M5.24587 22.6448H4.45898V23.7232H5.24587V22.6448Z" fill="#FFFDF9"/>
<path d="M7.86892 30.1931H7.08203V31.2714H7.86892V30.1931Z" fill="#FFFDF9"/>
<path d="M7.86892 29.1148H7.08203V30.1931H7.86892V29.1148Z" fill="#FFFDF9"/>
<path d="M7.86892 27.4973H7.08203V28.3061H7.86892V27.4973Z" fill="#FFFDF9"/>
<path d="M7.86892 26.4189H7.08203V27.4973H7.86892V26.4189Z" fill="#FFFDF9"/>
<path d="M7.86892 25.6102H7.08203V26.419H7.86892V25.6102Z" fill="#FFFDF9"/>
<path d="M7.08181 30.1931H6.29492V31.2714H7.08181V30.1931Z" fill="#FFFDF9"/>
<path d="M7.08181 29.1148H6.29492V30.1931H7.08181V29.1148Z" fill="#FFFDF9"/>
<path d="M7.08181 27.4973H6.29492V28.3061H7.08181V27.4973Z" fill="#FFFDF9"/>
<path d="M7.08181 26.4189H6.29492V27.4973H7.08181V26.4189Z" fill="#FFFDF9"/>
<path d="M7.08181 25.6102H6.29492V26.419H7.08181V25.6102Z" fill="#FFFDF9"/>
<path d="M4.45876 30.1931H3.67188V31.2714H4.45876V30.1931Z" fill="#FFFDF9"/>
<path d="M4.45876 28.306H3.67188V29.1148H4.45876V28.306Z" fill="#FFFDF9"/>
<path d="M4.45876 27.4973H3.67188V28.3061H4.45876V27.4973Z" fill="#FFFDF9"/>
<path d="M4.45876 26.4189H3.67188V27.4973H4.45876V26.4189Z" fill="#FFFDF9"/>
<path d="M4.45876 25.6102H3.67188V26.419H4.45876V25.6102Z" fill="#FFFDF9"/>
<path d="M4.45876 24.8015H3.67188V25.6103H4.45876V24.8015Z" fill="#FFFDF9"/>
<path d="M3.67223 30.1931H2.62305V31.2714H3.67223V30.1931Z" fill="#FFFDF9"/>
<path d="M3.67223 28.306H2.62305V29.1148H3.67223V28.306Z" fill="#FFFDF9"/>
<path d="M3.67223 27.4973H2.62305V28.3061H3.67223V27.4973Z" fill="#FFFDF9"/>
<path d="M3.67223 26.4189H2.62305V27.4973H3.67223V26.4189Z" fill="#FFFDF9"/>
<path d="M3.67223 25.6102H2.62305V26.419H3.67223V25.6102Z" fill="#FFFDF9"/>
<path d="M3.67223 24.8015H2.62305V25.6103H3.67223V24.8015Z" fill="#FFFDF9"/>
<path d="M2.62291 30.1931H1.57373V31.2714H2.62291V30.1931Z" fill="#FFFDF9"/>
<path d="M2.62291 28.306H1.57373V29.1148H2.62291V28.306Z" fill="#FFFDF9"/>
<path d="M2.62291 27.4973H1.57373V28.3061H2.62291V27.4973Z" fill="#FFFDF9"/>
<path d="M2.62291 26.4189H1.57373V27.4973H2.62291V26.4189Z" fill="#FFFDF9"/>
<path d="M2.62291 25.6102H1.57373V26.419H2.62291V25.6102Z" fill="#FFFDF9"/>
<path d="M2.62291 24.8015H1.57373V25.6103H2.62291V24.8015Z" fill="#FFFDF9"/>
<path d="M2.62291 23.7231H1.57373V24.8015H2.62291V23.7231Z" fill="#FFFDF9"/>
<path d="M8.91783 19.949H7.86865V21.0274H8.91783V19.949Z" fill="#FFFDF9"/>
<path d="M8.91783 19.4099H7.86865V19.949H8.91783V19.4099Z" fill="#FFFDF9"/>
<path d="M8.91783 18.3315H7.86865V19.4099H8.91783V18.3315Z" fill="#FFFDF9"/>
<path d="M8.91783 17.2532H7.86865V18.3316H8.91783V17.2532Z" fill="#FFFDF9"/>
<path d="M8.91783 16.4445H7.86865V17.2532H8.91783V16.4445Z" fill="#FFFDF9"/>
<path d="M9.96715 19.949H8.91797V21.0274H9.96715V19.949Z" fill="#FFFDF9"/>
<path d="M9.96715 19.4099H8.91797V19.949H9.96715V19.4099Z" fill="#FFFDF9"/>
<path d="M9.96715 18.3315H8.91797V19.4099H9.96715V18.3315Z" fill="#FFFDF9"/>
<path d="M9.96715 17.2532H8.91797V18.3316H9.96715V17.2532Z" fill="#FFFDF9"/>
<path d="M9.96715 16.4445H8.91797V17.2532H9.96715V16.4445Z" fill="#FFFDF9"/>
<path d="M6.29527 19.949H5.24609V21.0274H6.29527V19.949Z" fill="#FFFDF9"/>
<path d="M6.29527 19.4099H5.24609V19.949H6.29527V19.4099Z" fill="#FFFDF9"/>
<path d="M6.29527 18.3315H5.24609V19.4099H6.29527V18.3315Z" fill="#FFFDF9"/>
<path d="M5.24587 22.1057H4.45898V22.6448H5.24587V22.1057Z" fill="#FFFDF9"/>
<path d="M5.24587 21.0273H4.45898V22.1057H5.24587V21.0273Z" fill="#FFFDF9"/>
<path d="M5.24587 19.949H4.45898V21.0274H5.24587V19.949Z" fill="#FFFDF9"/>
<path d="M5.24587 19.4099H4.45898V19.949H5.24587V19.4099Z" fill="#FFFDF9"/>
<path d="M5.24587 18.3315H4.45898V19.4099H5.24587V18.3315Z" fill="#FFFDF9"/>
<path d="M7.86892 19.949H7.08203V21.0274H7.86892V19.949Z" fill="#FFFDF9"/>
<path d="M7.86892 19.4099H7.08203V19.949H7.86892V19.4099Z" fill="#FFFDF9"/>
<path d="M7.86892 18.3315H7.08203V19.4099H7.86892V18.3315Z" fill="#FFFDF9"/>
<path d="M7.86892 17.2532H7.08203V18.3316H7.86892V17.2532Z" fill="#FFFDF9"/>
<path d="M7.08181 19.949H6.29492V21.0274H7.08181V19.949Z" fill="#FFFDF9"/>
<path d="M7.08181 19.4099H6.29492V19.949H7.08181V19.4099Z" fill="#FFFDF9"/>
<path d="M7.08181 18.3315H6.29492V19.4099H7.08181V18.3315Z" fill="#FFFDF9"/>
<path d="M4.45876 22.6448H3.67188V23.7232H4.45876V22.6448Z" fill="#FFFDF9"/>
<path d="M4.45876 22.1057H3.67188V22.6448H4.45876V22.1057Z" fill="#FFFDF9"/>
<path d="M4.45876 21.0273H3.67188V22.1057H4.45876V21.0273Z" fill="#FFFDF9"/>
<path d="M4.45876 19.949H3.67188V21.0274H4.45876V19.949Z" fill="#FFFDF9"/>
<path d="M4.45876 19.4099H3.67188V19.949H4.45876V19.4099Z" fill="#FFFDF9"/>
<path d="M4.45876 18.3315H3.67188V19.4099H4.45876V18.3315Z" fill="#FFFDF9"/>
<path d="M4.45876 17.2532H3.67188V18.3316H4.45876V17.2532Z" fill="#FFFDF9"/>
<path d="M4.45876 16.4445H3.67188V17.2532H4.45876V16.4445Z" fill="#FFFDF9"/>
<path d="M3.67223 22.6448H2.62305V23.7232H3.67223V22.6448Z" fill="#FFFDF9"/>
<path d="M3.67223 22.1057H2.62305V22.6448H3.67223V22.1057Z" fill="#FFFDF9"/>
<path d="M3.67223 21.0273H2.62305V22.1057H3.67223V21.0273Z" fill="#FFFDF9"/>
<path d="M2.62291 22.6448H1.57373V23.7232H2.62291V22.6448Z" fill="#FFFDF9"/>
<path d="M2.62291 22.1057H1.57373V22.6448H2.62291V22.1057Z" fill="#FFFDF9"/>
<path d="M2.62291 21.0273H1.57373V22.1057H2.62291V21.0273Z" fill="#FFFDF9"/>
<path d="M8.91783 28.306H7.86865V29.1148H8.91783V28.306Z" fill="#FFFDF9"/>
<path d="M8.91783 27.4973H7.86865V28.3061H8.91783V27.4973Z" fill="#FFFDF9"/>
<path d="M8.91783 24.8015H7.86865V25.6103H8.91783V24.8015Z" fill="#FFFDF9"/>
<path d="M9.96715 27.4973H8.91797V28.3061H9.96715V27.4973Z" fill="#FFFDF9"/>
<path d="M9.96715 26.4189H8.91797V27.4973H9.96715V26.4189Z" fill="#FFFDF9"/>
<path d="M9.96715 25.6102H8.91797V26.419H9.96715V25.6102Z" fill="#FFFDF9"/>
<path d="M9.96715 24.8015H8.91797V25.6103H9.96715V24.8015Z" fill="#FFFDF9"/>
<path d="M6.29527 28.306H5.24609V29.1148H6.29527V28.306Z" fill="#FFFDF9"/>
<path d="M6.29527 24.8015H5.24609V25.6103H6.29527V24.8015Z" fill="#FFFDF9"/>
<path d="M5.24587 29.1148H4.45898V30.1931H5.24587V29.1148Z" fill="#FFFDF9"/>
<path d="M5.24587 28.306H4.45898V29.1148H5.24587V28.306Z" fill="#FFFDF9"/>
<path d="M5.24587 24.8015H4.45898V25.6103H5.24587V24.8015Z" fill="#FFFDF9"/>
<path d="M5.24587 23.7231H4.45898V24.8015H5.24587V23.7231Z" fill="#FFFDF9"/>
<path d="M7.86892 28.306H7.08203V29.1148H7.86892V28.306Z" fill="#FFFDF9"/>
<path d="M7.86892 24.8015H7.08203V25.6103H7.86892V24.8015Z" fill="#FFFDF9"/>
<path d="M7.08181 28.306H6.29492V29.1148H7.08181V28.306Z" fill="#FFFDF9"/>
<path d="M7.08181 24.8015H6.29492V25.6103H7.08181V24.8015Z" fill="#FFFDF9"/>
<path d="M4.45876 29.1148H3.67188V30.1931H4.45876V29.1148Z" fill="#FFFDF9"/>
<path d="M4.45876 23.7231H3.67188V24.8015H4.45876V23.7231Z" fill="#FFFDF9"/>
<path d="M3.67223 29.1148H2.62305V30.1931H3.67223V29.1148Z" fill="#FFFDF9"/>
<path d="M3.67223 23.7231H2.62305V24.8015H3.67223V23.7231Z" fill="#FFFDF9"/>
<path d="M1.57391 29.1148H1.04932V30.1931H1.57391V29.1148Z" fill="#FFFDF9"/>
<path d="M2.62291 29.1148H1.57373V30.1931H2.62291V29.1148Z" fill="#FFFDF9"/>
<path d="M2.62291 15.6357H1.57373V16.4445H2.62291V15.6357Z" fill="#FFFDF9"/>
<path d="M2.62291 18.3315H1.57373V19.4099H2.62291V18.3315Z" fill="#FFFDF9"/>
<path d="M2.62291 17.2532H1.57373V18.3316H2.62291V17.2532Z" fill="#FFFDF9"/>
<path d="M2.62291 16.4445H1.57373V17.2532H2.62291V16.4445Z" fill="#FFFDF9"/>
<path d="M1.57391 28.306H1.04932V29.1148H1.57391V28.306Z" fill="#FFFDF9"/>
<path d="M1.57391 27.4973H1.04932V28.3061H1.57391V27.4973Z" fill="#FFFDF9"/>
<path d="M1.57391 26.4189H1.04932V27.4973H1.57391V26.4189Z" fill="#FFFDF9"/>
<path d="M1.57391 25.6102H1.04932V26.419H1.57391V25.6102Z" fill="#FFFDF9"/>
<path d="M1.57391 24.8015H1.04932V25.6103H1.57391V24.8015Z" fill="#FFFDF9"/>
<path d="M1.57391 23.7231H1.04932V24.8015H1.57391V23.7231Z" fill="#FFFDF9"/>
<path d="M1.57391 22.6448H1.04932V23.7232H1.57391V22.6448Z" fill="#FFFDF9"/>
<path d="M1.57391 22.1057H1.04932V22.6448H1.57391V22.1057Z" fill="#FFFDF9"/>
<path d="M1.57391 21.0273H1.04932V22.1057H1.57391V21.0273Z" fill="#FFFDF9"/>
<path d="M1.57391 19.949H1.04932V21.0274H1.57391V19.949Z" fill="#FFFDF9"/>
<path d="M17.8358 31.2714H16.7866V31.8106H17.8358V31.2714Z" fill="#FFFDF9"/>
<path d="M17.8358 30.1931H16.7866V31.2714H17.8358V30.1931Z" fill="#FFFDF9"/>
<path d="M17.8358 29.1148H16.7866V30.1931H17.8358V29.1148Z" fill="#FFFDF9"/>
<path d="M17.8358 28.306H16.7866V29.1148H17.8358V28.306Z" fill="#FFFDF9"/>
<path d="M17.8358 27.4973H16.7866V28.3061H17.8358V27.4973Z" fill="#FFFDF9"/>
<path d="M17.8358 26.4189H16.7866V27.4973H17.8358V26.4189Z" fill="#FFFDF9"/>
<path d="M17.8358 25.6102H16.7866V26.419H17.8358V25.6102Z" fill="#FFFDF9"/>
<path d="M19.4099 31.2714H18.623V31.8106H19.4099V31.2714Z" fill="#FFFDF9"/>
<path d="M19.4099 30.1931H18.623V31.2714H19.4099V30.1931Z" fill="#FFFDF9"/>
<path d="M19.4099 29.1148H18.623V30.1931H19.4099V29.1148Z" fill="#FFFDF9"/>
<path d="M19.4099 28.306H18.623V29.1148H19.4099V28.306Z" fill="#FFFDF9"/>
<path d="M19.4099 27.4973H18.623V28.3061H19.4099V27.4973Z" fill="#FFFDF9"/>
<path d="M19.4099 26.4189H18.623V27.4973H19.4099V26.4189Z" fill="#FFFDF9"/>
<path d="M19.4099 25.6102H18.623V26.419H19.4099V25.6102Z" fill="#FFFDF9"/>
<path d="M18.6228 31.2714H17.8359V31.8106H18.6228V31.2714Z" fill="#FFFDF9"/>
<path d="M18.6228 30.1931H17.8359V31.2714H18.6228V30.1931Z" fill="#FFFDF9"/>
<path d="M18.6228 29.1148H17.8359V30.1931H18.6228V29.1148Z" fill="#FFFDF9"/>
<path d="M18.6228 28.306H17.8359V29.1148H18.6228V28.306Z" fill="#FFFDF9"/>
<path d="M18.6228 27.4973H17.8359V28.3061H18.6228V27.4973Z" fill="#FFFDF9"/>
<path d="M18.6228 26.4189H17.8359V27.4973H18.6228V26.4189Z" fill="#FFFDF9"/>
<path d="M18.6228 25.6102H17.8359V26.419H18.6228V25.6102Z" fill="#FFFDF9"/>
<path d="M15.2132 31.2714H14.1641V31.8106H15.2132V31.2714Z" fill="#FFFDF9"/>
<path d="M15.2132 30.1931H14.1641V31.2714H15.2132V30.1931Z" fill="#FFFDF9"/>
<path d="M15.2132 29.1148H14.1641V30.1931H15.2132V29.1148Z" fill="#FFFDF9"/>
<path d="M15.2132 28.306H14.1641V29.1148H15.2132V28.306Z" fill="#FFFDF9"/>
<path d="M15.2132 27.4973H14.1641V28.3061H15.2132V27.4973Z" fill="#FFFDF9"/>
<path d="M15.2132 26.4189H14.1641V27.4973H15.2132V26.4189Z" fill="#FFFDF9"/>
<path d="M15.2132 25.6102H14.1641V26.419H15.2132V25.6102Z" fill="#FFFDF9"/>
<path d="M14.1639 31.2714H13.1147V31.8106H14.1639V31.2714Z" fill="#FFFDF9"/>
<path d="M14.1639 30.1931H13.1147V31.2714H14.1639V30.1931Z" fill="#FFFDF9"/>
<path d="M14.1639 29.1148H13.1147V30.1931H14.1639V29.1148Z" fill="#FFFDF9"/>
<path d="M14.1639 28.306H13.1147V29.1148H14.1639V28.306Z" fill="#FFFDF9"/>
<path d="M14.1639 27.4973H13.1147V28.3061H14.1639V27.4973Z" fill="#FFFDF9"/>
<path d="M14.1639 26.4189H13.1147V27.4973H14.1639V26.4189Z" fill="#FFFDF9"/>
<path d="M14.1639 25.6102H13.1147V26.419H14.1639V25.6102Z" fill="#FFFDF9"/>
<path d="M16.7869 31.2714H16V31.8106H16.7869V31.2714Z" fill="#FFFDF9"/>
<path d="M16.7869 30.1931H16V31.2714H16.7869V30.1931Z" fill="#FFFDF9"/>
<path d="M16.7869 29.1148H16V30.1931H16.7869V29.1148Z" fill="#FFFDF9"/>
<path d="M16.7869 28.306H16V29.1148H16.7869V28.306Z" fill="#FFFDF9"/>
<path d="M16.7869 27.4973H16V28.3061H16.7869V27.4973Z" fill="#FFFDF9"/>
<path d="M16.7869 26.4189H16V27.4973H16.7869V26.4189Z" fill="#FFFDF9"/>
<path d="M16.7869 25.6102H16V26.419H16.7869V25.6102Z" fill="#FFFDF9"/>
<path d="M15.9998 31.2714H15.2129V31.8106H15.9998V31.2714Z" fill="#FFFDF9"/>
<path d="M15.9998 30.1931H15.2129V31.2714H15.9998V30.1931Z" fill="#FFFDF9"/>
<path d="M15.9998 29.1148H15.2129V30.1931H15.9998V29.1148Z" fill="#FFFDF9"/>
<path d="M15.9998 28.306H15.2129V29.1148H15.9998V28.306Z" fill="#FFFDF9"/>
<path d="M15.9998 27.4973H15.2129V28.3061H15.9998V27.4973Z" fill="#FFFDF9"/>
<path d="M15.9998 26.4189H15.2129V27.4973H15.9998V26.4189Z" fill="#FFFDF9"/>
<path d="M15.9998 25.6102H15.2129V26.419H15.9998V25.6102Z" fill="#FFFDF9"/>
<path d="M12.5902 31.2714H11.541V31.8106H12.5902V31.2714Z" fill="#FFFDF9"/>
<path d="M11.5409 31.2714H10.4917V31.8106H11.5409V31.2714Z" fill="#FFFDF9"/>
<path d="M13.1149 31.2714H12.5903V31.8106H13.1149V31.2714Z" fill="#FFFDF9"/>
<path d="M8.91783 31.2714H7.86865V31.8106H8.91783V31.2714Z" fill="#FFFDF9"/>
<path d="M10.4919 31.2714H9.96729V31.8106H10.4919V31.2714Z" fill="#FFFDF9"/>
<path d="M9.96715 31.2714H8.91797V31.8106H9.96715V31.2714Z" fill="#FFFDF9"/>
<path d="M20.4588 31.2714H19.4097V31.8106H20.4588V31.2714Z" fill="#FFFDF9"/>
<path d="M20.4588 30.1931H19.4097V31.2714H20.4588V30.1931Z" fill="#FFFDF9"/>
<path d="M20.4588 29.1148H19.4097V30.1931H20.4588V29.1148Z" fill="#FFFDF9"/>
<path d="M20.4588 28.306H19.4097V29.1148H20.4588V28.306Z" fill="#FFFDF9"/>
<path d="M20.4588 27.4973H19.4097V28.3061H20.4588V27.4973Z" fill="#FFFDF9"/>
<path d="M20.4588 26.4189H19.4097V27.4973H20.4588V26.4189Z" fill="#FFFDF9"/>
<path d="M20.4588 25.6102H19.4097V26.419H20.4588V25.6102Z" fill="#FFFDF9"/>
<path d="M6.29527 31.2714H5.24609V31.8106H6.29527V31.2714Z" fill="#FFFDF9"/>
<path d="M5.24587 31.2714H4.45898V31.8106H5.24587V31.2714Z" fill="#FFFDF9"/>
<path d="M7.86892 31.2714H7.08203V31.8106H7.86892V31.2714Z" fill="#FFFDF9"/>
<path d="M7.08181 31.2714H6.29492V31.8106H7.08181V31.2714Z" fill="#FFFDF9"/>
<path d="M4.45876 31.2714H3.67188V31.8106H4.45876V31.2714Z" fill="#FFFDF9"/>
<path d="M3.67223 31.2714H2.62305V31.8106H3.67223V31.2714Z" fill="#FFFDF9"/>
<path d="M17.8358 12.9399H16.7866V13.7487H17.8358V12.9399Z" fill="#FFFDF9"/>
<path d="M17.8358 11.8616H16.7866V12.9399H17.8358V11.8616Z" fill="#FFFDF9"/>
<path d="M19.4099 12.9399H18.623V13.7487H19.4099V12.9399Z" fill="#FFFDF9"/>
<path d="M19.4099 11.8616H18.623V12.9399H19.4099V11.8616Z" fill="#FFFDF9"/>
<path d="M18.6228 12.9399H17.8359V13.7487H18.6228V12.9399Z" fill="#FFFDF9"/>
<path d="M18.6228 11.8616H17.8359V12.9399H18.6228V11.8616Z" fill="#FFFDF9"/>
<path d="M15.2132 12.9399H14.1641V13.7487H15.2132V12.9399Z" fill="#FFFDF9"/>
<path d="M15.2132 11.8616H14.1641V12.9399H15.2132V11.8616Z" fill="#FFFDF9"/>
<path d="M14.1639 12.9399H13.1147V13.7487H14.1639V12.9399Z" fill="#FFFDF9"/>
<path d="M14.1639 11.8616H13.1147V12.9399H14.1639V11.8616Z" fill="#FFFDF9"/>
<path d="M16.7869 12.9399H16V13.7487H16.7869V12.9399Z" fill="#FFFDF9"/>
<path d="M16.7869 11.8616H16V12.9399H16.7869V11.8616Z" fill="#FFFDF9"/>
<path d="M15.9998 12.9399H15.2129V13.7487H15.9998V12.9399Z" fill="#FFFDF9"/>
<path d="M15.9998 11.8616H15.2129V12.9399H15.9998V11.8616Z" fill="#FFFDF9"/>
<path d="M12.5902 12.9399H11.541V13.7487H12.5902V12.9399Z" fill="#FFFDF9"/>
<path d="M12.5902 11.8616H11.541V12.9399H12.5902V11.8616Z" fill="#FFFDF9"/>
<path d="M11.5409 13.7487H10.4917V14.5574H11.5409V13.7487Z" fill="#FFFDF9"/>
<path d="M11.5409 12.9399H10.4917V13.7487H11.5409V12.9399Z" fill="#FFFDF9"/>
<path d="M11.5409 11.8616H10.4917V12.9399H11.5409V11.8616Z" fill="#FFFDF9"/>
<path d="M13.1149 12.9399H12.5903V13.7487H13.1149V12.9399Z" fill="#FFFDF9"/>
<path d="M13.1149 11.8616H12.5903V12.9399H13.1149V11.8616Z" fill="#FFFDF9"/>
<path d="M10.4919 13.7487H9.96729V14.5574H10.4919V13.7487Z" fill="#FFFDF9"/>
<path d="M10.4919 12.9399H9.96729V13.7487H10.4919V12.9399Z" fill="#FFFDF9"/>
<path d="M10.4919 11.8616H9.96729V12.9399H10.4919V11.8616Z" fill="#FFFDF9"/>
<path d="M21.5082 23.7231H20.459V24.8015H21.5082V23.7231Z" fill="#FFFDF9"/>
<path d="M21.5082 22.6448H20.459V23.7232H21.5082V22.6448Z" fill="#FFFDF9"/>
<path d="M21.5082 22.1057H20.459V22.6448H21.5082V22.1057Z" fill="#FFFDF9"/>
<path d="M21.5082 21.0273H20.459V22.1057H21.5082V21.0273Z" fill="#FFFDF9"/>
<path d="M21.5082 19.949H20.459V21.0274H21.5082V19.949Z" fill="#FFFDF9"/>
<path d="M21.5082 19.4099H20.459V19.949H21.5082V19.4099Z" fill="#FFFDF9"/>
<path d="M21.5082 18.3315H20.459V19.4099H21.5082V18.3315Z" fill="#FFFDF9"/>
<path d="M21.5082 17.2532H20.459V18.3316H21.5082V17.2532Z" fill="#FFFDF9"/>
<path d="M21.5082 16.4445H20.459V17.2532H21.5082V16.4445Z" fill="#FFFDF9"/>
<path d="M21.5082 15.6357H20.459V16.4445H21.5082V15.6357Z" fill="#FFFDF9"/>
<path d="M21.5082 14.5574H20.459V15.6358H21.5082V14.5574Z" fill="#FFFDF9"/>
<path d="M21.5082 13.7487H20.459V14.5574H21.5082V13.7487Z" fill="#FFFDF9"/>
<path d="M21.5082 12.9399H20.459V13.7487H21.5082V12.9399Z" fill="#FFFDF9"/>
<path d="M21.5082 11.8616H20.459V12.9399H21.5082V11.8616Z" fill="#FFFDF9"/>
<path d="M21.5082 10.7833H20.459V11.8616H21.5082V10.7833Z" fill="#FFFDF9"/>
<path d="M20.4588 23.7231H19.4097V24.8015H20.4588V23.7231Z" fill="#FFFDF9"/>
<path d="M20.4588 22.6448H19.4097V23.7232H20.4588V22.6448Z" fill="#FFFDF9"/>
<path d="M20.4588 22.1057H19.4097V22.6448H20.4588V22.1057Z" fill="#FFFDF9"/>
<path d="M20.4588 21.0273H19.4097V22.1057H20.4588V21.0273Z" fill="#FFFDF9"/>
<path d="M20.4588 19.949H19.4097V21.0274H20.4588V19.949Z" fill="#FFFDF9"/>
<path d="M20.4588 19.4099H19.4097V19.949H20.4588V19.4099Z" fill="#FFFDF9"/>
<path d="M20.4588 18.3315H19.4097V19.4099H20.4588V18.3315Z" fill="#FFFDF9"/>
<path d="M20.4588 17.2532H19.4097V18.3316H20.4588V17.2532Z" fill="#FFFDF9"/>
<path d="M20.4588 16.4445H19.4097V17.2532H20.4588V16.4445Z" fill="#FFFDF9"/>
<path d="M20.4588 15.6357H19.4097V16.4445H20.4588V15.6357Z" fill="#FFFDF9"/>
<path d="M20.4588 14.5574H19.4097V15.6358H20.4588V14.5574Z" fill="#FFFDF9"/>
<path d="M20.4588 13.7487H19.4097V14.5574H20.4588V13.7487Z" fill="#FFFDF9"/>
<path d="M20.4588 12.9399H19.4097V13.7487H20.4588V12.9399Z" fill="#FFFDF9"/>
<path d="M20.4588 11.8616H19.4097V12.9399H20.4588V11.8616Z" fill="#FFFDF9"/>
<path d="M17.8358 10.7833H16.7866V11.8616H17.8358V10.7833Z" fill="#FFFDF9"/>
<path d="M19.4099 10.7833H18.623V11.8616H19.4099V10.7833Z" fill="#FFFDF9"/>
<path d="M18.6228 10.7833H17.8359V11.8616H18.6228V10.7833Z" fill="#FFFDF9"/>
<path d="M15.2132 10.7833H14.1641V11.8616H15.2132V10.7833Z" fill="#FFFDF9"/>
<path d="M14.1639 10.7833H13.1147V11.8616H14.1639V10.7833Z" fill="#FFFDF9"/>
<path d="M16.7869 10.7833H16V11.8616H16.7869V10.7833Z" fill="#FFFDF9"/>
<path d="M15.9998 10.7833H15.2129V11.8616H15.9998V10.7833Z" fill="#FFFDF9"/>
<path d="M12.5902 10.7833H11.541V11.8616H12.5902V10.7833Z" fill="#FFFDF9"/>
<path d="M11.5409 10.7833H10.4917V11.8616H11.5409V10.7833Z" fill="#FFFDF9"/>
<path d="M13.1149 10.7833H12.5903V11.8616H13.1149V10.7833Z" fill="#FFFDF9"/>
<path d="M8.91783 10.7833H7.86865V11.8616H8.91783V10.7833Z" fill="#FFFDF9"/>
<path d="M20.4588 10.7833H19.4097V11.8616H20.4588V10.7833Z" fill="#FFFDF9"/>
<path d="M6.29527 10.7833H5.24609V11.8616H6.29527V10.7833Z" fill="#FFFDF9"/>
<path d="M5.24587 10.7833H4.45898V11.8616H5.24587V10.7833Z" fill="#FFFDF9"/>
<path d="M7.86892 10.7833H7.08203V11.8616H7.86892V10.7833Z" fill="#FFFDF9"/>
<path d="M7.08181 10.7833H6.29492V11.8616H7.08181V10.7833Z" fill="#FFFDF9"/>
<path d="M4.45876 10.7833H3.67188V11.8616H4.45876V10.7833Z" fill="#FFFDF9"/>
<path d="M3.67223 10.7833H2.62305V11.8616H3.67223V10.7833Z" fill="#FFFDF9"/>
<path d="M8.91783 14.5574H7.86865V15.6358H8.91783V14.5574Z" fill="#FFFDF9"/>
<path d="M10.4919 14.5574H9.96729V15.6358H10.4919V14.5574Z" fill="#FFFDF9"/>
<path d="M6.29527 14.5574H5.24609V15.6358H6.29527V14.5574Z" fill="#FFFDF9"/>
<path d="M5.24587 12.9399H4.45898V13.7487H5.24587V12.9399Z" fill="#FFFDF9"/>
<path d="M8.91783 15.6357H7.86865V16.4445H8.91783V15.6357Z" fill="#FFFDF9"/>
<path d="M8.91783 13.7487H7.86865V14.5574H8.91783V13.7487Z" fill="#FFFDF9"/>
<path d="M8.91783 12.9399H7.86865V13.7487H8.91783V12.9399Z" fill="#FFFDF9"/>
<path d="M8.91783 11.8616H7.86865V12.9399H8.91783V11.8616Z" fill="#FFFDF9"/>
<path d="M10.4919 10.7833H9.96729V11.8616H10.4919V10.7833Z" fill="#FFFDF9"/>
<path d="M9.96715 15.6357H8.91797V16.4445H9.96715V15.6357Z" fill="#FFFDF9"/>
<path d="M9.96715 14.5574H8.91797V15.6358H9.96715V14.5574Z" fill="#FFFDF9"/>
<path d="M9.96715 13.7487H8.91797V14.5574H9.96715V13.7487Z" fill="#FFFDF9"/>
<path d="M9.96715 12.9399H8.91797V13.7487H9.96715V12.9399Z" fill="#FFFDF9"/>
<path d="M9.96715 11.8616H8.91797V12.9399H9.96715V11.8616Z" fill="#FFFDF9"/>
<path d="M9.96715 10.7833H8.91797V11.8616H9.96715V10.7833Z" fill="#FFFDF9"/>
<path d="M6.29527 17.2532H5.24609V18.3316H6.29527V17.2532Z" fill="#FFFDF9"/>
<path d="M6.29527 15.6357H5.24609V16.4445H6.29527V15.6357Z" fill="#FFFDF9"/>
<path d="M6.29527 13.7487H5.24609V14.5574H6.29527V13.7487Z" fill="#FFFDF9"/>
<path d="M6.29527 12.9399H5.24609V13.7487H6.29527V12.9399Z" fill="#FFFDF9"/>
<path d="M6.29527 11.8616H5.24609V12.9399H6.29527V11.8616Z" fill="#FFFDF9"/>
<path d="M5.24587 17.2532H4.45898V18.3316H5.24587V17.2532Z" fill="#FFFDF9"/>
<path d="M5.24587 16.4445H4.45898V17.2532H5.24587V16.4445Z" fill="#FFFDF9"/>
<path d="M5.24587 15.6357H4.45898V16.4445H5.24587V15.6357Z" fill="#FFFDF9"/>
<path d="M5.24587 14.5574H4.45898V15.6358H5.24587V14.5574Z" fill="#FFFDF9"/>
<path d="M5.24587 13.7487H4.45898V14.5574H5.24587V13.7487Z" fill="#FFFDF9"/>
<path d="M5.24587 11.8616H4.45898V12.9399H5.24587V11.8616Z" fill="#FFFDF9"/>
<path d="M7.86892 16.4445H7.08203V17.2532H7.86892V16.4445Z" fill="#FFFDF9"/>
<path d="M7.86892 15.6357H7.08203V16.4445H7.86892V15.6357Z" fill="#FFFDF9"/>
<path d="M7.86892 14.5574H7.08203V15.6358H7.86892V14.5574Z" fill="#FFFDF9"/>
<path d="M7.86892 13.7487H7.08203V14.5574H7.86892V13.7487Z" fill="#FFFDF9"/>
<path d="M7.86892 12.9399H7.08203V13.7487H7.86892V12.9399Z" fill="#FFFDF9"/>
<path d="M7.86892 11.8616H7.08203V12.9399H7.86892V11.8616Z" fill="#FFFDF9"/>
<path d="M7.08181 17.2532H6.29492V18.3316H7.08181V17.2532Z" fill="#FFFDF9"/>
<path d="M7.08181 16.4445H6.29492V17.2532H7.08181V16.4445Z" fill="#FFFDF9"/>
<path d="M7.08181 15.6357H6.29492V16.4445H7.08181V15.6357Z" fill="#FFFDF9"/>
<path d="M7.08181 14.5574H6.29492V15.6358H7.08181V14.5574Z" fill="#FFFDF9"/>
<path d="M7.08181 13.7487H6.29492V14.5574H7.08181V13.7487Z" fill="#FFFDF9"/>
<path d="M7.08181 12.9399H6.29492V13.7487H7.08181V12.9399Z" fill="#FFFDF9"/>
<path d="M7.08181 11.8616H6.29492V12.9399H7.08181V11.8616Z" fill="#FFFDF9"/>
<path d="M4.45876 15.6357H3.67188V16.4445H4.45876V15.6357Z" fill="#FFFDF9"/>
<path d="M4.45876 14.5574H3.67188V15.6358H4.45876V14.5574Z" fill="#FFFDF9"/>
<path d="M4.45876 13.7487H3.67188V14.5574H4.45876V13.7487Z" fill="#FFFDF9"/>
<path d="M4.45876 12.9399H3.67188V13.7487H4.45876V12.9399Z" fill="#FFFDF9"/>
<path d="M4.45876 11.8616H3.67188V12.9399H4.45876V11.8616Z" fill="#FFFDF9"/>
<path d="M3.67223 19.949H2.62305V21.0274H3.67223V19.949Z" fill="#FFFDF9"/>
<path d="M3.67223 19.4099H2.62305V19.949H3.67223V19.4099Z" fill="#FFFDF9"/>
<path d="M3.67223 18.3315H2.62305V19.4099H3.67223V18.3315Z" fill="#FFFDF9"/>
<path d="M3.67223 17.2532H2.62305V18.3316H3.67223V17.2532Z" fill="#FFFDF9"/>
<path d="M3.67223 16.4445H2.62305V17.2532H3.67223V16.4445Z" fill="#FFFDF9"/>
<path d="M3.67223 15.6357H2.62305V16.4445H3.67223V15.6357Z" fill="#FFFDF9"/>
<path d="M3.67223 14.5574H2.62305V15.6358H3.67223V14.5574Z" fill="#FFFDF9"/>
<path d="M3.67223 13.7487H2.62305V14.5574H3.67223V13.7487Z" fill="#FFFDF9"/>
<path d="M3.67223 12.9399H2.62305V13.7487H3.67223V12.9399Z" fill="#FFFDF9"/>
<path d="M3.67223 11.8616H2.62305V12.9399H3.67223V11.8616Z" fill="#FFFDF9"/>
<path d="M1.57391 19.4099H1.04932V19.949H1.57391V19.4099Z" fill="#FFFDF9"/>
<path d="M1.57391 18.3315H1.04932V19.4099H1.57391V18.3315Z" fill="#FFFDF9"/>
<path d="M1.57391 17.2532H1.04932V18.3316H1.57391V17.2532Z" fill="#FFFDF9"/>
<path d="M1.57391 16.4445H1.04932V17.2532H1.57391V16.4445Z" fill="#FFFDF9"/>
<path d="M1.57391 15.6357H1.04932V16.4445H1.57391V15.6357Z" fill="#FFFDF9"/>
<path d="M1.57391 14.5574H1.04932V15.6358H1.57391V14.5574Z" fill="#FFFDF9"/>
<path d="M1.57391 13.7487H1.04932V14.5574H1.57391V13.7487Z" fill="#FFFDF9"/>
<path d="M1.57391 12.9399H1.04932V13.7487H1.57391V12.9399Z" fill="#FFFDF9"/>
<path d="M1.57391 11.8616H1.04932V12.9399H1.57391V11.8616Z" fill="#FFFDF9"/>
<path d="M2.62291 19.949H1.57373V21.0274H2.62291V19.949Z" fill="#FFFDF9"/>
<path d="M2.62291 19.4099H1.57373V19.949H2.62291V19.4099Z" fill="#FFFDF9"/>
<path d="M2.62291 14.5574H1.57373V15.6358H2.62291V14.5574Z" fill="#FFFDF9"/>
<path d="M2.62291 13.7487H1.57373V14.5574H2.62291V13.7487Z" fill="#FFFDF9"/>
<path d="M2.62291 12.9399H1.57373V13.7487H2.62291V12.9399Z" fill="#FFFDF9"/>
<path d="M2.62291 11.8616H1.57373V12.9399H2.62291V11.8616Z" fill="#FFFDF9"/>
<path d="M17.8358 9.16577H16.7866V10.2441H17.8358V9.16577Z" fill="#FFFDF9"/>
<path d="M19.4099 9.16577H18.623V10.2441H19.4099V9.16577Z" fill="#FFFDF9"/>
<path d="M18.6228 9.16577H17.8359V10.2441H18.6228V9.16577Z" fill="#FFFDF9"/>
<path d="M15.2132 9.16577H14.1641V10.2441H15.2132V9.16577Z" fill="#FFFDF9"/>
<path d="M14.1639 9.16577H13.1147V10.2441H14.1639V9.16577Z" fill="#FFFDF9"/>
<path d="M16.7869 9.16577H16V10.2441H16.7869V9.16577Z" fill="#FFFDF9"/>
<path d="M15.9998 9.16577H15.2129V10.2441H15.9998V9.16577Z" fill="#FFFDF9"/>
<path d="M12.5902 9.16577H11.541V10.2441H12.5902V9.16577Z" fill="#FFFDF9"/>
<path d="M11.5409 9.16577H10.4917V10.2441H11.5409V9.16577Z" fill="#FFFDF9"/>
<path d="M13.1149 9.16577H12.5903V10.2441H13.1149V9.16577Z" fill="#FFFDF9"/>
<path d="M10.4919 9.16577H9.96729V10.2441H10.4919V9.16577Z" fill="#FFFDF9"/>
<path d="M20.4588 9.16577H19.4097V10.2441H20.4588V9.16577Z" fill="#FFFDF9"/>
<path d="M22.0329 10.2441H21.5083V10.7833H22.0329V10.2441Z" fill="#FFFDF9"/>
<path d="M21.5082 9.16577H20.459V10.2441H21.5082V9.16577Z" fill="#FFFDF9"/>
<path d="M14.1639 10.2441H13.1147V10.7833H14.1639V10.2441Z" fill="#FFFDF9"/>
<path d="M12.5902 10.2441H11.541V10.7833H12.5902V10.2441Z" fill="#FFFDF9"/>
<path d="M11.5409 10.2441H10.4917V10.7833H11.5409V10.2441Z" fill="#FFFDF9"/>
<path d="M13.1149 10.2441H12.5903V10.7833H13.1149V10.2441Z" fill="#FFFDF9"/>
<path d="M8.91783 9.16577H7.86865V10.2441H8.91783V9.16577Z" fill="#FFFDF9"/>
<path d="M10.4919 10.2441H9.96729V10.7833H10.4919V10.2441Z" fill="#FFFDF9"/>
<path d="M9.96715 10.2441H8.91797V10.7833H9.96715V10.2441Z" fill="#FFFDF9"/>
<path d="M9.96715 9.16577H8.91797V10.2441H9.96715V9.16577Z" fill="#FFFDF9"/>
<path d="M6.29527 9.16577H5.24609V10.2441H6.29527V9.16577Z" fill="#FFFDF9"/>
<path d="M5.24587 9.16577H4.45898V10.2441H5.24587V9.16577Z" fill="#FFFDF9"/>
<path d="M7.86892 9.16577H7.08203V10.2441H7.86892V9.16577Z" fill="#FFFDF9"/>
<path d="M7.08181 9.16577H6.29492V10.2441H7.08181V9.16577Z" fill="#FFFDF9"/>
<path d="M4.45876 9.16577H3.67188V10.2441H4.45876V9.16577Z" fill="#FFFDF9"/>
<path d="M3.67223 9.16577H2.62305V10.2441H3.67223V9.16577Z" fill="#FFFDF9"/>
<path d="M6.29527 10.2441H5.24609V10.7833H6.29527V10.2441Z" fill="#FFFDF9"/>
<path d="M5.24587 10.2441H4.45898V10.7833H5.24587V10.2441Z" fill="#FFFDF9"/>
<path d="M7.08181 10.2441H6.29492V10.7833H7.08181V10.2441Z" fill="#FFFDF9"/>
<path d="M4.45876 10.2441H3.67188V10.7833H4.45876V10.2441Z" fill="#FFFDF9"/>
<path d="M3.67223 10.2441H2.62305V10.7833H3.67223V10.2441Z" fill="#FFFDF9"/>
<path d="M2.62291 10.2441H1.57373V10.7833H2.62291V10.2441Z" fill="#FFFDF9"/>
<path d="M23.0819 30.1931H22.0327V31.2714H23.0819V30.1931Z" fill="#FFFDF9"/>
<path d="M23.0819 29.1148H22.0327V30.1931H23.0819V29.1148Z" fill="#FFFDF9"/>
<path d="M23.0819 28.306H22.0327V29.1148H23.0819V28.306Z" fill="#FFFDF9"/>
<path d="M23.0819 27.4973H22.0327V28.3061H23.0819V27.4973Z" fill="#FFFDF9"/>
<path d="M23.0819 26.4189H22.0327V27.4973H23.0819V26.4189Z" fill="#FFFDF9"/>
<path d="M23.0819 25.6102H22.0327V26.419H23.0819V25.6102Z" fill="#FFFDF9"/>
<path d="M23.0819 24.8015H22.0327V25.6103H23.0819V24.8015Z" fill="#FFFDF9"/>
<path d="M23.0819 23.7231H22.0327V24.8015H23.0819V23.7231Z" fill="#FFFDF9"/>
<path d="M23.0819 22.6448H22.0327V23.7232H23.0819V22.6448Z" fill="#FFFDF9"/>
<path d="M23.0819 22.1057H22.0327V22.6448H23.0819V22.1057Z" fill="#FFFDF9"/>
<path d="M23.0819 21.0273H22.0327V22.1057H23.0819V21.0273Z" fill="#FFFDF9"/>
<path d="M23.0819 19.949H22.0327V21.0274H23.0819V19.949Z" fill="#FFFDF9"/>
<path d="M23.0819 19.4099H22.0327V19.949H23.0819V19.4099Z" fill="#FFFDF9"/>
<path d="M23.0819 18.3315H22.0327V19.4099H23.0819V18.3315Z" fill="#FFFDF9"/>
<path d="M23.0819 17.2532H22.0327V18.3316H23.0819V17.2532Z" fill="#FFFDF9"/>
<path d="M23.0819 16.4445H22.0327V17.2532H23.0819V16.4445Z" fill="#FFFDF9"/>
<path d="M23.0819 15.6357H22.0327V16.4445H23.0819V15.6357Z" fill="#FFFDF9"/>
<path d="M23.0819 14.5574H22.0327V15.6358H23.0819V14.5574Z" fill="#FFFDF9"/>
<path d="M23.0819 13.7487H22.0327V14.5574H23.0819V13.7487Z" fill="#FFFDF9"/>
<path d="M23.0819 12.9399H22.0327V13.7487H23.0819V12.9399Z" fill="#FFFDF9"/>
<path d="M23.0819 11.8616H22.0327V12.9399H23.0819V11.8616Z" fill="#FFFDF9"/>
<path d="M23.0819 10.7833H22.0327V11.8616H23.0819V10.7833Z" fill="#FFFDF9"/>
<path d="M22.0329 31.2714H21.5083V31.8106H22.0329V31.2714Z" fill="#FFFDF9"/>
<path d="M22.0329 30.1931H21.5083V31.2714H22.0329V30.1931Z" fill="#FFFDF9"/>
<path d="M22.0329 24.8015H21.5083V25.6103H22.0329V24.8015Z" fill="#FFFDF9"/>
<path d="M21.5082 31.8106H20.459V32.8889H21.5082V31.8106Z" fill="#FFFDF9"/>
<path d="M21.5082 31.2714H20.459V31.8106H21.5082V31.2714Z" fill="#FFFDF9"/>
<path d="M21.5082 30.1931H20.459V31.2714H21.5082V30.1931Z" fill="#FFFDF9"/>
<path d="M21.5082 24.8015H20.459V25.6103H21.5082V24.8015Z" fill="#FFFDF9"/>
<path d="M20.4588 31.8106H19.4097V32.8889H20.4588V31.8106Z" fill="#FFFDF9"/>
<path d="M20.4588 24.8015H19.4097V25.6103H20.4588V24.8015Z" fill="#FFFDF9"/>
<path d="M19.4099 31.8106H18.623V32.8889H19.4099V31.8106Z" fill="#FFFDF9"/>
<path d="M19.4099 24.8015H18.623V25.6103H19.4099V24.8015Z" fill="#FFFDF9"/>
<path d="M19.4099 23.7231H18.623V24.8015H19.4099V23.7231Z" fill="#FFFDF9"/>
<path d="M19.4099 22.6448H18.623V23.7232H19.4099V22.6448Z" fill="#FFFDF9"/>
<path d="M19.4099 22.1057H18.623V22.6448H19.4099V22.1057Z" fill="#FFFDF9"/>
<path d="M19.4099 21.0273H18.623V22.1057H19.4099V21.0273Z" fill="#FFFDF9"/>
<path d="M19.4099 19.949H18.623V21.0274H19.4099V19.949Z" fill="#FFFDF9"/>
<path d="M19.4099 19.4099H18.623V19.949H19.4099V19.4099Z" fill="#FFFDF9"/>
<path d="M19.4099 18.3315H18.623V19.4099H19.4099V18.3315Z" fill="#FFFDF9"/>
<path d="M19.4099 17.2532H18.623V18.3316H19.4099V17.2532Z" fill="#FFFDF9"/>
<path d="M19.4099 16.4445H18.623V17.2532H19.4099V16.4445Z" fill="#FFFDF9"/>
<path d="M19.4099 15.6357H18.623V16.4445H19.4099V15.6357Z" fill="#FFFDF9"/>
<path d="M19.4099 14.5574H18.623V15.6358H19.4099V14.5574Z" fill="#FFFDF9"/>
<path d="M19.4099 13.7487H18.623V14.5574H19.4099V13.7487Z" fill="#FFFDF9"/>
<path d="M18.6228 31.8106H17.8359V32.8889H18.6228V31.8106Z" fill="#FFFDF9"/>
<path d="M18.6228 24.8015H17.8359V25.6103H18.6228V24.8015Z" fill="#FFFDF9"/>
<path d="M18.6228 23.7231H17.8359V24.8015H18.6228V23.7231Z" fill="#FFFDF9"/>
<path d="M18.6228 22.6448H17.8359V23.7232H18.6228V22.6448Z" fill="#FFFDF9"/>
<path d="M18.6228 22.1057H17.8359V22.6448H18.6228V22.1057Z" fill="#FFFDF9"/>
<path d="M18.6228 21.0273H17.8359V22.1057H18.6228V21.0273Z" fill="#FFFDF9"/>
<path d="M18.6228 19.949H17.8359V21.0274H18.6228V19.949Z" fill="#FFFDF9"/>
<path d="M18.6228 19.4099H17.8359V19.949H18.6228V19.4099Z" fill="#FFFDF9"/>
<path d="M18.6228 18.3315H17.8359V19.4099H18.6228V18.3315Z" fill="#FFFDF9"/>
<path d="M18.6228 17.2532H17.8359V18.3316H18.6228V17.2532Z" fill="#FFFDF9"/>
<path d="M18.6228 16.4445H17.8359V17.2532H18.6228V16.4445Z" fill="#FFFDF9"/>
<path d="M18.6228 15.6357H17.8359V16.4445H18.6228V15.6357Z" fill="#FFFDF9"/>
<path d="M18.6228 14.5574H17.8359V15.6358H18.6228V14.5574Z" fill="#FFFDF9"/>
<path d="M18.6228 13.7487H17.8359V14.5574H18.6228V13.7487Z" fill="#FFFDF9"/>
<path d="M17.8358 31.8106H16.7866V32.8889H17.8358V31.8106Z" fill="#FFFDF9"/>
<path d="M17.8358 24.8015H16.7866V25.6103H17.8358V24.8015Z" fill="#FFFDF9"/>
<path d="M17.8358 23.7231H16.7866V24.8015H17.8358V23.7231Z" fill="#FFFDF9"/>
<path d="M17.8358 22.6448H16.7866V23.7232H17.8358V22.6448Z" fill="#FFFDF9"/>
<path d="M17.8358 22.1057H16.7866V22.6448H17.8358V22.1057Z" fill="#FFFDF9"/>
<path d="M17.8358 21.0273H16.7866V22.1057H17.8358V21.0273Z" fill="#FFFDF9"/>
<path d="M17.8358 19.949H16.7866V21.0274H17.8358V19.949Z" fill="#FFFDF9"/>
<path d="M17.8358 19.4099H16.7866V19.949H17.8358V19.4099Z" fill="#FFFDF9"/>
<path d="M17.8358 18.3315H16.7866V19.4099H17.8358V18.3315Z" fill="#FFFDF9"/>
<path d="M17.8358 17.2532H16.7866V18.3316H17.8358V17.2532Z" fill="#FFFDF9"/>
<path d="M17.8358 16.4445H16.7866V17.2532H17.8358V16.4445Z" fill="#FFFDF9"/>
<path d="M17.8358 15.6357H16.7866V16.4445H17.8358V15.6357Z" fill="#FFFDF9"/>
<path d="M17.8358 14.5574H16.7866V15.6358H17.8358V14.5574Z" fill="#FFFDF9"/>
<path d="M17.8358 13.7487H16.7866V14.5574H17.8358V13.7487Z" fill="#FFFDF9"/>
<path d="M16.7869 31.8106H16V32.8889H16.7869V31.8106Z" fill="#FFFDF9"/>
<path d="M16.7869 24.8015H16V25.6103H16.7869V24.8015Z" fill="#FFFDF9"/>
<path d="M16.7869 23.7231H16V24.8015H16.7869V23.7231Z" fill="#FFFDF9"/>
<path d="M16.7869 22.6448H16V23.7232H16.7869V22.6448Z" fill="#FFFDF9"/>
<path d="M16.7869 22.1057H16V22.6448H16.7869V22.1057Z" fill="#FFFDF9"/>
<path d="M16.7869 21.0273H16V22.1057H16.7869V21.0273Z" fill="#FFFDF9"/>
<path d="M16.7869 19.949H16V21.0274H16.7869V19.949Z" fill="#FFFDF9"/>
<path d="M16.7869 19.4099H16V19.949H16.7869V19.4099Z" fill="#FFFDF9"/>
<path d="M16.7869 18.3315H16V19.4099H16.7869V18.3315Z" fill="#FFFDF9"/>
<path d="M16.7869 17.2532H16V18.3316H16.7869V17.2532Z" fill="#FFFDF9"/>
<path d="M16.7869 16.4445H16V17.2532H16.7869V16.4445Z" fill="#FFFDF9"/>
<path d="M16.7869 15.6357H16V16.4445H16.7869V15.6357Z" fill="#FFFDF9"/>
<path d="M16.7869 14.5574H16V15.6358H16.7869V14.5574Z" fill="#FFFDF9"/>
<path d="M16.7869 13.7487H16V14.5574H16.7869V13.7487Z" fill="#FFFDF9"/>
<path d="M15.9998 31.8106H15.2129V32.8889H15.9998V31.8106Z" fill="#FFFDF9"/>
<path d="M15.9998 24.8015H15.2129V25.6103H15.9998V24.8015Z" fill="#FFFDF9"/>
<path d="M15.9998 23.7231H15.2129V24.8015H15.9998V23.7231Z" fill="#FFFDF9"/>
<path d="M15.9998 19.949H15.2129V21.0274H15.9998V19.949Z" fill="#FFFDF9"/>
<path d="M15.9998 19.4099H15.2129V19.949H15.9998V19.4099Z" fill="#FFFDF9"/>
<path d="M15.9998 18.3315H15.2129V19.4099H15.9998V18.3315Z" fill="#FFFDF9"/>
<path d="M15.9998 17.2532H15.2129V18.3316H15.9998V17.2532Z" fill="#FFFDF9"/>
<path d="M15.9998 13.7487H15.2129V14.5574H15.9998V13.7487Z" fill="#FFFDF9"/>
<path d="M15.2132 31.8106H14.1641V32.8889H15.2132V31.8106Z" fill="#FFFDF9"/>
<path d="M15.2132 24.8015H14.1641V25.6103H15.2132V24.8015Z" fill="#FFFDF9"/>
<path d="M15.2132 23.7231H14.1641V24.8015H15.2132V23.7231Z" fill="#FFFDF9"/>
<path d="M15.2132 19.949H14.1641V21.0274H15.2132V19.949Z" fill="#FFFDF9"/>
<path d="M15.2132 19.4099H14.1641V19.949H15.2132V19.4099Z" fill="#FFFDF9"/>
<path d="M15.2132 18.3315H14.1641V19.4099H15.2132V18.3315Z" fill="#FFFDF9"/>
<path d="M15.2132 17.2532H14.1641V18.3316H15.2132V17.2532Z" fill="#FFFDF9"/>
<path d="M15.2132 13.7487H14.1641V14.5574H15.2132V13.7487Z" fill="#FFFDF9"/>
<path d="M14.1639 31.8106H13.1147V32.8889H14.1639V31.8106Z" fill="#FFFDF9"/>
<path d="M14.1639 24.8015H13.1147V25.6103H14.1639V24.8015Z" fill="#FFFDF9"/>
<path d="M14.1639 23.7231H13.1147V24.8015H14.1639V23.7231Z" fill="#FFFDF9"/>
<path d="M14.1639 19.949H13.1147V21.0274H14.1639V19.949Z" fill="#FFFDF9"/>
<path d="M14.1639 19.4099H13.1147V19.949H14.1639V19.4099Z" fill="#FFFDF9"/>
<path d="M14.1639 18.3315H13.1147V19.4099H14.1639V18.3315Z" fill="#FFFDF9"/>
<path d="M14.1639 17.2532H13.1147V18.3316H14.1639V17.2532Z" fill="#FFFDF9"/>
<path d="M14.1639 13.7487H13.1147V14.5574H14.1639V13.7487Z" fill="#FFFDF9"/>
<path d="M13.1149 31.8106H12.5903V32.8889H13.1149V31.8106Z" fill="#FFFDF9"/>
<path d="M13.1149 30.1931H12.5903V31.2714H13.1149V30.1931Z" fill="#FFFDF9"/>
<path d="M13.1149 13.7487H12.5903V14.5574H13.1149V13.7487Z" fill="#FFFDF9"/>
<path d="M12.5902 31.8106H11.541V32.8889H12.5902V31.8106Z" fill="#FFFDF9"/>
<path d="M12.5902 30.1931H11.541V31.2714H12.5902V30.1931Z" fill="#FFFDF9"/>
<path d="M12.5902 13.7487H11.541V14.5574H12.5902V13.7487Z" fill="#FFFDF9"/>
<path d="M11.5409 31.8106H10.4917V32.8889H11.5409V31.8106Z" fill="#FFFDF9"/>
<path d="M11.5409 30.1931H10.4917V31.2714H11.5409V30.1931Z" fill="#FFFDF9"/>
<path d="M11.5409 14.5574H10.4917V15.6358H11.5409V14.5574Z" fill="#FFFDF9"/>
<path d="M10.4919 31.8106H9.96729V32.8889H10.4919V31.8106Z" fill="#FFFDF9"/>
<path d="M10.4919 30.1931H9.96729V31.2714H10.4919V30.1931Z" fill="#FFFDF9"/>
<path d="M10.4919 29.1148H9.96729V30.1931H10.4919V29.1148Z" fill="#FFFDF9"/>
<path d="M10.4919 28.306H9.96729V29.1148H10.4919V28.306Z" fill="#FFFDF9"/>
<path d="M10.4919 27.4973H9.96729V28.3061H10.4919V27.4973Z" fill="#FFFDF9"/>
<path d="M10.4919 26.4189H9.96729V27.4973H10.4919V26.4189Z" fill="#FFFDF9"/>
<path d="M10.4919 25.6102H9.96729V26.419H10.4919V25.6102Z" fill="#FFFDF9"/>
<path d="M10.4919 24.8015H9.96729V25.6103H10.4919V24.8015Z" fill="#FFFDF9"/>
<path d="M10.4919 23.7231H9.96729V24.8015H10.4919V23.7231Z" fill="#FFFDF9"/>
<path d="M10.4919 19.949H9.96729V21.0274H10.4919V19.949Z" fill="#FFFDF9"/>
<path d="M10.4919 19.4099H9.96729V19.949H10.4919V19.4099Z" fill="#FFFDF9"/>
<path d="M10.4919 18.3315H9.96729V19.4099H10.4919V18.3315Z" fill="#FFFDF9"/>
<path d="M10.4919 17.2532H9.96729V18.3316H10.4919V17.2532Z" fill="#FFFDF9"/>
<path d="M10.4919 16.4445H9.96729V17.2532H10.4919V16.4445Z" fill="#FFFDF9"/>
<path d="M10.4919 15.6357H9.96729V16.4445H10.4919V15.6357Z" fill="#FFFDF9"/>
<path d="M9.96715 31.8106H8.91797V32.8889H9.96715V31.8106Z" fill="#FFFDF9"/>
<path d="M9.96715 23.7231H8.91797V24.8015H9.96715V23.7231Z" fill="#FFFDF9"/>
<path d="M8.91783 31.8106H7.86865V32.8889H8.91783V31.8106Z" fill="#FFFDF9"/>
<path d="M8.91783 23.7231H7.86865V24.8015H8.91783V23.7231Z" fill="#FFFDF9"/>
<path d="M7.86892 31.8106H7.08203V32.8889H7.86892V31.8106Z" fill="#FFFDF9"/>
<path d="M7.86892 23.7231H7.08203V24.8015H7.86892V23.7231Z" fill="#FFFDF9"/>
<path d="M7.86892 21.0273H7.08203V22.1057H7.86892V21.0273Z" fill="#FFFDF9"/>
<path d="M7.86892 22.1057H7.08203V23.184H7.86892V22.1057Z" fill="#FFFDF9"/>
<path d="M7.86892 21.5665H7.08203V22.6449H7.86892V21.5665Z" fill="#FFFDF9"/>
<path d="M7.86892 22.9144H7.08203V23.9928H7.86892V22.9144Z" fill="#FFFDF9"/>
<path d="M7.08181 31.8106H6.29492V32.8889H7.08181V31.8106Z" fill="#FFFDF9"/>
<path d="M7.08181 23.7231H6.29492V24.8015H7.08181V23.7231Z" fill="#FFFDF9"/>
<path d="M7.08181 22.6448H6.29492V23.7232H7.08181V22.6448Z" fill="#FFFDF9"/>
<path d="M7.08181 22.1057H6.29492V22.6448H7.08181V22.1057Z" fill="#FFFDF9"/>
<path d="M7.08181 21.0273H6.29492V22.1057H7.08181V21.0273Z" fill="#FFFDF9"/>
<path d="M6.29527 31.8106H5.24609V32.8889H6.29527V31.8106Z" fill="#FFFDF9"/>
<path d="M5.24587 31.8106H4.45898V32.8889H5.24587V31.8106Z" fill="#FFFDF9"/>
<path d="M4.45876 31.8106H3.67188V32.8889H4.45876V31.8106Z" fill="#FFFDF9"/>
<path d="M3.67223 31.8106H2.62305V32.8889H3.67223V31.8106Z" fill="#FFFDF9"/>
<path d="M2.62291 31.8106H1.57373V32.8889H2.62291V31.8106Z" fill="#FFFDF9"/>
<path d="M2.62291 31.2714H1.57373V31.8106H2.62291V31.2714Z" fill="#FFFDF9"/>
<path d="M2.62291 10.7833H1.57373V11.8616H2.62291V10.7833Z" fill="#FFFDF9"/>
<path d="M2.62291 9.16577H1.57373V10.2441H2.62291V9.16577Z" fill="#FFFDF9"/>
<path d="M1.57391 31.2714H1.04932V31.8106H1.57391V31.2714Z" fill="#FFFDF9"/>
<path d="M1.57391 30.1931H1.04932V31.2714H1.57391V30.1931Z" fill="#FFFDF9"/>
<path d="M1.57391 10.7833H1.04932V11.8616H1.57391V10.7833Z" fill="#FFFDF9"/>
<path d="M1.57391 10.2441H1.04932V10.7833H1.57391V10.2441Z" fill="#FFFDF9"/>
<path d="M1.04918 30.1931H0V31.2714H1.04918V30.1931Z" fill="#FFFDF9"/>
<path d="M1.04918 29.1148H0V30.1931H1.04918V29.1148Z" fill="#FFFDF9"/>
<path d="M1.04918 28.306H0V29.1148H1.04918V28.306Z" fill="#FFFDF9"/>
<path d="M1.04918 27.4973H0V28.3061H1.04918V27.4973Z" fill="#FFFDF9"/>
<path d="M1.04918 26.4189H0V27.4973H1.04918V26.4189Z" fill="#FFFDF9"/>
<path d="M1.04918 25.6102H0V26.419H1.04918V25.6102Z" fill="#FFFDF9"/>
<path d="M1.04918 24.8015H0V25.6103H1.04918V24.8015Z" fill="#FFFDF9"/>
<path d="M1.04918 23.7231H0V24.8015H1.04918V23.7231Z" fill="#FFFDF9"/>
<path d="M1.04918 22.6448H0V23.7232H1.04918V22.6448Z" fill="#FFFDF9"/>
<path d="M1.04918 22.1057H0V22.6448H1.04918V22.1057Z" fill="#FFFDF9"/>
<path d="M1.04918 21.0273H0V22.1057H1.04918V21.0273Z" fill="#FFFDF9"/>
<path d="M1.04918 19.949H0V21.0274H1.04918V19.949Z" fill="#FFFDF9"/>
<path d="M1.04918 19.4099H0V19.949H1.04918V19.4099Z" fill="#FFFDF9"/>
<path d="M1.04918 18.3315H0V19.4099H1.04918V18.3315Z" fill="#FFFDF9"/>
<path d="M1.04918 17.2532H0V18.3316H1.04918V17.2532Z" fill="#FFFDF9"/>
<path d="M1.04918 16.4445H0V17.2532H1.04918V16.4445Z" fill="#FFFDF9"/>
<path d="M1.04918 15.6357H0V16.4445H1.04918V15.6357Z" fill="#FFFDF9"/>
<path d="M1.04918 14.5574H0V15.6358H1.04918V14.5574Z" fill="#FFFDF9"/>
<path d="M1.04918 13.7487H0V14.5574H1.04918V13.7487Z" fill="#FFFDF9"/>
<path d="M1.04918 12.9399H0V13.7487H1.04918V12.9399Z" fill="#FFFDF9"/>
<path d="M1.04918 11.8616H0V12.9399H1.04918V11.8616Z" fill="#FFFDF9"/>
<path d="M1.04918 10.7833H0V11.8616H1.04918V10.7833Z" fill="#FFFDF9"/>
</g>
<defs>
<clipPath id="clip0_751_5383">
<rect width="32" height="32.8889" fill="white"/>
</clipPath>
</defs>
</svg>
