<svg width="116" height="95" viewBox="0 0 116 95" fill="none" xmlns="http://www.w3.org/2000/svg">
<g clip-path="url(#clip0_717_6967)">
<path d="M48.759 85.744C48.5662 85.1998 48.3436 84.6645 48.0436 84.1624C47.2914 84.273 46.6482 84.6493 45.9541 84.9043C44.9938 85.258 44.0407 85.6347 43.0941 86.0262C42.7418 86.1731 42.5696 86.1311 42.3983 85.7803C41.7157 84.3761 41.7037 84.3837 43.1381 83.6048C43.4647 83.4277 43.808 83.2815 44.1542 83.1486C44.7064 82.9406 44.8147 82.6041 44.603 82.0933C44.4225 81.6597 44.0703 81.2472 44.2682 80.7257C44.5696 80.7199 44.697 81.0273 44.9762 81.0129C45.3135 80.9844 45.6111 80.8388 45.9143 80.7199C61.1606 74.7389 76.4069 68.758 91.6532 62.777C91.8492 62.7001 92.042 62.6158 92.2392 62.5414C92.6481 62.3838 92.756 62.1224 92.5827 61.7465C92.538 61.6459 92.4974 61.5407 92.4594 61.4345C92.2163 60.7429 92.292 60.5403 93.0111 60.238C94.2174 59.7331 95.4454 59.2773 96.6615 58.7945C97.3188 58.5327 97.5231 58.0807 97.2744 57.4384C96.9847 56.6902 97.0648 56.4973 97.8776 56.1641C99.1744 55.6351 100.487 55.1406 101.79 54.6204C102.559 54.313 102.568 54.2837 102.287 53.5348C101.975 52.6945 102.048 52.5275 102.93 52.164C103.6 51.8896 104.276 51.6275 104.955 51.3727C105.439 51.1914 105.813 51.1974 105.977 51.779C106.076 52.1407 106.298 52.4661 106.413 52.83C106.21 53.319 105.667 53.2927 105.269 53.4546C104.832 53.6317 104.685 53.7905 104.915 54.2249C105.134 54.6348 105.477 55.1372 105.374 55.5063C105.264 55.9011 104.567 55.9412 104.123 56.124C103.819 56.2489 103.706 56.3883 103.879 56.6724C103.887 56.692 103.897 56.7141 103.906 56.7338C104.245 57.5981 103.963 58.2073 103.061 58.5615C102.41 58.8168 101.762 59.0855 101.103 59.3237C100.781 59.4414 100.661 59.5721 100.809 59.9118C100.995 60.3316 101.454 60.8032 101.252 61.1791C101.04 61.571 100.369 61.6092 99.9014 61.8071C99.3433 62.0434 98.7781 62.2708 98.2036 62.4702C97.8557 62.5923 97.8014 62.7462 97.9343 63.066C98.112 63.4863 98.5915 63.9641 98.3557 64.3247C98.1442 64.6498 97.5149 64.7468 97.0637 64.9266C95.6762 65.4796 94.2854 66.0252 92.8942 66.5767C92.5958 66.9965 92.094 67.1039 91.6417 67.2814C77.905 72.673 64.1671 78.0622 50.4292 83.4514C50.2332 83.5283 50.0349 83.6003 49.8436 83.6811C49.4633 83.8476 48.9832 83.9005 48.7355 84.234C48.4708 84.5916 48.8709 84.9391 48.9145 85.2996C48.9314 85.4342 48.9308 85.5642 48.8834 85.6923L48.7527 85.7436L48.759 85.744Z" fill="#5F1F2F"/>
<path d="M48.8896 85.6926C48.4314 84.6251 48.76 83.8726 49.8754 83.4351C63.9087 77.93 77.9446 72.4239 91.9779 66.9188C92.2811 66.7998 92.5913 66.6896 92.8968 66.5756C93.1146 67.107 93.3336 67.6409 93.5488 68.1733L48.8896 85.6926Z" fill="#272421"/>
<path d="M106.414 52.8321C106.386 52.7969 106.353 52.7638 106.333 52.7256C106.091 52.2987 106.078 51.6265 105.65 51.4657C105.148 51.2762 104.618 51.767 104.092 51.9445C103.602 52.1076 103.139 52.3356 102.652 52.4977C102.232 52.6366 102.203 52.8351 102.356 53.199C102.872 54.4292 102.859 54.4343 101.541 54.9512C100.279 55.4466 99.0227 55.9566 97.7528 56.4288C97.326 56.5876 97.2372 56.7608 97.4131 57.1703C97.9951 58.5275 97.9768 58.5347 96.5285 59.1028C95.3521 59.5643 94.1848 60.0395 92.9986 60.4789C92.5692 60.6387 92.4155 60.797 92.621 61.2526C93.1556 62.441 93.132 62.4502 91.8929 62.9363C76.529 68.9634 61.165 74.9905 45.8011 81.0176C45.4743 81.1458 45.1454 81.269 44.8175 81.3948C44.5736 81.0811 44.4087 80.7307 44.0984 80.4402C43.7571 80.1215 43.4814 80.123 43.0998 80.2727C41.8173 80.7787 40.5369 81.2896 39.249 81.7833C38.349 82.1277 38.179 82.0561 37.7799 81.2412C37.4967 80.6643 37.0442 80.4959 36.4223 80.736C35.2684 81.1858 34.1198 81.6479 32.9615 82.0879C32.0563 82.4343 31.8985 82.3694 31.4789 81.5568C31.1129 80.8442 31.0748 80.8274 30.3044 81.1181C29.6267 81.3753 28.9599 81.6571 28.2777 81.9045C27.5318 82.1741 27.3343 82.0959 26.9867 81.4453C26.6932 80.8955 26.2355 80.7224 25.6137 80.9259C25.3553 81.0215 25.102 81.1353 24.8156 81.0228C24.5476 80.8483 24.4406 80.5732 24.3213 80.3116C24.0864 79.8041 23.8621 79.2926 23.6403 78.78C23.1835 77.7456 23.1338 77.765 22.1665 78.1099C21.5277 78.3374 21.3065 78.2196 20.9903 77.6258C20.8753 77.4086 20.7828 77.1797 20.6824 76.9539C16.1578 66.7773 11.6333 56.6007 7.10881 46.4241C7.03569 46.2596 6.96367 46.0976 6.89316 45.9322C6.54783 45.0933 6.61441 44.9461 7.50323 44.5628C7.73785 44.4622 7.99669 44.3952 8.09456 44.132C8.16534 43.7525 7.92542 43.4546 7.80185 43.1283C7.53223 42.4183 7.5964 42.2519 8.29785 41.9306C8.88284 41.6627 9.07046 41.2422 8.86071 40.6691C8.60396 39.9742 8.67617 39.7845 9.40009 39.4861C10.6671 38.966 11.9542 38.4841 13.2293 37.9753C14.0428 37.6504 14.0558 37.6107 13.7565 36.8547C13.6502 36.5879 13.5119 36.3251 13.587 36.0246C13.7564 35.7218 14.0843 35.6307 14.3838 35.5103C15.5988 35.025 16.8203 34.5545 18.0363 34.0717C18.8969 33.7283 18.8977 33.7165 18.5938 32.9017C18.5163 32.6928 18.4246 32.4867 18.4552 32.2585C18.5493 31.8901 18.8685 31.7447 19.1946 31.6081C19.8385 31.3439 20.4939 31.0984 21.14 30.8392C21.3753 30.7469 21.6298 30.6701 21.7671 30.4404C21.9189 30.0291 21.6219 29.7133 21.4918 29.3723C21.3182 28.9128 21.4248 28.6001 21.9099 28.4068C22.1504 28.3125 22.3861 28.2143 22.6267 28.1199C37.8965 22.1297 53.1689 16.1385 68.4387 10.1484C68.5041 10.1227 68.5694 10.0971 68.6348 10.0715C69.8003 9.62001 69.8511 9.63756 70.4014 10.6958C70.7189 11.3063 70.7902 11.3216 71.4971 11.0818C72.4908 10.741 73.4063 10.2175 74.453 10.0029C74.712 10.178 74.858 10.4235 74.9885 10.6894C75.3905 11.5175 75.4609 11.5447 76.3754 11.1917C77.5316 10.7468 78.6812 10.2872 79.8352 9.83736C80.8726 9.43615 80.979 9.47514 81.4569 10.4119C81.7739 11.0284 81.8354 11.0561 82.5419 10.7876C83.7436 10.3278 84.9333 9.84088 86.1345 9.38694C87.0277 9.04807 87.2586 9.13913 87.6893 9.95602C88.0365 10.6126 88.074 10.6209 88.8282 10.3423C89.1765 10.2143 89.5033 10.017 89.8961 10.0099C89.9406 10.027 89.9753 10.0567 89.9938 10.0984C90.2551 10.4168 90.3602 10.805 90.5154 11.1679C90.6902 11.575 90.9431 11.6949 91.3853 11.5156C91.7413 11.3702 92.0964 11.1675 92.5188 11.2612L92.505 11.258C92.8331 11.4435 92.9549 11.7589 93.0913 12.0657C97.761 22.5688 102.432 33.0743 107.101 43.5773C107.238 43.8841 107.392 44.1897 107.295 44.5365L107.302 44.5191C107.094 44.8516 106.723 44.9626 106.374 45.0822C105.895 45.2496 105.78 45.5082 105.989 45.9508C106.321 46.6565 106.641 47.3697 106.937 48.0898C107.203 48.7435 107.115 48.9251 106.439 49.2337C106.29 49.3005 106.142 49.3674 105.987 49.4195C105.496 49.5861 105.421 49.8806 105.628 50.304C105.774 50.6043 105.939 50.8998 105.966 51.2378C105.823 51.8476 106.368 52.2854 106.426 52.8448L106.414 52.8321Z" fill="#D64524"/>
<path d="M21.1391 28.7384C21.2231 28.4575 21.0699 28.2236 20.9645 27.9796C20.5262 26.9523 20.4331 27.1503 21.5518 26.697C21.6825 26.6457 21.8132 26.5945 21.9439 26.5432C37.2085 20.5551 52.4704 14.568 67.735 8.57985C68.6099 8.23664 69.211 8.48607 69.5384 9.32817C69.4565 9.73791 69.171 9.97964 68.7788 10.1335C68.6037 10.2022 68.4311 10.2699 68.256 10.3386C52.7274 16.4303 37.1987 22.522 21.6701 28.6137C21.5028 28.6793 21.3482 28.8149 21.1402 28.7408L21.1391 28.7384Z" fill="#FEB553"/>
<path d="M8.50306 44.2084C8.20526 44.6365 7.66789 44.6571 7.23634 44.8465C6.88364 44.9993 6.75955 45.1691 6.94589 45.5053C7.01243 45.6204 7.05502 45.7507 7.10958 45.8735C11.7825 56.3839 16.4607 66.8922 21.1116 77.4084C21.391 78.0368 21.6709 78.2037 22.2823 77.8457C22.4215 77.7651 22.5926 77.7355 22.735 77.6623C23.1352 77.4506 23.3593 77.5471 23.5289 77.9562C23.9582 78.9841 24.4305 79.998 24.8845 81.0191C24.9872 81.0567 24.9924 81.1238 24.9459 81.2055C24.4114 81.0462 23.9935 81.3629 23.5517 81.5362C23.1883 81.6788 23.0087 81.6339 22.862 81.2763C22.5221 80.4498 22.1247 79.6457 21.7859 78.8216C21.5834 78.3245 21.3061 78.1911 20.7586 78.403C19.4661 78.9072 19.4574 78.8875 18.9303 77.702C14.2999 67.2873 9.67585 56.873 5.02456 46.4666C4.75938 45.8701 4.83525 45.6126 5.49038 45.4219C5.8978 45.3024 6.37694 45.2269 6.5989 44.7939C7.20539 44.5214 7.78042 44.1575 8.50001 44.2153L8.50306 44.2084Z" fill="#EC773A"/>
<path d="M107.284 44.5265C107.194 44.3454 107.097 44.1675 107.016 43.9859C102.248 33.2619 97.4844 22.5334 92.7191 11.8085C92.6372 11.6244 92.5685 11.4352 92.4929 11.2515C92.5413 11.2498 92.5897 11.2481 92.6396 11.2429C93.202 11.1405 93.6794 10.8264 94.2276 10.6921C94.5051 10.8398 94.5271 11.1309 94.6319 11.3666C99.3297 21.9191 104.017 32.4757 108.73 43.0221C109.015 43.6628 108.91 43.9232 108.234 44.1018C107.901 44.1891 107.598 44.3831 107.282 44.5299L107.284 44.5265Z" fill="#5F1F2F"/>
<path d="M25.5239 80.7652C25.5662 80.7428 25.6047 80.7191 25.6492 80.7016C26.9269 80.1917 26.6935 80.2055 27.1104 81.2469C27.3663 81.8845 27.6438 81.9976 28.2844 81.6915C29.0593 81.3212 29.8922 81.0608 30.686 80.7263C31.0843 80.5585 31.2983 80.5841 31.4927 81.0008C32.0497 82.2121 32.0706 82.2039 33.3908 81.686C34.5646 81.2255 35.7449 80.7798 36.9089 80.2972C37.349 80.1131 37.5597 80.1659 37.7551 80.6052C38.3378 81.916 38.3587 81.9078 39.7913 81.3458C41.0096 80.8679 42.2285 80.3983 43.4387 79.9092C43.7826 79.7714 43.9901 79.7822 44.149 80.1465C44.3378 80.5712 44.5893 80.9712 44.8158 81.3839C44.5124 81.33 44.5987 80.9646 44.2691 80.8172C44.5114 81.3621 44.7216 81.8418 44.9359 82.3169C45.1321 82.7444 45.014 83.0588 44.5445 83.2113C43.8295 83.4399 43.2141 83.8514 42.5353 84.1407C42.0399 84.3524 41.9606 84.6228 42.181 85.084C42.7707 86.2998 42.496 86.1654 43.7432 85.6905C44.9617 85.2269 46.1692 84.7388 47.3855 84.2703C47.5894 84.1903 47.7909 84.022 48.0436 84.1621C46.4149 84.801 44.7781 85.4287 43.1604 86.0921C42.7218 86.2728 42.5572 86.1788 42.3837 85.7886C41.8468 84.5809 41.8285 84.5881 40.5606 85.0855C39.8861 85.3501 39.2088 85.6014 38.542 85.8831C38.2065 86.0263 37.9947 86.0402 37.8502 85.6529C37.6947 85.2412 37.5642 84.6438 37.2427 84.5076C36.8115 84.325 36.3069 84.7853 35.8222 84.938C35.6233 85.0016 35.43 85.0918 35.2355 85.1652C34.7318 85.3513 34.1882 85.7375 33.7381 85.6575C33.2844 85.5761 33.261 84.8675 33.051 84.4367C32.902 84.1291 32.7344 84.1458 32.4445 84.2394C31.9227 84.4124 31.3624 84.9406 30.9087 84.7006C30.5309 84.5 30.4126 83.8402 30.2261 83.3656C30.0836 83.0035 29.8849 83.0469 29.5783 83.1585C29.1452 83.3169 28.7012 83.713 28.2827 83.5659C27.8938 83.4302 27.8769 82.8603 27.692 82.486C27.5153 82.1229 27.2638 82.0544 26.8969 82.2098C26.6387 82.3198 26.3653 82.3953 26.1174 82.5214C25.6983 82.7319 25.5123 82.5829 25.4497 82.1866C25.3868 81.7068 25.3593 81.2304 25.5217 80.7603L25.5239 80.7652Z" fill="#7A372F"/>
<path d="M89.8881 9.99884C89.4013 10.4579 88.7296 10.5628 88.1305 10.8036C87.81 10.9322 87.7573 10.6272 87.6632 10.4363C87.2597 9.62991 86.6109 9.40207 85.7168 9.7528C84.5665 10.204 83.4049 10.6367 82.2677 11.1174C81.8026 11.3142 81.5736 11.2686 81.3682 10.7928C80.8705 9.63896 80.847 9.64819 79.6235 10.1281C78.4288 10.5968 77.2286 11.0532 76.0416 11.5391C75.4749 11.77 75.1077 11.7036 74.9129 11.0997C74.7906 10.7211 74.6023 10.3597 74.4423 9.99291C74.7387 10.0727 74.9892 9.94555 75.2454 9.84505C76.678 9.28305 78.1172 8.73578 79.5389 8.14924C79.9696 7.97164 80.1895 8.03815 80.314 8.4563C80.364 8.62405 80.4696 8.77865 80.526 8.94681C80.7083 9.49505 81.0372 9.59952 81.599 9.3647C82.9763 8.7956 84.3812 8.28192 85.7585 7.71281C86.197 7.53213 86.3895 7.6267 86.5436 8.0217C87.1182 9.51435 87.2716 9.1688 88.3354 8.7025C88.9623 8.42772 89.2028 8.59571 89.3852 9.14395C89.4884 9.45223 89.5796 9.78835 89.8896 9.99536L89.8881 9.99884Z" fill="#EC773A"/>
<path d="M8.50305 44.2084C7.86731 44.3944 7.32481 44.8522 6.60194 44.787C6.43386 44.3744 6.29192 43.9516 6.08832 43.5558C5.89826 43.1835 5.98659 42.9817 6.39837 42.872C6.53302 42.8365 6.65718 42.7705 6.78789 42.7192C7.65212 42.3773 7.67735 42.3098 7.31961 41.4844C6.90403 40.529 6.83006 40.7079 7.85571 40.294C8.71252 39.9492 8.73994 39.8866 8.37892 39.0539C7.9856 38.1416 7.86214 38.2852 8.92766 37.8643C10.2274 37.3487 11.5299 36.8463 12.8307 36.3332C13.0634 36.2419 13.3347 36.196 13.4607 35.9477C13.5552 35.9048 13.6278 35.9023 13.6235 36.0308C13.8073 36.4372 13.9738 36.8533 14.1827 37.247C14.3769 37.6148 14.2713 37.7917 13.8744 37.9416C12.3688 38.5121 10.8813 39.1302 9.37022 39.6884C8.87438 39.8713 8.79803 40.0656 9.00885 40.5191C9.52412 41.6228 9.5078 41.6551 8.26799 42.1328C7.79895 42.314 7.72216 42.5142 7.93753 42.9226C8.15508 43.336 8.31208 43.7788 8.49782 44.2104L8.50305 44.2084Z" fill="#FEB553"/>
<path d="M21.1392 28.738C21.4446 28.624 21.7549 28.5138 22.0581 28.3948C37.2547 22.4334 52.4513 16.4719 67.6501 10.5154C68.3664 10.2344 69.0943 9.98631 69.5347 9.32638C69.7655 9.67977 70.0701 9.68133 70.4407 9.52732C71.2378 9.20021 72.0583 8.9187 72.8456 8.5695C73.368 8.33574 73.6922 8.31233 73.8798 8.92768C73.9936 9.30103 74.2484 9.63925 74.4387 9.99124C74.2906 10.2107 74.0479 10.3002 73.8063 10.3921C73.2406 10.6111 72.6744 10.8361 72.1097 11.0576C70.6405 11.634 70.6248 11.6402 69.974 10.2869C69.7901 9.90075 69.5906 9.86656 69.2159 10.0251C68.3541 10.3862 67.4803 10.7204 66.6124 11.0608C51.8445 16.8541 37.074 22.6484 22.3061 28.4417C21.4382 28.7821 21.4565 28.775 21.7992 29.6149C21.9361 29.9503 22.2586 30.2476 22.1142 30.6617C21.8003 30.5081 21.7177 30.2118 21.5929 29.938C21.5492 29.8398 21.5045 29.7391 21.4608 29.641C21.3536 29.3861 21.214 29.1411 21.124 28.8766L21.1355 28.7366L21.1392 28.738Z" fill="#EC773A"/>
<path d="M105.955 51.2252C105.419 50.8559 105.376 50.2474 105.153 49.7323C105.044 49.4809 105.365 49.4358 105.542 49.3577C106.499 48.9323 106.776 48.2671 106.374 47.3622C106.13 46.8124 105.901 46.2564 105.635 45.7148C105.465 45.3665 105.484 45.1459 105.915 45.0112C106.382 44.8657 106.835 44.6764 107.293 44.5053C107.626 45.545 108.125 46.5224 108.586 47.5094C108.809 47.9839 108.685 48.1477 108.209 48.32C106.913 48.7822 106.924 48.7233 107.504 49.8908C107.746 50.3784 107.642 50.5948 107.119 50.751C106.718 50.8709 106.342 51.0615 105.956 51.2217L105.955 51.2252Z" fill="#5F202F"/>
<path d="M13.6261 36.0298C13.571 36.0024 13.5158 35.9751 13.4633 35.9467C13.5299 35.5717 13.3281 35.256 13.1571 34.9541C12.8907 34.4792 12.9737 34.2448 13.5349 34.0362C15.1406 33.4352 16.7226 32.7742 18.3155 32.1378C18.409 32.127 18.4846 32.1521 18.5426 32.2274C19.0392 33.2798 18.7202 34.0286 17.5856 34.4737C16.2654 34.9916 14.9463 35.5119 13.6272 36.0323L13.6261 36.0298Z" fill="#FEB553"/>
<path d="M18.5415 32.2249C18.4663 32.1939 18.3922 32.1653 18.3143 32.1353C18.3256 32.0848 18.338 32.0367 18.3493 31.9861C18.3676 31.6474 18.4012 31.3431 18.8072 31.1723C19.09 31.0556 19.0297 30.8371 18.8315 30.6468C18.6296 30.455 18.3279 30.3082 18.4348 29.9549C19.3309 29.5947 20.228 29.237 21.1266 28.8759C21.5032 28.9703 21.4815 29.3218 21.6237 29.5658C21.4009 29.7484 21.5557 29.7857 21.7329 29.8113C21.8584 30.0936 21.985 30.3783 22.1131 30.6595C21.1297 31.0511 20.1463 31.4426 19.164 31.8366C18.9313 31.9279 18.674 31.9913 18.5404 32.2225L18.5415 32.2249Z" fill="#FEB553"/>
<path d="M92.5072 11.2487C92.0373 11.4417 91.5658 11.6381 91.0948 11.8287C90.904 11.9035 90.6655 12.0231 90.5607 11.7528C90.3478 11.205 89.9234 10.72 89.9859 10.0873C90.4888 10.2446 90.7177 9.7858 91.0874 9.64365C91.4937 9.48715 91.7105 9.49145 91.8706 9.92737C92.0393 10.3829 92.2913 10.8116 92.5056 11.2522L92.5072 11.2487Z" fill="#7C3931"/>
<path d="M18.4359 29.9573C18.5296 30.2233 18.7591 30.3667 18.9848 30.529C19.4376 30.85 19.4346 31.1539 18.9139 31.3294C18.5298 31.4599 18.5028 31.7443 18.353 31.9875C18.3791 31.5766 18.1515 31.2306 17.9626 30.8954C17.6475 30.3387 17.8014 30.0563 18.4359 29.9573Z" fill="#FEB553"/>
<path d="M25.5238 80.7655C25.6551 81.2473 25.599 81.7219 25.4529 82.1943C25.284 81.8627 25.1162 81.5336 24.9447 81.2031C24.9237 81.1421 24.9043 81.0777 24.8833 81.0167C25.0977 80.9327 25.3094 80.8496 25.5238 80.7655Z" fill="#4F4B50"/>
<path d="M94.2301 10.6907C93.7098 10.8948 93.2291 11.2016 92.6421 11.2416C93.1765 11.0694 93.6518 10.7504 94.2301 10.6907Z" fill="#D64524"/>
<path d="M51.6439 72.5106C50.6453 72.9024 49.6375 73.2804 48.6476 73.6918C48.2561 73.854 48.0362 73.8567 47.8415 73.4257C47.3024 72.2477 47.2728 72.2363 46.0199 72.7191C45.5744 72.891 45.4115 72.7733 45.2387 72.3914C44.7107 71.2177 44.6798 71.1895 43.4603 71.7198C42.8385 71.9926 42.5057 71.9069 42.3547 71.2772C42.3486 71.2565 42.3361 71.2355 42.3274 71.2158C41.8549 70.153 41.844 70.1285 40.7281 70.595C40.2029 70.8155 39.886 70.7726 39.7383 70.2194C39.7226 70.1564 39.6838 70.0967 39.6565 70.0353C39.1997 69.0355 39.3823 69.108 38.3307 69.5119C37.4345 69.8577 37.4367 69.8626 37.0711 69.0403C34.512 63.2844 31.954 57.5309 29.3949 51.775C29.2869 51.532 29.2076 51.2777 29.1126 51.0295C30.0807 50.9006 30.9351 50.502 31.7827 50.0744C32.1267 49.9019 32.4503 49.6424 32.8874 49.8313C33.2024 50.0911 33.3125 50.463 33.4653 50.8066C35.3449 55.0274 37.2205 59.2527 39.0975 63.4746C39.1968 63.6979 39.305 63.9207 39.4043 64.1441C39.5844 64.5491 39.8782 64.6644 40.3063 64.4878C40.4135 64.4458 40.5244 64.4052 40.6364 64.367C41.483 64.0752 41.6275 64.131 41.9967 64.8855C42.1126 65.1254 42.1858 65.3936 42.4962 65.491C42.8482 65.5576 43.1422 65.3903 43.444 65.2748C56.2862 60.2398 69.1248 55.2034 81.9649 50.1635C82.9034 49.7953 82.9012 49.7904 82.5706 48.8535C82.3403 48.1973 82.4227 48.0237 83.1048 47.7071C84.0036 47.2911 84.0088 47.2891 83.6219 46.4118C80.0511 38.3804 76.4804 30.3491 72.9149 22.3158C72.7458 21.9353 72.4779 21.5676 72.5907 21.1169C73.0962 21.0109 73.1433 21.4277 73.2664 21.6907C73.8026 22.8208 74.2929 23.9718 74.8029 25.1121C75.6105 26.9285 76.4181 28.7449 77.2245 30.5588C77.5792 31.3565 77.7034 31.3943 78.406 31.1446C78.9067 30.9655 79.2722 31.1594 79.507 31.5977C79.6133 31.7953 79.7039 31.999 79.7945 32.2027C80.339 33.4275 80.9045 34.6441 81.4244 35.8757C83.2996 40.3145 85.5555 44.6011 87.4333 49.0388C87.587 49.4051 87.8256 49.7554 87.7097 50.1785C87.7458 50.2595 87.7896 50.3374 87.8204 50.4205C88.0033 50.8734 88.392 51.3609 88.3116 51.7671C88.2304 52.1853 87.5153 52.2064 87.0737 52.394C86.7345 52.5357 86.6782 52.6991 86.8209 53.0063C87.0263 53.4475 87.4073 53.9524 87.3126 54.347C87.2081 54.7887 86.4696 54.7988 86.013 55.0009C85.6797 55.149 85.7203 55.3233 85.8234 55.5827C85.984 55.9924 86.4121 56.4096 86.2505 56.7988C86.0884 57.1939 85.468 57.2211 85.0434 57.3847C84.667 57.5324 84.6318 57.7019 84.7697 58.0398C85.2845 59.308 85.2703 59.3107 83.9486 59.8321C83.146 60.1469 82.3504 60.4706 81.5489 60.7879C81.3646 61.1052 81.026 61.2207 80.6993 61.3489C71.3518 65.0187 62.0033 68.686 52.6562 72.3499C52.3347 72.476 52.0123 72.6486 51.6413 72.5116L51.6439 72.5106Z" fill="#3C4E5A"/>
<path d="M87.7124 50.1774C87.6614 50.0763 87.6088 49.9788 87.563 49.8757C84.9157 43.8661 82.0143 37.9619 79.4245 31.9297C79.065 31.0935 79.0415 31.0682 78.1512 31.4549C77.6396 31.6787 77.4286 31.5769 77.2174 31.0948C75.8491 27.962 74.452 24.8404 73.0523 21.7198C72.9541 21.4989 72.9746 21.1652 72.5956 21.1207C72.0906 21.6215 71.4747 21.866 70.7397 21.8286C70.383 21.5995 70.2943 21.2135 70.1216 20.8805C69.9578 20.5671 69.7304 20.4632 69.3799 20.5863C69.1805 20.6558 68.9823 20.7278 68.7888 20.8037C56.0444 25.8032 43.2999 30.8027 30.5529 35.8033C30.4222 35.8545 30.2947 35.9132 30.1607 35.9571C29.6651 36.1198 29.4807 36.4026 29.7323 36.8718C29.7849 36.9693 29.815 37.0786 29.8609 37.1817C30.0876 37.6779 29.9377 38.0105 29.4167 38.2611C28.1604 38.8606 28.1684 38.8718 28.7163 40.104C29.9964 42.9832 31.2791 45.8614 32.5539 48.7426C32.7045 49.0813 32.9392 49.4159 32.7983 49.8171C31.8211 50.2639 30.8645 50.7573 29.8417 51.1153C29.5681 51.2111 29.3225 51.3218 29.1179 51.0274C29.0056 50.8091 28.8827 50.595 28.7808 50.3727C26.8317 45.9888 24.8905 41.6019 22.9206 37.2263C22.6768 36.6848 22.6811 36.3632 23.3476 36.2257C23.3696 36.2199 23.3921 36.2082 23.413 36.2C24.5896 35.7183 24.5294 35.935 23.9893 34.8238C23.7101 34.2443 23.7797 33.9518 24.4477 33.7763C24.8982 33.6572 25.3239 33.4613 25.7611 33.2985C26.4709 33.0719 27.1928 32.8723 27.7991 32.4269C28.0243 32.2636 28.303 32.186 28.5618 32.0845C31.6937 30.8559 34.8583 29.7009 37.9456 28.386C45.3917 25.2114 53.0298 22.4687 60.5093 19.376C62.7703 18.44 65.0428 17.5226 67.3093 16.5989C67.6522 16.4586 67.9962 16.2862 68.3948 16.4095C69.2921 16.363 70.0209 15.8753 70.8218 15.5842C72.1039 15.1187 72.115 15.0885 72.6218 16.256C72.8064 16.6852 72.9976 16.7629 73.454 16.581C74.9154 16.0077 74.923 16.0249 75.5211 17.37C80.1438 27.7675 84.7613 38.1671 89.4023 48.5574C89.6686 49.1563 89.6653 49.4804 88.9328 49.6698C88.5058 49.7797 88.1148 50.0051 87.7061 50.177L87.7124 50.1774Z" fill="#252420"/>
<path d="M68.4 16.4076C66.3112 17.227 64.1958 17.9934 62.1391 18.8781C54.9584 21.966 47.5542 24.565 40.3488 27.5905C35.8287 29.4876 31.2325 31.207 26.6932 33.0541C26.3988 33.1724 26.1207 33.3824 25.7648 33.3001C25.8687 33.2507 25.9731 33.1953 26.0791 33.1508C26.5264 32.9552 27.1548 32.8701 27.3742 32.5419C27.6167 32.1758 27.1361 31.6956 26.9599 31.2717C26.8194 30.9348 26.9258 30.7806 27.2546 30.6776C27.4781 30.6072 27.6885 30.5074 27.9081 30.4212C40.8539 25.3428 53.797 20.2653 66.7428 15.1869C67.8355 14.7582 67.6391 14.6824 68.1156 15.7264C68.2149 15.9498 68.3074 16.1787 68.4015 16.4041L68.4 16.4076Z" fill="#3C4E5A"/>
<path d="M51.644 72.5107C61.6133 68.6028 71.5836 64.6973 81.5528 60.7894C81.7411 61.22 81.9112 61.6577 82.1194 62.0777C82.2802 62.398 82.1862 62.5732 81.8437 62.673C81.7101 62.711 81.5823 62.7755 81.4516 62.8268C72.0586 66.5116 62.6656 70.1963 53.2752 73.8801C52.7053 74.1036 52.3024 73.9523 52.0664 73.4261C51.9299 73.1193 51.7868 72.818 51.6451 72.5132L51.644 72.5107Z" fill="#252420"/>
<path d="M17.9092 50.8353C19.7939 49.8538 19.7808 49.859 20.6213 51.6941C20.8764 52.2542 20.9212 53.087 21.4816 53.2909C21.995 53.4787 22.6365 52.9329 23.2272 52.7214C23.6886 52.5577 24.1472 52.3807 24.5944 52.1851C24.9329 52.035 25.0991 52.1255 25.2324 52.4393C25.6275 53.3624 26.0304 54.2824 26.4569 55.1933C26.624 55.5486 26.5187 55.7052 26.1599 55.8373C25.2843 56.1606 24.4268 56.5316 23.548 56.8475C23.1164 57.0024 23.0252 57.1909 23.221 57.5898C23.5935 58.3517 23.9029 59.1441 24.2701 59.9081C24.4487 60.282 24.4331 60.4956 23.9743 60.6583C23.029 60.9975 22.0964 61.372 21.1707 61.7553C20.8028 61.9082 20.6232 61.8288 20.4819 61.4835C20.1853 60.761 19.8117 60.0659 19.5486 59.336C19.3279 58.7221 19.0586 58.5308 18.3894 58.8625C17.6623 59.2227 16.8738 59.4657 16.1174 59.7739C15.7249 59.9337 15.4551 59.9069 15.3092 59.4684C15.1745 59.0686 14.9916 58.6849 14.827 58.294C14.9761 57.9732 15.3109 57.8909 15.6079 57.7715C16.7747 57.3022 17.9502 56.8526 19.1192 56.3883C19.9301 56.0644 19.9566 56.0136 19.6286 55.2689C19.1176 54.1058 18.591 52.9489 18.0853 51.7838C17.9521 51.4844 17.7553 51.1868 17.9066 50.8363L17.9092 50.8353Z" fill="#252420"/>
<path d="M86.2897 32.2201C85.1359 32.7554 84.3131 32.4699 83.8213 31.3637C83.5954 30.8556 83.3867 30.3379 83.1373 29.839C82.9444 29.4535 83.0349 29.2566 83.4614 29.0835C84.6836 28.5867 84.6916 28.5634 84.1998 27.4159C84.0327 27.026 84.0783 26.8178 84.5166 26.6574C85.4571 26.3144 86.3893 25.9459 87.3138 25.5601C87.7105 25.3958 87.9161 25.4853 88.063 25.8571C88.2248 26.2693 88.4332 26.669 88.6211 27.0709C88.7874 27.1412 88.8738 27.2802 88.8878 27.4361C88.9395 28.0357 89.3057 28.5002 89.6113 28.9943C89.7069 29.1471 89.8092 29.2944 89.8917 29.4523C90.3935 30.4084 90.3109 30.6023 89.2523 31.032C88.2659 31.4305 87.2554 31.775 86.2887 32.2176L86.2897 32.2201Z" fill="#3C4D59"/>
<path d="M88.9472 23.04C88.444 22.9923 88.0428 23.2708 87.6237 23.4467C87.1915 23.6278 86.9994 23.5273 86.8379 23.1295C86.4831 22.2626 86.0933 21.4066 85.6957 20.5536C85.5475 20.2341 85.5502 20.0399 85.9461 19.8875C86.3744 19.7253 86.9899 19.6942 87.1631 19.3034C87.3326 18.9112 86.9076 18.487 86.7365 18.0814C86.6079 17.7715 86.642 17.5995 86.993 17.4705C87.9145 17.1263 88.8258 16.7659 89.7353 16.3947C90.0677 16.2585 90.2604 16.3328 90.3964 16.6456C90.5822 17.0772 90.7903 17.4971 90.9892 17.9236C91.6137 18.8864 91.9791 19.9567 92.4076 20.9964C92.5219 21.2744 92.4182 21.5313 92.1337 21.6718C91.0952 22.1743 90.1144 22.7925 88.9524 23.0379L88.9472 23.04Z" fill="#3C4E5A"/>
<path d="M17.9092 50.8354C18.5781 52.34 19.243 53.8492 19.9119 55.3538C20.1505 55.8905 19.9945 56.2669 19.4438 56.483C17.9066 57.086 16.3668 57.69 14.8296 58.293C14.5933 57.7891 14.37 57.2799 14.1179 56.7821C13.9593 56.4667 14.0509 56.3068 14.3862 56.1839C15.2372 55.8674 16.07 55.5032 16.9286 55.2039C17.4288 55.0307 17.584 54.8343 17.3304 54.34C16.9346 53.567 16.6255 52.7543 16.2536 51.9662C16.0941 51.6281 16.1473 51.4372 16.5305 51.3185C16.997 51.173 17.453 50.997 17.9118 50.8343L17.9092 50.8354Z" fill="#3C4E59"/>
<path d="M88.9472 23.0402C89.0412 22.7958 89.2887 22.7449 89.5033 22.6751C90.3754 22.3993 91.1129 21.862 91.9715 21.5627C92.3414 21.4349 92.3249 21.2252 92.192 20.94C91.8465 20.1906 91.5204 19.4364 91.188 18.6818C91.0799 18.4388 90.9488 18.1991 90.9918 17.9228C91.4911 17.727 91.9959 17.5434 92.4865 17.3278C92.8104 17.1863 92.9911 17.2337 93.1321 17.5646C93.5219 18.4898 93.9301 19.4078 94.3565 20.3186C94.5102 20.6504 94.3834 20.7866 94.0693 20.9156C93.5994 21.1086 92.9365 21.1438 92.7215 21.551C92.5126 21.9443 92.9812 22.3975 93.1495 22.8244C93.2678 23.1181 93.1997 23.2688 92.8943 23.3829C91.9566 23.7392 91.0207 24.1063 90.0918 24.4822C89.7923 24.6026 89.6127 24.5578 89.4933 24.2616C89.3278 23.848 89.1336 23.4456 88.9539 23.0347L88.9472 23.0402Z" fill="#252420"/>
<path d="M86.2896 32.2201C86.1974 32.213 86.0547 32.2373 86.0224 32.1923C85.9373 32.07 86.0979 32.0791 86.1554 32.0565C87.2617 31.6168 88.3603 31.1599 89.4829 30.757C89.994 30.5738 90.1647 30.3569 89.8715 29.8839C89.7079 29.6194 89.5981 29.331 89.4061 29.0719C88.9631 28.476 88.6465 27.819 88.6209 27.0709C89.8191 26.5894 90.6681 26.9107 91.1679 28.0349C91.3851 28.5233 91.5929 29.0183 91.8231 29.5017C91.9765 29.8191 91.954 30.024 91.5719 30.1796C91.148 30.3517 90.5306 30.3719 90.3622 30.7666C90.1965 31.1602 90.6428 31.5703 90.7815 31.9858C90.8234 32.1077 90.9126 32.2255 90.819 32.3602C90.4151 32.1699 90.3398 31.7728 90.1814 31.4371C90.0138 31.0878 89.7843 30.9789 89.3984 31.1331C88.6821 31.4141 87.9654 31.7011 87.2469 31.9772C86.8134 32.1415 86.7754 32.4014 86.9339 32.7716C87.0705 33.0928 87.298 33.4042 87.1562 33.7827C86.6796 33.3528 86.6863 32.6843 86.2874 32.2152L86.2896 32.2201Z" fill="#272420"/>
<path d="M100.235 39.0502C100.688 39.4691 100.792 40.054 101.033 40.5703C101.196 40.9157 100.849 40.9627 100.63 41.0513C99.5971 41.4623 98.5596 41.8635 97.5244 42.2696C97.1571 41.8026 97.0286 41.2304 96.7611 40.7184C96.6395 40.4865 96.7205 40.351 96.9669 40.2629C98.0618 39.8738 99.0983 39.3461 100.235 39.0502Z" fill="#7A372F"/>
<path d="M79.3718 16.4535C79.0895 16.5642 78.8071 16.675 78.5248 16.7858C77.866 17.0442 77.3969 16.8592 77.1175 16.2309C76.8382 15.6025 77.0342 15.1595 77.7056 14.9019C78.4428 14.6127 79.1844 14.3333 79.9151 14.0294C80.2031 13.9106 80.4062 13.9117 80.5034 14.2339C80.5121 14.2535 80.5219 14.2756 80.5307 14.2952C81.0105 15.2409 80.6221 15.9601 79.3655 16.4531L79.3718 16.4535Z" fill="#FDFCF8"/>
<path d="M99.6492 47.063C99.827 47.3593 99.6724 47.4949 99.3827 47.6028C98.3603 47.9895 97.3422 48.386 96.3286 48.7923C96.0305 48.9092 95.8496 48.8821 95.7296 48.5775C95.6012 48.2474 95.4561 47.9209 95.2989 47.6021C95.1739 47.3484 95.2317 47.1816 95.5154 47.0876C96.502 46.5651 97.585 46.2527 98.6102 45.8102C98.8579 45.7043 98.9919 45.7642 99.1035 45.9943C99.2754 46.3534 99.3607 46.7524 99.6455 47.0615L99.6492 47.063Z" fill="#7A372F"/>
<path d="M98.022 44.0864C96.9789 44.4956 95.9288 44.896 94.8982 45.3262C94.4973 45.495 94.3122 45.4033 94.159 45.031C93.531 43.5218 93.4445 43.9074 94.8547 43.3226C95.6952 42.9756 96.5492 42.6521 97.3962 42.3198C97.6892 42.8823 98.1629 43.3883 98.0246 44.0854L98.022 44.0864Z" fill="#7A372F"/>
<path d="M87.1585 33.788C87.0231 33.4837 86.8867 33.1769 86.7514 32.8725C86.5215 32.3554 86.6932 31.9844 87.2666 31.7595C88.0457 31.4538 88.8317 31.157 89.6042 30.8367C89.934 30.7015 90.1254 30.7591 90.2542 31.0833C90.4284 31.5165 90.6314 31.9385 90.8212 32.3656C89.6314 32.9073 88.4214 33.4108 87.1585 33.788Z" fill="#272420"/>
<path d="M98.4221 43.9294C99.371 43.5571 100.335 43.2192 101.263 42.8062C101.809 42.5632 102.038 42.6983 102.23 43.1995C102.692 44.4047 102.996 44.1845 101.536 44.7256C100.798 44.874 100.139 45.2219 99.4476 45.4902C99.092 45.6296 98.8582 45.6147 98.7716 45.2336C98.6715 44.7943 98.172 44.4512 98.4221 43.9294Z" fill="#7A372F"/>
<path d="M95.1899 37.0048C96.3637 36.5443 97.5375 36.0838 98.7113 35.6234C99.0415 36.007 99.1329 36.4957 99.366 36.9232C99.5161 37.1987 99.3669 37.312 99.1096 37.41C98.1574 37.775 97.2058 38.1482 96.2601 38.5279C96.0065 38.6274 95.8154 38.6533 95.7112 38.3569C95.5551 37.9022 95.243 37.4971 95.191 37.0072L95.1899 37.0048Z" fill="#79372F"/>
<path d="M26.6202 70.0903C26.1209 70.2862 25.6172 70.4722 25.1271 70.6818C24.8099 70.8178 24.6198 70.777 24.4695 70.4526C24.2667 70.0104 24.229 69.3939 23.8 69.1816C23.3784 68.9723 22.9043 69.4321 22.4424 69.5672C22.1387 69.6575 21.9726 69.567 21.8212 69.3093C21.1263 68.1262 21.1688 68.049 22.4689 67.5274C22.9687 67.3256 23.2028 67.424 23.3454 67.8898C23.4175 68.121 23.544 68.3366 23.6381 68.562C23.7459 68.8252 23.9186 68.965 24.2332 68.8647C24.5103 68.9837 24.6194 69.2292 24.72 69.4693C24.9005 69.903 25.2068 70.0048 25.6538 69.8294C25.9074 69.73 26.1677 69.625 26.4539 69.7231C26.5085 69.8459 26.563 69.9686 26.6187 70.0938L26.6218 70.0868L26.6202 70.0903Z" fill="#EC7639"/>
<path d="M95.1898 37.0049C95.655 38.0697 96.4453 38.3832 97.5607 37.9457L98.0783 37.7426C98.9741 37.3912 99.2298 36.7855 98.8454 35.9254C98.8006 35.8248 98.7548 35.7217 98.7101 35.6211C99.1974 35.992 99.2608 36.5696 99.4812 37.0654C99.6111 37.3575 99.2731 37.4123 99.0692 37.4923C98.2255 37.8319 97.3861 38.1814 96.5286 38.4832C96.0672 38.6469 95.9804 38.8452 96.1844 39.2697C96.7769 40.4987 96.5026 40.3238 97.7532 39.8909C98.5778 39.6049 99.3253 39.1041 100.237 39.049C99.249 39.4367 98.2659 39.8426 97.2679 40.2081C96.8568 40.3607 96.717 40.5366 96.9291 40.9377C97.1569 41.3672 97.3294 41.8242 97.5269 42.2685C97.8454 42.8123 97.9023 43.479 98.4235 43.926C98.3421 44.4681 98.7242 44.8717 98.913 45.331C99.0394 45.6359 99.3021 45.4464 99.5147 45.3861C100.198 45.19 100.786 44.7315 101.538 44.7222C100.916 44.9688 100.308 45.2448 99.671 45.4545C99.1895 45.6145 99.0356 45.8277 99.3005 46.2715C99.4464 46.5169 99.5329 46.7943 99.6497 47.0569C99.4112 46.9833 99.3788 46.7654 99.2977 46.5897C98.8871 45.687 99.0423 45.7184 97.997 46.1227C97.1714 46.4408 96.3442 46.7624 95.5196 47.083C96.1472 46.5543 96.9785 46.4214 97.7105 46.0996C99.0025 45.5322 98.9662 45.8924 98.3528 44.4784C98.2819 44.3188 98.2327 44.1392 98.0172 44.0825C98.0477 43.4191 97.5818 42.91 97.3888 42.3169C97.1891 41.8677 96.9711 41.4257 96.7986 40.9688C96.6536 40.5875 96.4494 40.5148 96.0538 40.6815C95.1501 41.0591 94.2268 41.3924 93.3221 41.7675C92.9463 41.9236 92.6946 41.9099 92.5734 41.4991C92.4465 41.0617 92.0614 40.6997 92.1471 40.202C92.5037 40.3619 92.5974 40.697 92.7332 40.9954C92.8901 41.3345 93.1081 41.4796 93.5029 41.3248C94.2401 41.0356 94.9747 40.7474 95.7119 40.4582C96.1668 40.2797 96.1239 39.9968 95.9674 39.6517C95.8116 39.315 95.6288 39.0696 95.1759 39.2387C94.4776 39.4982 93.7903 39.7822 93.0943 40.0466C92.7915 40.1596 92.4945 40.3136 92.1486 40.1985C92.6734 39.687 93.4341 39.6164 94.0696 39.3123C94.5682 39.0735 95.2631 38.9998 95.5566 38.631C95.8753 38.2292 95.2561 37.7341 95.1527 37.253C95.1356 37.1732 95.1711 37.0872 95.1824 37.0021L95.1898 37.0049Z" fill="#A73D29"/>
<path d="M26.1849 74.2967C26.2267 74.2803 26.2712 74.2629 26.3119 74.244C27.5474 73.7497 28.4124 74.084 28.9069 75.2468L28.9099 75.2398C28.8681 75.2563 28.8247 75.2761 28.7818 75.2901C28.1696 75.4668 27.5494 76.0676 26.9953 75.8295C26.4942 75.6139 26.4568 74.8185 26.189 74.2922L26.186 74.2992L26.1849 74.2967Z" fill="#EC763A"/>
<path d="M28.9067 75.2471C29.0793 75.1794 29.2496 75.1068 29.4248 75.0381C30.7607 74.5141 30.7397 74.5223 31.3111 75.7798C31.5145 76.2304 31.4489 76.4349 30.9508 76.613C29.4844 77.1335 29.836 77.2406 29.2376 75.9706C29.1243 75.7296 29.0204 75.4821 28.9124 75.2391L28.9093 75.2461L28.9067 75.2471Z" fill="#EC763A"/>
<path d="M34.8175 74.0118C34.8994 74.1959 34.9734 74.3831 35.062 74.5616C35.1827 74.8054 35.1582 74.9851 34.8582 75.0769C34.8372 75.0851 34.8137 75.0943 34.7928 75.1025C33.5003 75.7104 32.9163 75.412 32.684 74.033C32.652 73.8437 32.7055 73.7363 32.8807 73.6675C33.0532 73.5999 33.2251 73.5238 33.3987 73.4586C34.5608 73.02 34.3234 72.9488 34.8175 74.0118Z" fill="#3D4E59"/>
<path d="M84.6028 13.3031C85.0186 14.2383 84.9942 14.1902 84.0239 14.6458C83.3351 14.9679 83.073 14.7997 82.8283 14.1664C82.3982 13.061 82.3546 13.0665 83.3901 12.6748C84.3121 12.3246 84.1085 12.2258 84.6028 13.3031Z" fill="#FDFCF8"/>
<path d="M26.6162 70.0946C26.8332 70.0095 27.0469 69.917 27.2645 69.8402C28.6386 69.3329 28.3151 69.1716 28.9645 70.508C29.1821 70.956 29.0996 71.1642 28.6031 71.3388C27.1352 71.8627 27.4898 71.9629 26.891 70.6988C26.7952 70.4971 26.7098 70.2913 26.6203 70.0901L26.6173 70.097L26.6162 70.0946Z" fill="#EC7639"/>
<path d="M30.652 69.463C30.2438 68.5104 30.1814 68.6876 31.2924 68.2518C32.244 67.8785 32.0594 67.8154 32.5509 68.9141C32.9307 69.7682 32.9591 69.6043 31.8413 70.0457C30.917 70.4112 31.0896 70.4127 30.652 69.463Z" fill="#3F4E58"/>
<path d="M26.1889 74.2924C25.8203 74.437 25.436 74.5532 25.089 74.7326C24.5625 75.0054 24.2166 74.9595 24.0661 74.3584C23.9762 74.0045 23.5303 73.6231 23.7598 73.3313C24.0718 72.935 24.6922 72.8733 25.1895 72.6868C25.427 72.5994 25.5158 72.7923 25.5889 72.9568C25.7876 73.4035 25.9862 73.8502 26.1848 74.2969L26.1878 74.29L26.1889 74.2924Z" fill="#EC7639"/>
<path d="M26.455 69.7256C24.5771 70.4738 24.9353 70.3678 24.2306 68.8657C25.2821 68.4455 26.0236 68.7321 26.455 69.7256Z" fill="#EC763A"/>
<path d="M21.7341 29.8134C21.5032 29.8809 21.2732 30.0749 21.022 29.793C21.1619 29.5622 21.4599 29.7076 21.625 29.5679C21.661 29.6489 21.6981 29.7324 21.7341 29.8134Z" fill="#FEB553"/>
<path d="M70.8027 21.7839C71.4016 21.5633 71.9994 21.3404 72.5983 21.1198C72.7133 21.337 72.8387 21.5502 72.9381 21.7735C76.6345 30.0668 80.3215 38.3667 84.0363 46.6529C84.2982 47.242 84.3047 47.519 83.5844 47.7497C82.5276 48.0864 82.5087 48.1544 83.0112 49.1536C83.2931 49.7117 83.1612 49.9191 82.5678 50.1519C69.3922 55.3004 56.229 60.4699 43.0589 65.6306C42.8341 65.7188 42.6231 65.914 42.3399 65.8089C41.7934 64.5244 40.7593 63.4829 40.3134 62.1416C39.5464 59.8365 38.3677 57.6757 37.5145 55.4044C36.7997 53.4998 35.8832 51.68 35.1445 49.7906C33.8324 46.4252 32.4786 43.0762 30.9997 39.7706C30.8 39.3214 30.7159 38.8355 30.5476 38.374C30.4017 37.97 30.5663 37.6979 30.9503 37.4982C31.589 37.1669 32.2277 36.8357 32.9048 36.5701C42.849 32.6748 52.8008 28.7968 62.7242 24.855C65.0648 23.9252 67.36 22.8865 69.7211 21.9891C70.0673 21.8562 70.4102 21.6813 70.8079 21.7818L70.8027 21.7839Z" fill="#FDFCF8"/>
<path d="M70.8027 21.7837C70.6099 21.868 70.423 21.9586 70.228 22.038C57.8592 27.0746 45.389 31.8829 32.9679 36.8017C32.2751 37.0735 31.6129 37.414 30.931 37.7103C30.6714 37.8237 30.5804 37.9574 30.6852 38.2276C30.9235 38.8259 31.1149 39.4427 31.3637 40.0369C32.5219 42.7939 33.7622 45.5215 34.8372 48.3053C35.5938 50.2627 36.5623 52.137 37.2712 54.1045C38.0511 56.2661 39.1223 58.3164 39.934 60.4597C40.3355 61.5216 40.725 62.591 41.2352 63.6074C41.6036 64.3392 42.1016 65.0173 42.3399 65.8088C41.9868 65.512 41.9273 65.0741 41.7529 64.6957C41.6036 64.3738 41.4608 64.2597 41.0673 64.3968C40.5761 64.5693 40.0377 65.0918 39.595 64.8072C39.2128 64.5622 39.1049 63.9328 38.8939 63.465C36.859 58.9159 34.8305 54.3672 32.7984 49.8171C31.2631 46.3433 29.7451 42.8598 28.1784 39.3983C27.9128 38.8078 27.9948 38.571 28.6384 38.3473C29.8852 37.913 29.8934 37.8694 29.3673 36.7412C29.1564 36.2877 29.2356 36.1067 29.7271 35.9139C42.9789 30.7298 56.2227 25.5344 69.4636 20.3257C69.9603 20.1309 70.184 20.1988 70.3362 20.6724C70.4585 21.051 70.6442 21.4135 70.8027 21.7837Z" fill="#C3C0B1"/>
<path d="M65.1495 63.1941C61.0373 64.8073 56.9192 66.4141 52.8146 68.0445C52.3179 68.2393 52.1017 68.2088 51.8933 67.7054C51.3517 66.4045 51.3256 66.4147 52.6641 65.8897C60.6506 62.7566 68.6393 59.6285 76.6208 56.4773C77.1933 56.2527 77.452 56.2752 77.6856 56.8696C78.1648 58.0855 78.2051 58.0726 76.9032 58.5833C72.987 60.1196 69.0683 61.6568 65.1521 63.1931L65.1495 63.1941Z" fill="#FDFCF8"/>
<path d="M92.1546 40.2051C93.1532 39.8134 94.1591 39.4447 95.1457 39.026C95.6213 38.825 95.8839 38.8286 96.0932 39.3548C96.5637 40.551 96.648 40.2988 95.4546 40.7843C94.807 41.047 94.1359 41.2641 93.5099 41.5616C92.9851 41.8107 92.7481 41.6644 92.5863 41.1831C92.4736 40.8467 92.3023 40.5305 92.1572 40.2041L92.1546 40.2051Z" fill="#7A372F"/>
<path d="M64.2595 38.8534C62.8687 39.399 61.4736 39.9348 60.0904 40.4975C59.711 40.6522 59.5185 40.6268 59.3518 40.231C58.7314 38.7735 58.0812 37.3249 57.4191 35.8839C57.2567 35.5325 57.2712 35.351 57.6921 35.1859C60.4813 34.1119 63.2606 33.0158 66.0404 31.9138C66.3698 31.7846 66.5339 31.8153 66.6776 32.1453C67.3243 33.6413 67.9841 35.1323 68.6648 36.615C68.8326 36.9787 68.7201 37.1122 68.3687 37.2472C66.9923 37.7698 65.6268 38.317 64.2595 38.8534Z" fill="#FDFCF8"/>
<path d="M57.5812 43.5542C56.3634 40.8149 55.1574 38.0681 53.9134 35.339C53.7052 34.8845 53.772 34.7171 54.2672 34.5257C57.6311 33.232 60.9825 31.9173 64.3268 30.5794C64.8396 30.3725 65.001 30.4937 65.1885 30.9361C65.7143 32.1741 65.7461 32.1904 67.0517 31.6465C67.5466 31.4409 67.728 31.5311 67.9157 31.9879C68.365 33.0743 68.4112 33.1023 69.5464 32.5964C70.1618 32.3233 70.4098 32.4047 70.6537 33.0153C71.2278 34.4447 71.8736 35.8489 72.5272 37.25C72.7151 37.652 72.6303 37.8063 72.2094 37.9714C70.8676 38.4891 70.8648 38.5104 71.3605 39.7429C71.4876 40.0562 71.4611 40.2108 71.1086 40.3433C70.6321 40.5215 69.9416 40.5705 69.758 40.9654C69.5728 41.3637 70.0295 41.8591 70.2405 42.2924C70.4461 42.7133 70.221 42.8217 69.876 42.9571C67.7384 43.7841 65.6113 44.6416 63.4671 45.4539C62.9865 45.6367 62.8786 45.7944 63.1012 46.2605C63.7369 47.5937 64.2885 48.9656 64.9268 50.2978C65.1717 50.8071 65.1643 51.0666 64.5329 51.2624C63.7497 51.5033 62.9843 51.8122 62.248 52.1587C61.6986 52.4146 61.4639 52.3424 61.2203 51.7807C60.0364 49.0281 58.8002 46.296 57.5812 43.5542Z" fill="#253743"/>
<path d="M55.6821 44.3859C56.8999 47.1252 58.1074 49.8686 59.3451 52.5972C59.543 53.0355 59.5375 53.251 59.0079 53.4271C58.1423 53.7176 57.2982 54.0632 56.4594 54.421C56.0518 54.5953 55.8341 54.5683 55.6689 54.1345C55.5021 53.7041 55.4365 53.0524 55.028 52.9416C54.6481 52.8399 54.1079 53.1786 53.6677 53.383C53.2644 53.5672 53.1092 53.4666 52.9429 53.0995C52.416 51.9282 52.3857 51.9084 51.1723 52.4248C50.6456 52.6487 50.4206 52.5986 50.2043 52.0637C49.6939 50.8053 49.6702 50.8348 48.3792 51.37C47.9825 51.5343 47.9879 51.7052 48.1324 52.0232C48.7718 53.427 49.3758 54.8476 50.0294 56.2487C50.2326 56.685 50.2156 56.9021 49.6907 57.0821C48.7598 57.3983 47.8481 57.7646 46.9484 58.1579C46.5105 58.3469 46.352 58.239 46.18 57.8453C44.5053 54.037 42.816 50.2374 41.1099 46.4414C40.9352 46.0487 41.0278 45.9115 41.419 45.7695C42.3868 45.4187 43.344 45.0375 44.2921 44.6425C44.6365 44.4987 44.8668 44.492 44.9667 44.8823C44.9728 44.903 44.9853 44.924 44.994 44.9437C45.2183 45.3515 45.2281 45.9674 45.6508 46.1446C46.0475 46.3119 46.5129 45.9016 46.9438 45.7383C47.2586 45.6177 47.3948 45.6824 47.5288 45.97C47.7444 46.4274 47.7768 47.1354 48.2393 47.271C48.6246 47.3851 49.1925 46.998 49.6617 46.7966C50.017 46.6428 50.1448 46.7714 50.2884 47.0668C50.8743 48.2811 50.8728 48.25 52.1669 47.777C52.6873 47.5872 52.702 47.3854 52.5051 46.9495C51.0965 43.8296 49.7245 40.6953 48.3133 37.5764C48.1022 37.1086 48.1357 36.8937 48.6768 36.716C49.499 36.4454 50.3106 36.1299 51.0924 35.7684C51.6429 35.515 51.8326 35.6654 52.0467 36.1609C53.2384 38.9104 54.4683 41.6421 55.6862 44.3814L55.6821 44.3859Z" fill="#253743"/>
<path d="M65.0799 40.754C64.0133 41.1724 62.9412 41.5786 61.8834 42.0166C61.4971 42.1768 61.286 42.1991 61.1 41.7532C60.4679 40.2485 59.8017 38.7571 59.1095 37.2761C58.9107 36.8496 59.0537 36.7156 59.4559 36.5636C61.6166 35.7333 63.7755 34.8921 65.9198 34.025C66.3595 33.8468 66.5271 33.9338 66.6965 34.3286C67.3303 35.8095 67.984 37.2798 68.6597 38.7443C68.8385 39.1326 68.8046 39.3188 68.3521 39.4819C67.2515 39.8791 66.1701 40.3264 65.0825 40.753L65.0799 40.754Z" fill="#FDFCF8"/>
</g>
<defs>
<clipPath id="clip0_717_6967">
<rect width="96.254" height="64.9689" fill="white" transform="matrix(0.930932 -0.365194 0.406257 0.913759 0 35.1514)"/>
</clipPath>
</defs>
</svg>
