<svg width="32" height="33" viewBox="0 0 32 33" fill="none" xmlns="http://www.w3.org/2000/svg">
<g clip-path="url(#clip0_751_4857)">
<path d="M1.03226 10.7833H0V11.8616H1.03226V10.7833Z" fill="#FFFDF9"/>
<path d="M1.54836 10.2441H1.03223V10.7833H1.54836V10.2441Z" fill="#FFFDF9"/>
<path d="M22.9676 30.1931H22.1934V31.2714H22.9676V30.1931Z" fill="#FFFDF9"/>
<path d="M22.9676 29.3844H22.1934V30.1931H22.9676V29.3844Z" fill="#FFFDF9"/>
<path d="M22.9676 28.306H22.1934V29.3844H22.9676V28.306Z" fill="#FFFDF9"/>
<path d="M22.9676 27.7669H22.1934V28.3061H22.9676V27.7669Z" fill="#FFFDF9"/>
<path d="M22.9676 26.6885H22.1934V27.7669H22.9676V26.6885Z" fill="#FFFDF9"/>
<path d="M22.9676 25.8798H22.1934V26.6886H22.9676V25.8798Z" fill="#FFFDF9"/>
<path d="M22.9676 24.8015H22.1934V25.8798H22.9676V24.8015Z" fill="#FFFDF9"/>
<path d="M22.9676 24.2623H22.1934V24.8015H22.9676V24.2623Z" fill="#FFFDF9"/>
<path d="M22.9676 23.184H22.1934V24.2623H22.9676V23.184Z" fill="#FFFDF9"/>
<path d="M22.9676 22.3752H22.1934V23.184H22.9676V22.3752Z" fill="#FFFDF9"/>
<path d="M22.9676 21.2969H22.1934V22.3753H22.9676V21.2969Z" fill="#FFFDF9"/>
<path d="M22.9676 20.7578H22.1934V21.2969H22.9676V20.7578Z" fill="#FFFDF9"/>
<path d="M22.9676 19.6794H22.1934V20.7578H22.9676V19.6794Z" fill="#FFFDF9"/>
<path d="M22.9676 18.8707H22.1934V19.6795H22.9676V18.8707Z" fill="#FFFDF9"/>
<path d="M22.9676 17.7924H22.1934V18.8707H22.9676V17.7924Z" fill="#FFFDF9"/>
<path d="M22.9676 17.2532H22.1934V17.7924H22.9676V17.2532Z" fill="#FFFDF9"/>
<path d="M22.9676 16.1749H22.1934V17.2533H22.9676V16.1749Z" fill="#FFFDF9"/>
<path d="M22.9676 15.3661H22.1934V16.1749H22.9676V15.3661Z" fill="#FFFDF9"/>
<path d="M22.9676 14.2878H22.1934V15.3662H22.9676V14.2878Z" fill="#FFFDF9"/>
<path d="M22.9676 13.7487H22.1934V14.2878H22.9676V13.7487Z" fill="#FFFDF9"/>
<path d="M22.9676 12.6703H22.1934V13.7487H22.9676V12.6703Z" fill="#FFFDF9"/>
<path d="M22.9676 11.8616H22.1934V12.6703H22.9676V11.8616Z" fill="#FFFDF9"/>
<path d="M22.9676 10.7833H22.1934V11.8616H22.9676V10.7833Z" fill="#FFFDF9"/>
<path d="M22.1936 31.2714H21.4194V31.8106H22.1936V31.2714Z" fill="#FFFDF9"/>
<path d="M22.1936 30.1931H21.4194V31.2714H22.1936V30.1931Z" fill="#FFFDF9"/>
<path d="M22.1936 29.3844H21.4194V30.1931H22.1936V29.3844Z" fill="#FFFDF9"/>
<path d="M22.1936 28.306H21.4194V29.3844H22.1936V28.306Z" fill="#FFFDF9"/>
<path d="M22.1936 27.7669H21.4194V28.3061H22.1936V27.7669Z" fill="#FFFDF9"/>
<path d="M22.1936 26.6885H21.4194V27.7669H22.1936V26.6885Z" fill="#FFFDF9"/>
<path d="M22.1936 25.8798H21.4194V26.6886H22.1936V25.8798Z" fill="#FFFDF9"/>
<path d="M22.1936 24.8015H21.4194V25.8798H22.1936V24.8015Z" fill="#FFFDF9"/>
<path d="M22.1936 24.2623H21.4194V24.8015H22.1936V24.2623Z" fill="#FFFDF9"/>
<path d="M22.1936 23.184H21.4194V24.2623H22.1936V23.184Z" fill="#FFFDF9"/>
<path d="M22.1936 22.3752H21.4194V23.184H22.1936V22.3752Z" fill="#FFFDF9"/>
<path d="M22.1936 21.2969H21.4194V22.3753H22.1936V21.2969Z" fill="#FFFDF9"/>
<path d="M22.1936 20.7578H21.4194V21.2969H22.1936V20.7578Z" fill="#FFFDF9"/>
<path d="M22.1936 19.6794H21.4194V20.7578H22.1936V19.6794Z" fill="#FFFDF9"/>
<path d="M22.1936 18.8707H21.4194V19.6795H22.1936V18.8707Z" fill="#FFFDF9"/>
<path d="M22.1936 17.7924H21.4194V18.8707H22.1936V17.7924Z" fill="#FFFDF9"/>
<path d="M22.1936 17.2532H21.4194V17.7924H22.1936V17.2532Z" fill="#FFFDF9"/>
<path d="M22.1936 16.1749H21.4194V17.2533H22.1936V16.1749Z" fill="#FFFDF9"/>
<path d="M22.1936 15.3661H21.4194V16.1749H22.1936V15.3661Z" fill="#FFFDF9"/>
<path d="M22.1936 14.2878H21.4194V15.3662H22.1936V14.2878Z" fill="#FFFDF9"/>
<path d="M22.1936 13.7487H21.4194V14.2878H22.1936V13.7487Z" fill="#FFFDF9"/>
<path d="M22.1936 12.6703H21.4194V13.7487H22.1936V12.6703Z" fill="#FFFDF9"/>
<path d="M22.1936 11.8616H21.4194V12.6703H22.1936V11.8616Z" fill="#FFFDF9"/>
<path d="M22.1936 10.7833H21.4194V11.8616H22.1936V10.7833Z" fill="#FFFDF9"/>
<path d="M22.1936 10.2441H21.4194V10.7833H22.1936V10.2441Z" fill="#FFFDF9"/>
<path d="M21.4195 31.8106H20.3872V32.8889H21.4195V31.8106Z" fill="#FFFDF9"/>
<path d="M21.4195 31.2714H20.3872V31.8106H21.4195V31.2714Z" fill="#FFFDF9"/>
<path d="M21.4195 30.1931H20.3872V31.2714H21.4195V30.1931Z" fill="#FFFDF9"/>
<path d="M21.4195 29.3844H20.3872V30.1931H21.4195V29.3844Z" fill="#FFFDF9"/>
<path d="M21.4195 28.306H20.3872V29.3844H21.4195V28.306Z" fill="#FFFDF9"/>
<path d="M21.4195 27.7669H20.3872V28.3061H21.4195V27.7669Z" fill="#FFFDF9"/>
<path d="M21.4195 26.6885H20.3872V27.7669H21.4195V26.6885Z" fill="#FFFDF9"/>
<path d="M21.4195 25.8798H20.3872V26.6886H21.4195V25.8798Z" fill="#FFFDF9"/>
<path d="M21.4195 24.8015H20.3872V25.8798H21.4195V24.8015Z" fill="#FFFDF9"/>
<path d="M21.4195 24.2623H20.3872V24.8015H21.4195V24.2623Z" fill="#FFFDF9"/>
<path d="M21.4195 23.184H20.3872V24.2623H21.4195V23.184Z" fill="#FFFDF9"/>
<path d="M21.4195 22.3752H20.3872V23.184H21.4195V22.3752Z" fill="#FFFDF9"/>
<path d="M21.4195 21.2969H20.3872V22.3753H21.4195V21.2969Z" fill="#FFFDF9"/>
<path d="M21.4195 20.7578H20.3872V21.2969H21.4195V20.7578Z" fill="#FFFDF9"/>
<path d="M21.4195 19.6794H20.3872V20.7578H21.4195V19.6794Z" fill="#FFFDF9"/>
<path d="M21.4195 18.8707H20.3872V19.6795H21.4195V18.8707Z" fill="#FFFDF9"/>
<path d="M21.4195 17.7924H20.3872V18.8707H21.4195V17.7924Z" fill="#FFFDF9"/>
<path d="M21.4195 17.2532H20.3872V17.7924H21.4195V17.2532Z" fill="#FFFDF9"/>
<path d="M21.4195 16.1749H20.3872V17.2533H21.4195V16.1749Z" fill="#FFFDF9"/>
<path d="M21.4195 15.3661H20.3872V16.1749H21.4195V15.3661Z" fill="#FFFDF9"/>
<path d="M21.4195 14.2878H20.3872V15.3662H21.4195V14.2878Z" fill="#FFFDF9"/>
<path d="M21.4195 13.7487H20.3872V14.2878H21.4195V13.7487Z" fill="#FFFDF9"/>
<path d="M21.4195 12.6703H20.3872V13.7487H21.4195V12.6703Z" fill="#FFFDF9"/>
<path d="M21.4195 11.8616H20.3872V12.6703H21.4195V11.8616Z" fill="#FFFDF9"/>
<path d="M21.4195 10.7833H20.3872V11.8616H21.4195V10.7833Z" fill="#FFFDF9"/>
<path d="M21.4195 10.2441H20.3872V10.7833H21.4195V10.2441Z" fill="#FFFDF9"/>
<path d="M21.4195 9.16577H20.3872V10.2441H21.4195V9.16577Z" fill="#FFFDF9"/>
<path d="M20.387 31.8106H19.6128V32.8889H20.387V31.8106Z" fill="#FFFDF9"/>
<path d="M20.387 31.2714H19.6128V31.8106H20.387V31.2714Z" fill="#FFFDF9"/>
<path d="M20.387 30.1931H19.6128V31.2714H20.387V30.1931Z" fill="#FFFDF9"/>
<path d="M20.387 29.3844H19.6128V30.1931H20.387V29.3844Z" fill="#FFFDF9"/>
<path d="M20.387 28.306H19.6128V29.3844H20.387V28.306Z" fill="#FFFDF9"/>
<path d="M20.387 27.7669H19.6128V28.3061H20.387V27.7669Z" fill="#FFFDF9"/>
<path d="M20.387 26.6885H19.6128V27.7669H20.387V26.6885Z" fill="#FFFDF9"/>
<path d="M20.387 25.8798H19.6128V26.6886H20.387V25.8798Z" fill="#FFFDF9"/>
<path d="M20.387 24.8015H19.6128V25.8798H20.387V24.8015Z" fill="#FFFDF9"/>
<path d="M20.387 24.2623H19.6128V24.8015H20.387V24.2623Z" fill="#FFFDF9"/>
<path d="M20.387 23.184H19.6128V24.2623H20.387V23.184Z" fill="#FFFDF9"/>
<path d="M20.387 22.3752H19.6128V23.184H20.387V22.3752Z" fill="#FFFDF9"/>
<path d="M20.387 21.2969H19.6128V22.3753H20.387V21.2969Z" fill="#FFFDF9"/>
<path d="M20.387 20.7578H19.6128V21.2969H20.387V20.7578Z" fill="#FFFDF9"/>
<path d="M20.387 19.6794H19.6128V20.7578H20.387V19.6794Z" fill="#FFFDF9"/>
<path d="M20.387 18.8707H19.6128V19.6795H20.387V18.8707Z" fill="#FFFDF9"/>
<path d="M20.387 17.7924H19.6128V18.8707H20.387V17.7924Z" fill="#FFFDF9"/>
<path d="M20.387 17.2532H19.6128V17.7924H20.387V17.2532Z" fill="#FFFDF9"/>
<path d="M20.387 16.1749H19.6128V17.2533H20.387V16.1749Z" fill="#FFFDF9"/>
<path d="M20.387 15.3661H19.6128V16.1749H20.387V15.3661Z" fill="#FFFDF9"/>
<path d="M20.387 14.2878H19.6128V15.3662H20.387V14.2878Z" fill="#FFFDF9"/>
<path d="M20.387 13.7487H19.6128V14.2878H20.387V13.7487Z" fill="#FFFDF9"/>
<path d="M20.387 12.6703H19.6128V13.7487H20.387V12.6703Z" fill="#FFFDF9"/>
<path d="M20.387 11.8616H19.6128V12.6703H20.387V11.8616Z" fill="#FFFDF9"/>
<path d="M20.387 10.7833H19.6128V11.8616H20.387V10.7833Z" fill="#FFFDF9"/>
<path d="M20.387 10.2441H19.6128V10.7833H20.387V10.2441Z" fill="#FFFDF9"/>
<path d="M20.387 9.16577H19.6128V10.2441H20.387V9.16577Z" fill="#FFFDF9"/>
<path d="M19.6131 31.8106H18.8389V32.8889H19.6131V31.8106Z" fill="#FFFDF9"/>
<path d="M19.6131 31.2714H18.8389V31.8106H19.6131V31.2714Z" fill="#FFFDF9"/>
<path d="M19.6131 30.1931H18.8389V31.2714H19.6131V30.1931Z" fill="#FFFDF9"/>
<path d="M19.6131 29.3844H18.8389V30.1931H19.6131V29.3844Z" fill="#FFFDF9"/>
<path d="M19.6131 28.306H18.8389V29.3844H19.6131V28.306Z" fill="#FFFDF9"/>
<path d="M19.6131 27.7669H18.8389V28.3061H19.6131V27.7669Z" fill="#FFFDF9"/>
<path d="M19.6131 13.7487H18.8389V14.2878H19.6131V13.7487Z" fill="#FFFDF9"/>
<path d="M19.6131 12.6703H18.8389V13.7487H19.6131V12.6703Z" fill="#FFFDF9"/>
<path d="M19.6131 11.8616H18.8389V12.6703H19.6131V11.8616Z" fill="#FFFDF9"/>
<path d="M19.6131 10.7833H18.8389V11.8616H19.6131V10.7833Z" fill="#FFFDF9"/>
<path d="M19.6131 10.2441H18.8389V10.7833H19.6131V10.2441Z" fill="#FFFDF9"/>
<path d="M19.6131 9.16577H18.8389V10.2441H19.6131V9.16577Z" fill="#FFFDF9"/>
<path d="M18.8389 31.8106H17.8066V32.8889H18.8389V31.8106Z" fill="#FFFDF9"/>
<path d="M18.8389 31.2714H17.8066V31.8106H18.8389V31.2714Z" fill="#FFFDF9"/>
<path d="M18.8389 30.1931H17.8066V31.2714H18.8389V30.1931Z" fill="#FFFDF9"/>
<path d="M18.8389 29.3844H17.8066V30.1931H18.8389V29.3844Z" fill="#FFFDF9"/>
<path d="M18.8389 28.306H17.8066V29.3844H18.8389V28.306Z" fill="#FFFDF9"/>
<path d="M18.8389 12.6703H17.8066V13.7487H18.8389V12.6703Z" fill="#FFFDF9"/>
<path d="M18.8389 11.8616H17.8066V12.6703H18.8389V11.8616Z" fill="#FFFDF9"/>
<path d="M18.8389 10.7833H17.8066V11.8616H18.8389V10.7833Z" fill="#FFFDF9"/>
<path d="M18.8389 10.2441H17.8066V10.7833H18.8389V10.2441Z" fill="#FFFDF9"/>
<path d="M18.8389 9.16577H17.8066V10.2441H18.8389V9.16577Z" fill="#FFFDF9"/>
<path d="M17.8064 31.8106H17.0322V32.8889H17.8064V31.8106Z" fill="#FFFDF9"/>
<path d="M17.8064 31.2714H17.0322V31.8106H17.8064V31.2714Z" fill="#FFFDF9"/>
<path d="M17.8064 30.1931H17.0322V31.2714H17.8064V30.1931Z" fill="#FFFDF9"/>
<path d="M17.8064 29.3844H17.0322V30.1931H17.8064V29.3844Z" fill="#FFFDF9"/>
<path d="M17.8064 24.8015H17.0322V25.8798H17.8064V24.8015Z" fill="#FFFDF9"/>
<path d="M17.8064 24.2623H17.0322V24.8015H17.8064V24.2623Z" fill="#FFFDF9"/>
<path d="M17.8064 23.184H17.0322V24.2623H17.8064V23.184Z" fill="#FFFDF9"/>
<path d="M17.8064 22.3752H17.0322V23.184H17.8064V22.3752Z" fill="#FFFDF9"/>
<path d="M17.8064 21.2969H17.0322V22.3753H17.8064V21.2969Z" fill="#FFFDF9"/>
<path d="M17.8064 20.7578H17.0322V21.2969H17.8064V20.7578Z" fill="#FFFDF9"/>
<path d="M17.8064 19.6794H17.0322V20.7578H17.8064V19.6794Z" fill="#FFFDF9"/>
<path d="M17.8064 18.8707H17.0322V19.6795H17.8064V18.8707Z" fill="#FFFDF9"/>
<path d="M17.8064 17.7924H17.0322V18.8707H17.8064V17.7924Z" fill="#FFFDF9"/>
<path d="M17.8064 17.2532H17.0322V17.7924H17.8064V17.2532Z" fill="#FFFDF9"/>
<path d="M17.8064 16.1749H17.0322V17.2533H17.8064V16.1749Z" fill="#FFFDF9"/>
<path d="M17.8064 11.8616H17.0322V12.6703H17.8064V11.8616Z" fill="#FFFDF9"/>
<path d="M17.8064 10.7833H17.0322V11.8616H17.8064V10.7833Z" fill="#FFFDF9"/>
<path d="M17.8064 10.2441H17.0322V10.7833H17.8064V10.2441Z" fill="#FFFDF9"/>
<path d="M17.8064 9.16577H17.0322V10.2441H17.8064V9.16577Z" fill="#FFFDF9"/>
<path d="M17.0325 31.8106H16.2583V32.8889H17.0325V31.8106Z" fill="#FFFDF9"/>
<path d="M17.0325 31.2714H16.2583V31.8106H17.0325V31.2714Z" fill="#FFFDF9"/>
<path d="M17.0325 30.1931H16.2583V31.2714H17.0325V30.1931Z" fill="#FFFDF9"/>
<path d="M17.0325 29.3844H16.2583V30.1931H17.0325V29.3844Z" fill="#FFFDF9"/>
<path d="M17.0325 25.8798H16.2583V26.6886H17.0325V25.8798Z" fill="#FFFDF9"/>
<path d="M17.0325 24.8015H16.2583V25.8798H17.0325V24.8015Z" fill="#FFFDF9"/>
<path d="M17.0325 24.2623H16.2583V24.8015H17.0325V24.2623Z" fill="#FFFDF9"/>
<path d="M17.0325 23.184H16.2583V24.2623H17.0325V23.184Z" fill="#FFFDF9"/>
<path d="M17.0325 22.3752H16.2583V23.184H17.0325V22.3752Z" fill="#FFFDF9"/>
<path d="M17.0325 21.2969H16.2583V22.3753H17.0325V21.2969Z" fill="#FFFDF9"/>
<path d="M17.0325 20.7578H16.2583V21.2969H17.0325V20.7578Z" fill="#FFFDF9"/>
<path d="M17.0325 19.6794H16.2583V20.7578H17.0325V19.6794Z" fill="#FFFDF9"/>
<path d="M17.0325 18.8707H16.2583V19.6795H17.0325V18.8707Z" fill="#FFFDF9"/>
<path d="M17.0325 17.7924H16.2583V18.8707H17.0325V17.7924Z" fill="#FFFDF9"/>
<path d="M17.0325 17.2532H16.2583V17.7924H17.0325V17.2532Z" fill="#FFFDF9"/>
<path d="M17.0325 16.1749H16.2583V17.2533H17.0325V16.1749Z" fill="#FFFDF9"/>
<path d="M17.0325 15.3661H16.2583V16.1749H17.0325V15.3661Z" fill="#FFFDF9"/>
<path d="M17.0325 11.8616H16.2583V12.6703H17.0325V11.8616Z" fill="#FFFDF9"/>
<path d="M17.0325 10.7833H16.2583V11.8616H17.0325V10.7833Z" fill="#FFFDF9"/>
<path d="M17.0325 10.2441H16.2583V10.7833H17.0325V10.2441Z" fill="#FFFDF9"/>
<path d="M17.0325 9.16577H16.2583V10.2441H17.0325V9.16577Z" fill="#FFFDF9"/>
<path d="M16.2581 31.8106H15.4839V32.8889H16.2581V31.8106Z" fill="#FFFDF9"/>
<path d="M16.2581 31.2714H15.4839V31.8106H16.2581V31.2714Z" fill="#FFFDF9"/>
<path d="M16.2581 30.1931H15.4839V31.2714H16.2581V30.1931Z" fill="#FFFDF9"/>
<path d="M16.2581 29.3844H15.4839V30.1931H16.2581V29.3844Z" fill="#FFFDF9"/>
<path d="M16.2581 26.6885H15.4839V27.7669H16.2581V26.6885Z" fill="#FFFDF9"/>
<path d="M16.2581 25.8798H15.4839V26.6886H16.2581V25.8798Z" fill="#FFFDF9"/>
<path d="M16.2581 24.8015H15.4839V25.8798H16.2581V24.8015Z" fill="#FFFDF9"/>
<path d="M16.2581 24.2623H15.4839V24.8015H16.2581V24.2623Z" fill="#FFFDF9"/>
<path d="M16.2581 23.184H15.4839V24.2623H16.2581V23.184Z" fill="#FFFDF9"/>
<path d="M16.2581 22.3752H15.4839V23.184H16.2581V22.3752Z" fill="#FFFDF9"/>
<path d="M16.2581 21.2969H15.4839V22.3753H16.2581V21.2969Z" fill="#FFFDF9"/>
<path d="M16.2581 20.7578H15.4839V21.2969H16.2581V20.7578Z" fill="#FFFDF9"/>
<path d="M16.2581 19.6794H15.4839V20.7578H16.2581V19.6794Z" fill="#FFFDF9"/>
<path d="M16.2581 18.8707H15.4839V19.6795H16.2581V18.8707Z" fill="#FFFDF9"/>
<path d="M16.2581 17.7924H15.4839V18.8707H16.2581V17.7924Z" fill="#FFFDF9"/>
<path d="M16.2581 17.2532H15.4839V17.7924H16.2581V17.2532Z" fill="#FFFDF9"/>
<path d="M16.2581 16.1749H15.4839V17.2533H16.2581V16.1749Z" fill="#FFFDF9"/>
<path d="M16.2581 15.3661H15.4839V16.1749H16.2581V15.3661Z" fill="#FFFDF9"/>
<path d="M16.2581 14.2878H15.4839V15.3662H16.2581V14.2878Z" fill="#FFFDF9"/>
<path d="M16.2581 11.8616H15.4839V12.6703H16.2581V11.8616Z" fill="#FFFDF9"/>
<path d="M16.2581 10.7833H15.4839V11.8616H16.2581V10.7833Z" fill="#FFFDF9"/>
<path d="M16.2581 10.2441H15.4839V10.7833H16.2581V10.2441Z" fill="#FFFDF9"/>
<path d="M16.2581 9.16577H15.4839V10.2441H16.2581V9.16577Z" fill="#FFFDF9"/>
<path d="M15.4839 31.8106H14.4517V32.8889H15.4839V31.8106Z" fill="#FFFDF9"/>
<path d="M15.4839 31.2714H14.4517V31.8106H15.4839V31.2714Z" fill="#FFFDF9"/>
<path d="M15.4839 30.1931H14.4517V31.2714H15.4839V30.1931Z" fill="#FFFDF9"/>
<path d="M15.4839 29.3844H14.4517V30.1931H15.4839V29.3844Z" fill="#FFFDF9"/>
<path d="M15.4839 26.6885H14.4517V27.7669H15.4839V26.6885Z" fill="#FFFDF9"/>
<path d="M15.4839 25.8798H14.4517V26.6886H15.4839V25.8798Z" fill="#FFFDF9"/>
<path d="M15.4839 24.8015H14.4517V25.8798H15.4839V24.8015Z" fill="#FFFDF9"/>
<path d="M15.4839 24.2623H14.4517V24.8015H15.4839V24.2623Z" fill="#FFFDF9"/>
<path d="M15.4839 17.2532H14.4517V17.7924H15.4839V17.2532Z" fill="#FFFDF9"/>
<path d="M15.4839 16.1749H14.4517V17.2533H15.4839V16.1749Z" fill="#FFFDF9"/>
<path d="M15.4839 15.3661H14.4517V16.1749H15.4839V15.3661Z" fill="#FFFDF9"/>
<path d="M15.4839 14.2878H14.4517V15.3662H15.4839V14.2878Z" fill="#FFFDF9"/>
<path d="M15.4839 11.8616H14.4517V12.6703H15.4839V11.8616Z" fill="#FFFDF9"/>
<path d="M15.4839 10.7833H14.4517V11.8616H15.4839V10.7833Z" fill="#FFFDF9"/>
<path d="M15.4839 10.2441H14.4517V10.7833H15.4839V10.2441Z" fill="#FFFDF9"/>
<path d="M15.4839 9.16577H14.4517V10.2441H15.4839V9.16577Z" fill="#FFFDF9"/>
<path d="M14.4514 31.8106H13.6772V32.8889H14.4514V31.8106Z" fill="#FFFDF9"/>
<path d="M14.4514 31.2714H13.6772V31.8106H14.4514V31.2714Z" fill="#FFFDF9"/>
<path d="M14.4514 30.1931H13.6772V31.2714H14.4514V30.1931Z" fill="#FFFDF9"/>
<path d="M14.4514 29.3844H13.6772V30.1931H14.4514V29.3844Z" fill="#FFFDF9"/>
<path d="M14.4514 26.6885H13.6772V27.7669H14.4514V26.6885Z" fill="#FFFDF9"/>
<path d="M14.4514 25.8798H13.6772V26.6886H14.4514V25.8798Z" fill="#FFFDF9"/>
<path d="M14.4514 24.8015H13.6772V25.8798H14.4514V24.8015Z" fill="#FFFDF9"/>
<path d="M14.4514 16.1749H13.6772V17.2533H14.4514V16.1749Z" fill="#FFFDF9"/>
<path d="M14.4514 15.3661H13.6772V16.1749H14.4514V15.3661Z" fill="#FFFDF9"/>
<path d="M14.4514 14.2878H13.6772V15.3662H14.4514V14.2878Z" fill="#FFFDF9"/>
<path d="M14.4514 11.8616H13.6772V12.6703H14.4514V11.8616Z" fill="#FFFDF9"/>
<path d="M14.4514 10.7833H13.6772V11.8616H14.4514V10.7833Z" fill="#FFFDF9"/>
<path d="M14.4514 10.2441H13.6772V10.7833H14.4514V10.2441Z" fill="#FFFDF9"/>
<path d="M14.4514 9.16577H13.6772V10.2441H14.4514V9.16577Z" fill="#FFFDF9"/>
<path d="M13.6775 31.8106H12.9033V32.8889H13.6775V31.8106Z" fill="#FFFDF9"/>
<path d="M13.6775 31.2714H12.9033V31.8106H13.6775V31.2714Z" fill="#FFFDF9"/>
<path d="M13.6775 30.1931H12.9033V31.2714H13.6775V30.1931Z" fill="#FFFDF9"/>
<path d="M13.6775 29.3844H12.9033V30.1931H13.6775V29.3844Z" fill="#FFFDF9"/>
<path d="M13.6775 26.6885H12.9033V27.7669H13.6775V26.6885Z" fill="#FFFDF9"/>
<path d="M13.6775 25.8798H12.9033V26.6886H13.6775V25.8798Z" fill="#FFFDF9"/>
<path d="M13.6775 24.8015H12.9033V25.8798H13.6775V24.8015Z" fill="#FFFDF9"/>
<path d="M13.6775 21.2969H12.9033V22.3753H13.6775V21.2969Z" fill="#FFFDF9"/>
<path d="M13.6775 20.7578H12.9033V21.2969H13.6775V20.7578Z" fill="#FFFDF9"/>
<path d="M13.6775 19.6794H12.9033V20.7578H13.6775V19.6794Z" fill="#FFFDF9"/>
<path d="M13.6775 16.1749H12.9033V17.2533H13.6775V16.1749Z" fill="#FFFDF9"/>
<path d="M13.6775 15.3661H12.9033V16.1749H13.6775V15.3661Z" fill="#FFFDF9"/>
<path d="M13.6775 14.2878H12.9033V15.3662H13.6775V14.2878Z" fill="#FFFDF9"/>
<path d="M13.6775 11.8616H12.9033V12.6703H13.6775V11.8616Z" fill="#FFFDF9"/>
<path d="M13.6775 10.7833H12.9033V11.8616H13.6775V10.7833Z" fill="#FFFDF9"/>
<path d="M13.6775 10.2441H12.9033V10.7833H13.6775V10.2441Z" fill="#FFFDF9"/>
<path d="M13.6775 9.16577H12.9033V10.2441H13.6775V9.16577Z" fill="#FFFDF9"/>
<path d="M12.9034 31.8106H11.8711V32.8889H12.9034V31.8106Z" fill="#FFFDF9"/>
<path d="M12.9034 31.2714H11.8711V31.8106H12.9034V31.2714Z" fill="#FFFDF9"/>
<path d="M12.9034 30.1931H11.8711V31.2714H12.9034V30.1931Z" fill="#FFFDF9"/>
<path d="M12.9034 29.3844H11.8711V30.1931H12.9034V29.3844Z" fill="#FFFDF9"/>
<path d="M12.9034 26.6885H11.8711V27.7669H12.9034V26.6885Z" fill="#FFFDF9"/>
<path d="M12.9034 25.8798H11.8711V26.6886H12.9034V25.8798Z" fill="#FFFDF9"/>
<path d="M12.9034 24.8015H11.8711V25.8798H12.9034V24.8015Z" fill="#FFFDF9"/>
<path d="M12.9034 22.3752H11.8711V23.184H12.9034V22.3752Z" fill="#FFFDF9"/>
<path d="M12.9034 21.2969H11.8711V22.3753H12.9034V21.2969Z" fill="#FFFDF9"/>
<path d="M12.9034 20.7578H11.8711V21.2969H12.9034V20.7578Z" fill="#FFFDF9"/>
<path d="M12.9034 19.6794H11.8711V20.7578H12.9034V19.6794Z" fill="#FFFDF9"/>
<path d="M12.9034 18.8707H11.8711V19.6795H12.9034V18.8707Z" fill="#FFFDF9"/>
<path d="M12.9034 16.1749H11.8711V17.2533H12.9034V16.1749Z" fill="#FFFDF9"/>
<path d="M12.9034 15.3661H11.8711V16.1749H12.9034V15.3661Z" fill="#FFFDF9"/>
<path d="M12.9034 14.2878H11.8711V15.3662H12.9034V14.2878Z" fill="#FFFDF9"/>
<path d="M12.9034 11.8616H11.8711V12.6703H12.9034V11.8616Z" fill="#FFFDF9"/>
<path d="M12.9034 10.7833H11.8711V11.8616H12.9034V10.7833Z" fill="#FFFDF9"/>
<path d="M12.9034 10.2441H11.8711V10.7833H12.9034V10.2441Z" fill="#FFFDF9"/>
<path d="M12.9034 9.16577H11.8711V10.2441H12.9034V9.16577Z" fill="#FFFDF9"/>
<path d="M11.8709 31.8106H11.0967V32.8889H11.8709V31.8106Z" fill="#FFFDF9"/>
<path d="M11.8709 31.2714H11.0967V31.8106H11.8709V31.2714Z" fill="#FFFDF9"/>
<path d="M11.8709 30.1931H11.0967V31.2714H11.8709V30.1931Z" fill="#FFFDF9"/>
<path d="M11.8709 29.3844H11.0967V30.1931H11.8709V29.3844Z" fill="#FFFDF9"/>
<path d="M11.8709 26.6885H11.0967V27.7669H11.8709V26.6885Z" fill="#FFFDF9"/>
<path d="M11.8709 25.8798H11.0967V26.6886H11.8709V25.8798Z" fill="#FFFDF9"/>
<path d="M11.8709 24.8015H11.0967V25.8798H11.8709V24.8015Z" fill="#FFFDF9"/>
<path d="M11.8709 22.3752H11.0967V23.184H11.8709V22.3752Z" fill="#FFFDF9"/>
<path d="M11.8709 21.2969H11.0967V22.3753H11.8709V21.2969Z" fill="#FFFDF9"/>
<path d="M11.8709 20.7578H11.0967V21.2969H11.8709V20.7578Z" fill="#FFFDF9"/>
<path d="M11.8709 19.6794H11.0967V20.7578H11.8709V19.6794Z" fill="#FFFDF9"/>
<path d="M11.8709 18.8707H11.0967V19.6795H11.8709V18.8707Z" fill="#FFFDF9"/>
<path d="M11.8709 16.1749H11.0967V17.2533H11.8709V16.1749Z" fill="#FFFDF9"/>
<path d="M11.8709 15.3661H11.0967V16.1749H11.8709V15.3661Z" fill="#FFFDF9"/>
<path d="M11.8709 14.2878H11.0967V15.3662H11.8709V14.2878Z" fill="#FFFDF9"/>
<path d="M11.8709 11.8616H11.0967V12.6703H11.8709V11.8616Z" fill="#FFFDF9"/>
<path d="M11.8709 10.7833H11.0967V11.8616H11.8709V10.7833Z" fill="#FFFDF9"/>
<path d="M11.8709 10.2441H11.0967V10.7833H11.8709V10.2441Z" fill="#FFFDF9"/>
<path d="M11.8709 9.16577H11.0967V10.2441H11.8709V9.16577Z" fill="#FFFDF9"/>
<path d="M11.0969 31.8106H10.3228V32.8889H11.0969V31.8106Z" fill="#FFFDF9"/>
<path d="M11.0969 31.2714H10.3228V31.8106H11.0969V31.2714Z" fill="#FFFDF9"/>
<path d="M11.0969 30.1931H10.3228V31.2714H11.0969V30.1931Z" fill="#FFFDF9"/>
<path d="M11.0969 29.3844H10.3228V30.1931H11.0969V29.3844Z" fill="#FFFDF9"/>
<path d="M11.0969 26.6885H10.3228V27.7669H11.0969V26.6885Z" fill="#FFFDF9"/>
<path d="M11.0969 25.8798H10.3228V26.6886H11.0969V25.8798Z" fill="#FFFDF9"/>
<path d="M11.0969 24.8015H10.3228V25.8798H11.0969V24.8015Z" fill="#FFFDF9"/>
<path d="M11.0969 22.3752H10.3228V23.184H11.0969V22.3752Z" fill="#FFFDF9"/>
<path d="M11.0969 21.2969H10.3228V22.3753H11.0969V21.2969Z" fill="#FFFDF9"/>
<path d="M11.0969 20.7578H10.3228V21.2969H11.0969V20.7578Z" fill="#FFFDF9"/>
<path d="M11.0969 19.6794H10.3228V20.7578H11.0969V19.6794Z" fill="#FFFDF9"/>
<path d="M11.0969 18.8707H10.3228V19.6795H11.0969V18.8707Z" fill="#FFFDF9"/>
<path d="M11.0969 16.1749H10.3228V17.2533H11.0969V16.1749Z" fill="#FFFDF9"/>
<path d="M11.0969 15.3661H10.3228V16.1749H11.0969V15.3661Z" fill="#FFFDF9"/>
<path d="M11.0969 14.2878H10.3228V15.3662H11.0969V14.2878Z" fill="#FFFDF9"/>
<path d="M11.0969 11.8616H10.3228V12.6703H11.0969V11.8616Z" fill="#FFFDF9"/>
<path d="M11.0969 10.7833H10.3228V11.8616H11.0969V10.7833Z" fill="#FFFDF9"/>
<path d="M11.0969 10.2441H10.3228V10.7833H11.0969V10.2441Z" fill="#FFFDF9"/>
<path d="M11.0969 9.16577H10.3228V10.2441H11.0969V9.16577Z" fill="#FFFDF9"/>
<path d="M10.3225 31.8106H9.54834V32.8889H10.3225V31.8106Z" fill="#FFFDF9"/>
<path d="M10.3225 31.2714H9.54834V31.8106H10.3225V31.2714Z" fill="#FFFDF9"/>
<path d="M10.3225 30.1931H9.54834V31.2714H10.3225V30.1931Z" fill="#FFFDF9"/>
<path d="M10.3225 29.3844H9.54834V30.1931H10.3225V29.3844Z" fill="#FFFDF9"/>
<path d="M10.3225 26.6885H9.54834V27.7669H10.3225V26.6885Z" fill="#FFFDF9"/>
<path d="M10.3225 25.8798H9.54834V26.6886H10.3225V25.8798Z" fill="#FFFDF9"/>
<path d="M10.3225 24.8015H9.54834V25.8798H10.3225V24.8015Z" fill="#FFFDF9"/>
<path d="M10.3225 21.2969H9.54834V22.3753H10.3225V21.2969Z" fill="#FFFDF9"/>
<path d="M10.3225 20.7578H9.54834V21.2969H10.3225V20.7578Z" fill="#FFFDF9"/>
<path d="M10.3225 19.6794H9.54834V20.7578H10.3225V19.6794Z" fill="#FFFDF9"/>
<path d="M10.3225 16.1749H9.54834V17.2533H10.3225V16.1749Z" fill="#FFFDF9"/>
<path d="M10.3225 15.3661H9.54834V16.1749H10.3225V15.3661Z" fill="#FFFDF9"/>
<path d="M10.3225 14.2878H9.54834V15.3662H10.3225V14.2878Z" fill="#FFFDF9"/>
<path d="M10.3225 11.8616H9.54834V12.6703H10.3225V11.8616Z" fill="#FFFDF9"/>
<path d="M10.3225 10.7833H9.54834V11.8616H10.3225V10.7833Z" fill="#FFFDF9"/>
<path d="M10.3225 10.2441H9.54834V10.7833H10.3225V10.2441Z" fill="#FFFDF9"/>
<path d="M10.3225 9.16577H9.54834V10.2441H10.3225V9.16577Z" fill="#FFFDF9"/>
<path d="M9.54837 31.8106H8.51611V32.8889H9.54837V31.8106Z" fill="#FFFDF9"/>
<path d="M9.54837 31.2714H8.51611V31.8106H9.54837V31.2714Z" fill="#FFFDF9"/>
<path d="M9.54837 30.1931H8.51611V31.2714H9.54837V30.1931Z" fill="#FFFDF9"/>
<path d="M9.54837 29.3844H8.51611V30.1931H9.54837V29.3844Z" fill="#FFFDF9"/>
<path d="M9.54837 26.6885H8.51611V27.7669H9.54837V26.6885Z" fill="#FFFDF9"/>
<path d="M9.54837 25.8798H8.51611V26.6886H9.54837V25.8798Z" fill="#FFFDF9"/>
<path d="M9.54837 24.8015H8.51611V25.8798H9.54837V24.8015Z" fill="#FFFDF9"/>
<path d="M9.54837 16.1749H8.51611V17.2533H9.54837V16.1749Z" fill="#FFFDF9"/>
<path d="M9.54837 15.3661H8.51611V16.1749H9.54837V15.3661Z" fill="#FFFDF9"/>
<path d="M9.54837 14.2878H8.51611V15.3662H9.54837V14.2878Z" fill="#FFFDF9"/>
<path d="M9.54837 11.8616H8.51611V12.6703H9.54837V11.8616Z" fill="#FFFDF9"/>
<path d="M9.54837 10.7833H8.51611V11.8616H9.54837V10.7833Z" fill="#FFFDF9"/>
<path d="M9.54837 10.2441H8.51611V10.7833H9.54837V10.2441Z" fill="#FFFDF9"/>
<path d="M9.54837 9.16577H8.51611V10.2441H9.54837V9.16577Z" fill="#FFFDF9"/>
<path d="M8.51589 31.8106H7.7417V32.8889H8.51589V31.8106Z" fill="#FFFDF9"/>
<path d="M8.51589 31.2714H7.7417V31.8106H8.51589V31.2714Z" fill="#FFFDF9"/>
<path d="M8.51589 30.1931H7.7417V31.2714H8.51589V30.1931Z" fill="#FFFDF9"/>
<path d="M8.51589 29.3844H7.7417V30.1931H8.51589V29.3844Z" fill="#FFFDF9"/>
<path d="M8.51589 26.6885H7.7417V27.7669H8.51589V26.6885Z" fill="#FFFDF9"/>
<path d="M8.51589 25.8798H7.7417V26.6886H8.51589V25.8798Z" fill="#FFFDF9"/>
<path d="M8.51589 24.8015H7.7417V25.8798H8.51589V24.8015Z" fill="#FFFDF9"/>
<path d="M8.51589 24.2623H7.7417V24.8015H8.51589V24.2623Z" fill="#FFFDF9"/>
<path d="M8.51589 17.2532H7.7417V17.7924H8.51589V17.2532Z" fill="#FFFDF9"/>
<path d="M8.51589 16.1749H7.7417V17.2533H8.51589V16.1749Z" fill="#FFFDF9"/>
<path d="M8.51589 15.3661H7.7417V16.1749H8.51589V15.3661Z" fill="#FFFDF9"/>
<path d="M8.51589 14.2878H7.7417V15.3662H8.51589V14.2878Z" fill="#FFFDF9"/>
<path d="M8.51589 11.8616H7.7417V12.6703H8.51589V11.8616Z" fill="#FFFDF9"/>
<path d="M8.51589 10.7833H7.7417V11.8616H8.51589V10.7833Z" fill="#FFFDF9"/>
<path d="M8.51589 10.2441H7.7417V10.7833H8.51589V10.2441Z" fill="#FFFDF9"/>
<path d="M8.51589 9.16577H7.7417V10.2441H8.51589V9.16577Z" fill="#FFFDF9"/>
<path d="M7.74197 31.8106H6.96777V32.8889H7.74197V31.8106Z" fill="#FFFDF9"/>
<path d="M7.74197 31.2714H6.96777V31.8106H7.74197V31.2714Z" fill="#FFFDF9"/>
<path d="M7.74197 30.1931H6.96777V31.2714H7.74197V30.1931Z" fill="#FFFDF9"/>
<path d="M7.74197 29.3844H6.96777V30.1931H7.74197V29.3844Z" fill="#FFFDF9"/>
<path d="M7.74197 26.6885H6.96777V27.7669H7.74197V26.6885Z" fill="#FFFDF9"/>
<path d="M7.74197 25.8798H6.96777V26.6886H7.74197V25.8798Z" fill="#FFFDF9"/>
<path d="M7.74197 24.8015H6.96777V25.8798H7.74197V24.8015Z" fill="#FFFDF9"/>
<path d="M7.74197 24.2623H6.96777V24.8015H7.74197V24.2623Z" fill="#FFFDF9"/>
<path d="M7.74197 23.184H6.96777V24.2623H7.74197V23.184Z" fill="#FFFDF9"/>
<path d="M7.74197 22.3752H6.96777V23.184H7.74197V22.3752Z" fill="#FFFDF9"/>
<path d="M7.74197 21.2969H6.96777V22.3753H7.74197V21.2969Z" fill="#FFFDF9"/>
<path d="M7.74197 20.7578H6.96777V21.2969H7.74197V20.7578Z" fill="#FFFDF9"/>
<path d="M7.74197 19.6794H6.96777V20.7578H7.74197V19.6794Z" fill="#FFFDF9"/>
<path d="M7.74197 18.8707H6.96777V19.6795H7.74197V18.8707Z" fill="#FFFDF9"/>
<path d="M7.74197 17.7924H6.96777V18.8707H7.74197V17.7924Z" fill="#FFFDF9"/>
<path d="M7.74197 17.2532H6.96777V17.7924H7.74197V17.2532Z" fill="#FFFDF9"/>
<path d="M7.74197 16.1749H6.96777V17.2533H7.74197V16.1749Z" fill="#FFFDF9"/>
<path d="M7.74197 15.3661H6.96777V16.1749H7.74197V15.3661Z" fill="#FFFDF9"/>
<path d="M7.74197 14.2878H6.96777V15.3662H7.74197V14.2878Z" fill="#FFFDF9"/>
<path d="M7.74197 11.8616H6.96777V12.6703H7.74197V11.8616Z" fill="#FFFDF9"/>
<path d="M7.74197 10.7833H6.96777V11.8616H7.74197V10.7833Z" fill="#FFFDF9"/>
<path d="M7.74197 10.2441H6.96777V10.7833H7.74197V10.2441Z" fill="#FFFDF9"/>
<path d="M7.74197 9.16577H6.96777V10.2441H7.74197V9.16577Z" fill="#FFFDF9"/>
<path d="M6.9678 31.8106H5.93555V32.8889H6.9678V31.8106Z" fill="#FFFDF9"/>
<path d="M6.9678 31.2714H5.93555V31.8106H6.9678V31.2714Z" fill="#FFFDF9"/>
<path d="M6.9678 30.1931H5.93555V31.2714H6.9678V30.1931Z" fill="#FFFDF9"/>
<path d="M6.9678 29.3844H5.93555V30.1931H6.9678V29.3844Z" fill="#FFFDF9"/>
<path d="M6.9678 25.8798H5.93555V26.6886H6.9678V25.8798Z" fill="#FFFDF9"/>
<path d="M6.9678 24.8015H5.93555V25.8798H6.9678V24.8015Z" fill="#FFFDF9"/>
<path d="M6.9678 24.2623H5.93555V24.8015H6.9678V24.2623Z" fill="#FFFDF9"/>
<path d="M6.9678 23.184H5.93555V24.2623H6.9678V23.184Z" fill="#FFFDF9"/>
<path d="M6.9678 22.3752H5.93555V23.184H6.9678V22.3752Z" fill="#FFFDF9"/>
<path d="M6.9678 21.2969H5.93555V22.3753H6.9678V21.2969Z" fill="#FFFDF9"/>
<path d="M6.9678 20.7578H5.93555V21.2969H6.9678V20.7578Z" fill="#FFFDF9"/>
<path d="M6.9678 19.6794H5.93555V20.7578H6.9678V19.6794Z" fill="#FFFDF9"/>
<path d="M6.9678 18.8707H5.93555V19.6795H6.9678V18.8707Z" fill="#FFFDF9"/>
<path d="M6.9678 17.7924H5.93555V18.8707H6.9678V17.7924Z" fill="#FFFDF9"/>
<path d="M6.9678 17.2532H5.93555V17.7924H6.9678V17.2532Z" fill="#FFFDF9"/>
<path d="M6.9678 16.1749H5.93555V17.2533H6.9678V16.1749Z" fill="#FFFDF9"/>
<path d="M6.9678 15.3661H5.93555V16.1749H6.9678V15.3661Z" fill="#FFFDF9"/>
<path d="M6.9678 11.8616H5.93555V12.6703H6.9678V11.8616Z" fill="#FFFDF9"/>
<path d="M6.9678 10.7833H5.93555V11.8616H6.9678V10.7833Z" fill="#FFFDF9"/>
<path d="M6.9678 10.2441H5.93555V10.7833H6.9678V10.2441Z" fill="#FFFDF9"/>
<path d="M6.9678 9.16577H5.93555V10.2441H6.9678V9.16577Z" fill="#FFFDF9"/>
<path d="M5.93533 31.8106H5.16113V32.8889H5.93533V31.8106Z" fill="#FFFDF9"/>
<path d="M5.93533 31.2714H5.16113V31.8106H5.93533V31.2714Z" fill="#FFFDF9"/>
<path d="M5.93533 30.1931H5.16113V31.2714H5.93533V30.1931Z" fill="#FFFDF9"/>
<path d="M5.93533 29.3844H5.16113V30.1931H5.93533V29.3844Z" fill="#FFFDF9"/>
<path d="M5.93533 24.8015H5.16113V25.8798H5.93533V24.8015Z" fill="#FFFDF9"/>
<path d="M5.93533 24.2623H5.16113V24.8015H5.93533V24.2623Z" fill="#FFFDF9"/>
<path d="M5.93533 23.184H5.16113V24.2623H5.93533V23.184Z" fill="#FFFDF9"/>
<path d="M5.93533 22.3752H5.16113V23.184H5.93533V22.3752Z" fill="#FFFDF9"/>
<path d="M5.93533 21.2969H5.16113V22.3753H5.93533V21.2969Z" fill="#FFFDF9"/>
<path d="M5.93533 20.7578H5.16113V21.2969H5.93533V20.7578Z" fill="#FFFDF9"/>
<path d="M5.93533 19.6794H5.16113V20.7578H5.93533V19.6794Z" fill="#FFFDF9"/>
<path d="M5.93533 18.8707H5.16113V19.6795H5.93533V18.8707Z" fill="#FFFDF9"/>
<path d="M5.93533 17.7924H5.16113V18.8707H5.93533V17.7924Z" fill="#FFFDF9"/>
<path d="M5.93533 17.2532H5.16113V17.7924H5.93533V17.2532Z" fill="#FFFDF9"/>
<path d="M5.93533 16.1749H5.16113V17.2533H5.93533V16.1749Z" fill="#FFFDF9"/>
<path d="M5.93533 11.8616H5.16113V12.6703H5.93533V11.8616Z" fill="#FFFDF9"/>
<path d="M5.93533 10.7833H5.16113V11.8616H5.93533V10.7833Z" fill="#FFFDF9"/>
<path d="M5.93533 10.2441H5.16113V10.7833H5.93533V10.2441Z" fill="#FFFDF9"/>
<path d="M5.93533 9.16577H5.16113V10.2441H5.93533V9.16577Z" fill="#FFFDF9"/>
<path d="M5.1614 31.8106H4.38721V32.8889H5.1614V31.8106Z" fill="#FFFDF9"/>
<path d="M5.1614 31.2714H4.38721V31.8106H5.1614V31.2714Z" fill="#FFFDF9"/>
<path d="M5.1614 30.1931H4.38721V31.2714H5.1614V30.1931Z" fill="#FFFDF9"/>
<path d="M5.1614 29.3844H4.38721V30.1931H5.1614V29.3844Z" fill="#FFFDF9"/>
<path d="M5.1614 28.306H4.38721V29.3844H5.1614V28.306Z" fill="#FFFDF9"/>
<path d="M5.1614 12.6703H4.38721V13.7487H5.1614V12.6703Z" fill="#FFFDF9"/>
<path d="M5.1614 11.8616H4.38721V12.6703H5.1614V11.8616Z" fill="#FFFDF9"/>
<path d="M5.1614 10.7833H4.38721V11.8616H5.1614V10.7833Z" fill="#FFFDF9"/>
<path d="M5.1614 10.2441H4.38721V10.7833H5.1614V10.2441Z" fill="#FFFDF9"/>
<path d="M5.1614 9.16577H4.38721V10.2441H5.1614V9.16577Z" fill="#FFFDF9"/>
<path d="M4.38724 31.8106H3.35498V32.8889H4.38724V31.8106Z" fill="#FFFDF9"/>
<path d="M4.38724 31.2714H3.35498V31.8106H4.38724V31.2714Z" fill="#FFFDF9"/>
<path d="M4.38724 30.1931H3.35498V31.2714H4.38724V30.1931Z" fill="#FFFDF9"/>
<path d="M4.38724 29.3844H3.35498V30.1931H4.38724V29.3844Z" fill="#FFFDF9"/>
<path d="M4.38724 28.306H3.35498V29.3844H4.38724V28.306Z" fill="#FFFDF9"/>
<path d="M4.38724 27.7669H3.35498V28.3061H4.38724V27.7669Z" fill="#FFFDF9"/>
<path d="M4.38724 13.7487H3.35498V14.2878H4.38724V13.7487Z" fill="#FFFDF9"/>
<path d="M4.38724 12.6703H3.35498V13.7487H4.38724V12.6703Z" fill="#FFFDF9"/>
<path d="M4.38724 11.8616H3.35498V12.6703H4.38724V11.8616Z" fill="#FFFDF9"/>
<path d="M4.38724 10.7833H3.35498V11.8616H4.38724V10.7833Z" fill="#FFFDF9"/>
<path d="M4.38724 10.2441H3.35498V10.7833H4.38724V10.2441Z" fill="#FFFDF9"/>
<path d="M4.38724 9.16577H3.35498V10.2441H4.38724V9.16577Z" fill="#FFFDF9"/>
<path d="M3.35476 31.8106H2.58057V32.8889H3.35476V31.8106Z" fill="#FFFDF9"/>
<path d="M3.35476 31.2714H2.58057V31.8106H3.35476V31.2714Z" fill="#FFFDF9"/>
<path d="M3.35476 30.1931H2.58057V31.2714H3.35476V30.1931Z" fill="#FFFDF9"/>
<path d="M3.35476 29.3844H2.58057V30.1931H3.35476V29.3844Z" fill="#FFFDF9"/>
<path d="M3.35476 28.306H2.58057V29.3844H3.35476V28.306Z" fill="#FFFDF9"/>
<path d="M3.35476 27.7669H2.58057V28.3061H3.35476V27.7669Z" fill="#FFFDF9"/>
<path d="M3.35476 26.6885H2.58057V27.7669H3.35476V26.6885Z" fill="#FFFDF9"/>
<path d="M3.35476 25.8798H2.58057V26.6886H3.35476V25.8798Z" fill="#FFFDF9"/>
<path d="M3.35476 24.8015H2.58057V25.8798H3.35476V24.8015Z" fill="#FFFDF9"/>
<path d="M3.35476 24.2623H2.58057V24.8015H3.35476V24.2623Z" fill="#FFFDF9"/>
<path d="M3.35476 23.184H2.58057V24.2623H3.35476V23.184Z" fill="#FFFDF9"/>
<path d="M3.35476 22.3752H2.58057V23.184H3.35476V22.3752Z" fill="#FFFDF9"/>
<path d="M3.35476 21.2969H2.58057V22.3753H3.35476V21.2969Z" fill="#FFFDF9"/>
<path d="M3.35476 20.7578H2.58057V21.2969H3.35476V20.7578Z" fill="#FFFDF9"/>
<path d="M3.35476 19.6794H2.58057V20.7578H3.35476V19.6794Z" fill="#FFFDF9"/>
<path d="M3.35476 18.8707H2.58057V19.6795H3.35476V18.8707Z" fill="#FFFDF9"/>
<path d="M3.35476 17.7924H2.58057V18.8707H3.35476V17.7924Z" fill="#FFFDF9"/>
<path d="M3.35476 17.2532H2.58057V17.7924H3.35476V17.2532Z" fill="#FFFDF9"/>
<path d="M3.35476 16.1749H2.58057V17.2533H3.35476V16.1749Z" fill="#FFFDF9"/>
<path d="M3.35476 15.3661H2.58057V16.1749H3.35476V15.3661Z" fill="#FFFDF9"/>
<path d="M3.35476 14.2878H2.58057V15.3662H3.35476V14.2878Z" fill="#FFFDF9"/>
<path d="M3.35476 13.7487H2.58057V14.2878H3.35476V13.7487Z" fill="#FFFDF9"/>
<path d="M3.35476 12.6703H2.58057V13.7487H3.35476V12.6703Z" fill="#FFFDF9"/>
<path d="M3.35476 11.8616H2.58057V12.6703H3.35476V11.8616Z" fill="#FFFDF9"/>
<path d="M3.35476 10.7833H2.58057V11.8616H3.35476V10.7833Z" fill="#FFFDF9"/>
<path d="M3.35476 10.2441H2.58057V10.7833H3.35476V10.2441Z" fill="#FFFDF9"/>
<path d="M3.35476 9.16577H2.58057V10.2441H3.35476V9.16577Z" fill="#FFFDF9"/>
<path d="M2.5806 31.8106H1.54834V32.8889H2.5806V31.8106Z" fill="#FFFDF9"/>
<path d="M2.5806 31.2714H1.54834V31.8106H2.5806V31.2714Z" fill="#FFFDF9"/>
<path d="M2.5806 30.1931H1.54834V31.2714H2.5806V30.1931Z" fill="#FFFDF9"/>
<path d="M2.5806 29.3844H1.54834V30.1931H2.5806V29.3844Z" fill="#FFFDF9"/>
<path d="M2.5806 28.306H1.54834V29.3844H2.5806V28.306Z" fill="#FFFDF9"/>
<path d="M2.5806 27.7669H1.54834V28.3061H2.5806V27.7669Z" fill="#FFFDF9"/>
<path d="M2.5806 26.6885H1.54834V27.7669H2.5806V26.6885Z" fill="#FFFDF9"/>
<path d="M2.5806 25.8798H1.54834V26.6886H2.5806V25.8798Z" fill="#FFFDF9"/>
<path d="M2.5806 24.8015H1.54834V25.8798H2.5806V24.8015Z" fill="#FFFDF9"/>
<path d="M2.5806 24.2623H1.54834V24.8015H2.5806V24.2623Z" fill="#FFFDF9"/>
<path d="M2.5806 23.184H1.54834V24.2623H2.5806V23.184Z" fill="#FFFDF9"/>
<path d="M2.5806 22.3752H1.54834V23.184H2.5806V22.3752Z" fill="#FFFDF9"/>
<path d="M2.5806 21.2969H1.54834V22.3753H2.5806V21.2969Z" fill="#FFFDF9"/>
<path d="M2.5806 20.7578H1.54834V21.2969H2.5806V20.7578Z" fill="#FFFDF9"/>
<path d="M2.5806 19.6794H1.54834V20.7578H2.5806V19.6794Z" fill="#FFFDF9"/>
<path d="M2.5806 18.8707H1.54834V19.6795H2.5806V18.8707Z" fill="#FFFDF9"/>
<path d="M2.5806 17.7924H1.54834V18.8707H2.5806V17.7924Z" fill="#FFFDF9"/>
<path d="M2.5806 17.2532H1.54834V17.7924H2.5806V17.2532Z" fill="#FFFDF9"/>
<path d="M2.5806 16.1749H1.54834V17.2533H2.5806V16.1749Z" fill="#FFFDF9"/>
<path d="M2.5806 15.3661H1.54834V16.1749H2.5806V15.3661Z" fill="#FFFDF9"/>
<path d="M2.5806 14.2878H1.54834V15.3662H2.5806V14.2878Z" fill="#FFFDF9"/>
<path d="M2.5806 13.7487H1.54834V14.2878H2.5806V13.7487Z" fill="#FFFDF9"/>
<path d="M2.5806 12.6703H1.54834V13.7487H2.5806V12.6703Z" fill="#FFFDF9"/>
<path d="M2.5806 11.8616H1.54834V12.6703H2.5806V11.8616Z" fill="#FFFDF9"/>
<path d="M2.5806 10.7833H1.54834V11.8616H2.5806V10.7833Z" fill="#FFFDF9"/>
<path d="M2.5806 10.2441H1.54834V10.7833H2.5806V10.2441Z" fill="#FFFDF9"/>
<path d="M2.5806 9.16577H1.54834V10.2441H2.5806V9.16577Z" fill="#FFFDF9"/>
<path d="M1.54836 31.2714H1.03223V31.8106H1.54836V31.2714Z" fill="#FFFDF9"/>
<path d="M1.54836 30.1931H1.03223V31.2714H1.54836V30.1931Z" fill="#FFFDF9"/>
<path d="M1.54836 29.3844H1.03223V30.1931H1.54836V29.3844Z" fill="#FFFDF9"/>
<path d="M1.54836 28.306H1.03223V29.3844H1.54836V28.306Z" fill="#FFFDF9"/>
<path d="M1.54836 27.7669H1.03223V28.3061H1.54836V27.7669Z" fill="#FFFDF9"/>
<path d="M1.54836 26.6885H1.03223V27.7669H1.54836V26.6885Z" fill="#FFFDF9"/>
<path d="M1.54836 25.8798H1.03223V26.6886H1.54836V25.8798Z" fill="#FFFDF9"/>
<path d="M1.54836 24.8015H1.03223V25.8798H1.54836V24.8015Z" fill="#FFFDF9"/>
<path d="M1.54836 24.2623H1.03223V24.8015H1.54836V24.2623Z" fill="#FFFDF9"/>
<path d="M1.54836 23.184H1.03223V24.2623H1.54836V23.184Z" fill="#FFFDF9"/>
<path d="M1.54836 22.3752H1.03223V23.184H1.54836V22.3752Z" fill="#FFFDF9"/>
<path d="M1.54836 21.2969H1.03223V22.3753H1.54836V21.2969Z" fill="#FFFDF9"/>
<path d="M1.54836 20.7578H1.03223V21.2969H1.54836V20.7578Z" fill="#FFFDF9"/>
<path d="M1.54836 19.6794H1.03223V20.7578H1.54836V19.6794Z" fill="#FFFDF9"/>
<path d="M1.54836 18.8707H1.03223V19.6795H1.54836V18.8707Z" fill="#FFFDF9"/>
<path d="M1.54836 17.7924H1.03223V18.8707H1.54836V17.7924Z" fill="#FFFDF9"/>
<path d="M1.54836 17.2532H1.03223V17.7924H1.54836V17.2532Z" fill="#FFFDF9"/>
<path d="M1.54836 16.1749H1.03223V17.2533H1.54836V16.1749Z" fill="#FFFDF9"/>
<path d="M1.54836 15.3661H1.03223V16.1749H1.54836V15.3661Z" fill="#FFFDF9"/>
<path d="M1.54836 14.2878H1.03223V15.3662H1.54836V14.2878Z" fill="#FFFDF9"/>
<path d="M1.54836 13.7487H1.03223V14.2878H1.54836V13.7487Z" fill="#FFFDF9"/>
<path d="M1.54836 12.6703H1.03223V13.7487H1.54836V12.6703Z" fill="#FFFDF9"/>
<path d="M1.54836 11.8616H1.03223V12.6703H1.54836V11.8616Z" fill="#FFFDF9"/>
<path d="M1.54836 10.7833H1.03223V11.8616H1.54836V10.7833Z" fill="#FFFDF9"/>
<path d="M1.03226 30.1931H0V31.2714H1.03226V30.1931Z" fill="#FFFDF9"/>
<path d="M1.03226 29.3844H0V30.1931H1.03226V29.3844Z" fill="#FFFDF9"/>
<path d="M1.03226 28.306H0V29.3844H1.03226V28.306Z" fill="#FFFDF9"/>
<path d="M1.03226 27.7669H0V28.3061H1.03226V27.7669Z" fill="#FFFDF9"/>
<path d="M1.03226 26.6885H0V27.7669H1.03226V26.6885Z" fill="#FFFDF9"/>
<path d="M1.03226 25.8798H0V26.6886H1.03226V25.8798Z" fill="#FFFDF9"/>
<path d="M1.03226 24.8015H0V25.8798H1.03226V24.8015Z" fill="#FFFDF9"/>
<path d="M1.03226 24.2623H0V24.8015H1.03226V24.2623Z" fill="#FFFDF9"/>
<path d="M1.03226 23.184H0V24.2623H1.03226V23.184Z" fill="#FFFDF9"/>
<path d="M1.03226 22.3752H0V23.184H1.03226V22.3752Z" fill="#FFFDF9"/>
<path d="M1.03226 21.2969H0V22.3753H1.03226V21.2969Z" fill="#FFFDF9"/>
<path d="M1.03226 20.7578H0V21.2969H1.03226V20.7578Z" fill="#FFFDF9"/>
<path d="M1.03226 19.6794H0V20.7578H1.03226V19.6794Z" fill="#FFFDF9"/>
<path d="M1.03226 18.8707H0V19.6795H1.03226V18.8707Z" fill="#FFFDF9"/>
<path d="M1.03226 17.7924H0V18.8707H1.03226V17.7924Z" fill="#FFFDF9"/>
<path d="M1.03226 17.2532H0V17.7924H1.03226V17.2532Z" fill="#FFFDF9"/>
<path d="M1.03226 16.1749H0V17.2533H1.03226V16.1749Z" fill="#FFFDF9"/>
<path d="M1.03226 15.3661H0V16.1749H1.03226V15.3661Z" fill="#FFFDF9"/>
<path d="M1.03226 14.2878H0V15.3662H1.03226V14.2878Z" fill="#FFFDF9"/>
<path d="M1.03226 13.7487H0V14.2878H1.03226V13.7487Z" fill="#FFFDF9"/>
<path d="M1.03226 12.6703H0V13.7487H1.03226V12.6703Z" fill="#FFFDF9"/>
<path d="M1.03226 11.8616H0V12.6703H1.03226V11.8616Z" fill="#FFFDF9"/>
</g>
<defs>
<clipPath id="clip0_751_4857">
<rect width="32" height="32.8889" fill="white"/>
</clipPath>
</defs>
</svg>
