<svg width="160" height="51" viewBox="0 0 160 51" fill="none" xmlns="http://www.w3.org/2000/svg">
<path d="M4.46473 24.3876L1.17969 3.64175L5.62375 2.93537L6.0901 5.89808L8.31213 5.54831L8.77849 8.51102L11.0005 8.16126L11.4669 11.124L13.6889 10.7742L12.283 1.88607L16.727 1.17969L20.0121 21.9255L15.568 22.6319L14.6285 16.7065L12.4064 17.0562L11.9401 14.0935L9.71805 14.4433L9.2517 11.4806L7.02966 11.8304L8.90879 23.688L4.46473 24.3944V24.3876Z" fill="#D84625"/>
<path d="M3.60737 25.5602L0 2.7844L6.47407 1.75568L6.94042 4.71839L9.16245 4.36862L9.6288 7.33133L11.8508 6.98157L12.3172 9.94428L12.5092 9.91684L11.1033 1.02872L17.5774 0L21.1847 22.7758L14.7107 23.8045L13.7711 17.8791L11.5491 18.2289L11.0827 15.2662L8.86069 15.6159L8.39434 12.6532L8.20231 12.6807L10.0814 24.5384L3.60051 25.5671L3.60737 25.5602ZM2.35234 4.49893L5.31504 23.2147L7.7291 22.8307L5.84998 10.973L10.102 10.3009L10.5684 13.2636L12.7904 12.9138L13.2567 15.8766L15.4788 15.5268L16.4183 21.4522L18.8324 21.0681L15.8766 2.35234L13.4625 2.73639L14.8684 11.6245L10.6164 12.2966L10.15 9.3339L7.92799 9.68367L7.46164 6.72096L5.2396 7.07072L4.77325 4.10801L2.35919 4.49207L2.35234 4.49893Z" fill="#D84625"/>
<path d="M25.087 24.031L24.6207 21.0683L29.0647 20.3619L26.7193 5.54147L22.2752 6.24786L21.8088 3.28515L35.1479 1.17285L35.6142 4.13556L31.1702 4.84195L33.5157 19.6623L37.9597 18.956L38.4261 21.9187L25.0939 24.031H25.087Z" fill="#D84625"/>
<path d="M24.2299 25.2105L23.4412 20.2177L27.8853 19.5114L25.8621 6.72782L21.4181 7.4342L20.6294 2.44149L35.9916 0L36.7803 4.99271L32.3362 5.6991L34.3594 18.4826L38.8034 17.7763L39.5921 22.769L24.2231 25.2036L24.2299 25.2105ZM25.7936 21.9254L25.9444 22.8581L37.2466 21.0681L37.1026 20.1354L32.6585 20.8418L29.9907 3.99143L34.4348 3.28504L34.2908 2.35234L22.9886 4.14231L23.1395 5.07501L27.5835 4.36862L30.2513 21.219L25.8073 21.9254H25.7936Z" fill="#D84625"/>
<path d="M43.4325 24.3876L40.1475 3.64175L44.5915 2.93537L45.0579 5.89808L47.2799 5.54831L47.7463 8.51102L49.9683 8.16126L50.4346 11.124L52.6567 10.7742L51.2508 1.88607L55.6948 1.17969L58.9799 21.9255L54.5358 22.6319L53.5962 16.7065L51.3742 17.0562L50.9079 14.0935L48.6858 14.4433L48.2195 11.4806L45.9974 11.8304L47.8766 23.688L43.4325 24.3944V24.3876Z" fill="#D84625"/>
<path d="M42.5751 25.5602L38.9678 2.7844L45.4418 1.75568L45.9082 4.71839L48.1302 4.36862L48.5966 7.33133L50.8186 6.98157L51.285 9.94428L51.477 9.91684L50.0711 1.02872L56.552 0L60.1594 22.7758L53.6853 23.8045L52.7457 17.8791L50.5237 18.2289L50.0574 15.2662L47.8353 15.6159L47.369 12.6532L47.1769 12.6807L49.0561 24.5384L42.582 25.5671L42.5751 25.5602ZM41.3201 4.49893L44.2828 23.2147L46.6969 22.8307L44.8178 10.973L49.0698 10.3009L49.5361 13.2636L51.7582 12.9138L52.2245 15.8766L54.4466 15.5268L55.3861 21.4522L57.8002 21.0681L54.8375 2.35234L52.4234 2.73639L53.8293 11.6245L49.5773 12.2966L49.1109 9.3339L46.8889 9.68367L46.4226 6.72096L44.2005 7.07072L43.7342 4.10801L41.3201 4.49207V4.49893Z" fill="#D84625"/>
<path d="M67.7789 23.3314L64.9602 5.54831L60.5162 6.2547L60.0498 3.29199L73.3889 1.17969L73.8552 4.1424L69.4111 4.84878L72.2298 22.6319L67.7858 23.3383L67.7789 23.3314Z" fill="#D84625"/>
<path d="M66.9216 24.5041L64.1029 6.72096L59.6588 7.42735L58.8701 2.43463L74.2392 0L75.0279 4.99271L70.5838 5.6991L73.4025 23.4822L66.9216 24.5109V24.5041ZM65.8174 4.36862L68.6361 22.1517L71.0501 21.7677L68.2315 3.98457L72.6755 3.27818L72.5246 2.34548L61.2225 4.13545L61.3733 5.06815L65.8174 4.36177V4.36862Z" fill="#D84625"/>
<path d="M80.9533 24.3876L77.6682 3.64175L93.2293 1.17969L93.6956 4.1424L82.5855 5.90493L83.525 11.8304L92.4132 10.4244L92.8795 13.3871L83.9914 14.7931L84.931 20.7185L96.0411 18.9559L96.5075 21.9186L80.9464 24.3807L80.9533 24.3876Z" fill="#D84625"/>
<path d="M80.103 25.5602L76.4956 2.7844L94.0867 0L94.8754 4.99271L83.7652 6.75525L84.3824 10.6507L93.2706 9.24475L94.0593 14.2375L85.1711 15.6434L85.7884 19.5388L96.8985 17.7763L97.6872 22.769L80.0961 25.5534L80.103 25.5602ZM78.8479 4.49893L81.8107 23.2147L95.3349 21.075L95.184 20.1423L84.0738 21.9048L82.8119 13.9426L91.7001 12.5366L91.5492 11.6039L82.6611 13.0099L81.3992 5.05444L92.5093 3.2919L92.3584 2.35919L78.8342 4.49893H78.8479Z" fill="#D84625"/>
<path d="M101.521 24.3876L98.2358 3.64175L102.68 2.93537L103.146 5.89808L105.368 5.54831L105.835 8.51102L108.057 8.16126L108.523 11.124L110.745 10.7742L109.339 1.88607L113.783 1.17969L117.068 21.9255L112.624 22.6319L111.685 16.7065L109.463 17.0562L108.996 14.0935L106.774 14.4433L106.308 11.4806L104.086 11.8304L105.965 23.688L101.521 24.3944V24.3876Z" fill="#D84625"/>
<path d="M100.664 25.5602L97.0562 2.7844L103.53 1.75568L103.997 4.71839L106.219 4.36862L106.685 7.33133L108.907 6.98157L109.373 9.94428L109.565 9.91684L108.159 1.02872L114.634 0L118.241 22.7758L111.767 23.8045L110.827 17.8791L108.605 18.2289L108.139 15.2662L105.917 15.6159L105.45 12.6532L105.258 12.6807L107.138 24.5384L100.657 25.5671L100.664 25.5602ZM99.4085 4.49893L102.371 23.2147L104.785 22.8307L102.906 10.973L107.158 10.3009L107.625 13.2636L109.847 12.9138L110.313 15.8766L112.535 15.5268L113.474 21.4522L115.889 21.0681L112.926 2.35234L110.512 2.73639L111.918 11.6245L107.666 12.2966L107.199 9.3339L104.977 9.68367L104.511 6.72096L102.289 7.07072L101.823 4.10801L99.4085 4.49207V4.49893Z" fill="#D84625"/>
<path d="M122.802 24.3878L119.517 3.64193L130.627 1.87939L131.093 4.8421L133.315 4.49234L133.781 7.45505L136.004 7.10528L137.409 15.9934L135.187 16.3432L135.654 19.3059L133.432 19.6556L133.898 22.6184L122.788 24.3809L122.802 24.3878ZM126.779 20.7187L131.223 20.0123L130.757 17.0496L132.979 16.6998L131.573 7.81167L129.351 8.16143L128.885 5.19873L124.441 5.90511L126.786 20.7255L126.779 20.7187Z" fill="#D84625"/>
<path d="M121.951 25.5604L118.344 2.78458L131.491 0.699707L131.957 3.66242L134.179 3.31265L134.646 6.27536L136.868 5.9256L138.596 16.8506L136.374 17.2003L136.84 20.1631L134.618 20.5128L135.084 23.4755L121.937 25.5604H121.951ZM120.696 4.49911L123.659 23.2149L132.739 21.7747L132.273 18.812L134.495 18.4622L134.028 15.4995L136.25 15.1498L135.167 8.29165L132.945 8.64141L132.478 5.6787L130.256 6.02847L129.79 3.06576L120.71 4.50596L120.696 4.49911ZM125.922 21.8913L123.254 5.0409L129.728 4.01218L130.195 6.97489L132.417 6.62512L134.145 17.5501L131.923 17.8999L132.389 20.8626L125.908 21.8913H125.922ZM125.606 6.75543L127.63 19.539L130.044 19.1549L129.577 16.1922L131.799 15.8424L130.716 8.98432L128.494 9.33408L128.027 6.37137L125.613 6.75543H125.606Z" fill="#D84625"/>
<path d="M145.948 24.0308L145.481 21.0681L143.259 21.4179L140.914 6.59747L143.136 6.24771L142.669 3.285L153.78 1.52246L154.246 4.48517L156.468 4.13541L158.814 18.9558L156.591 19.3056L157.058 22.2683L145.948 24.0308ZM147.703 20.7183L154.369 19.6622L152.024 4.84179L145.358 5.89794L147.703 20.7183Z" fill="#D84625"/>
<path d="M145.097 25.2103L144.631 22.2476L142.409 22.5974L139.741 5.74695L141.963 5.39719L141.497 2.43448L154.644 0.349609L155.11 3.31232L157.332 2.96255L160 19.813L157.778 20.1627L158.244 23.1254L145.097 25.2103ZM146.339 19.8884L146.805 22.8511L155.885 21.4109L155.419 18.4482L157.641 18.0984L155.618 5.31489L153.396 5.66465L152.929 2.70195L143.849 4.14215L144.316 7.10486L142.094 7.45462L144.117 20.2382L146.339 19.8884ZM146.846 21.891L144.178 5.04057L152.881 3.66208L155.549 20.5125L146.846 21.891ZM146.531 6.7551L148.554 19.5386L153.19 18.8048L151.167 6.02128L146.531 6.7551Z" fill="#D84625"/>
<path d="M3.62793 49.1456V28.146H17.1316V31.1499H19.381V40.1477H17.1316V43.1516H8.13372V49.1524H3.63479L3.62793 49.1456ZM8.12686 40.1408H14.8753V31.143H8.12686V40.1408Z" fill="#262523"/>
<path d="M9.15573 50.1742H2.59937V27.1172H18.1604V30.121H20.4099V41.1763H18.1604V44.1802H9.16259V50.181L9.15573 50.1742ZM4.6568 48.1168H7.09829V42.1159H16.0961V39.112H18.3456V32.1716H16.0961V29.1678H4.6568V48.1099V48.1168ZM15.9041 41.1695H7.09829V30.1142H15.9041V41.1695ZM9.15573 39.112H13.8467V32.1716H9.15573V39.112Z" fill="#262523"/>
<path d="M26.0402 49.1451V46.1412H23.7908V28.1387H28.2897V46.1412H35.0381V28.1387H39.537V46.1412H37.2876V49.1451H26.0334H26.0402Z" fill="#262523"/>
<path d="M38.3162 50.1737H25.0046V47.1699H22.7551V27.1099H29.3115V45.1124H34.0024V27.1099H40.5588V47.1699H38.3093V50.1737H38.3162ZM27.0689 48.1163H36.2656V45.1124H38.5151V29.1673H36.0736V47.1699H27.2678V29.1673H24.8263V45.1124H27.0757V48.1163H27.0689Z" fill="#262523"/>
<path d="M45.8398 49.1451V46.1413H43.5903V43.1374H48.0893V46.1413H54.8377V40.1404H45.8398V37.1366H43.5903V31.1357H45.8398V28.1318H57.094V31.1357H59.3434V34.1395H54.8445V31.1357H48.0961V37.1366H57.094V40.1404H59.3434V46.1413H57.094V49.1451H45.8398Z" fill="#262523"/>
<path d="M58.1226 50.1742H44.811V47.1704H42.5615V42.1091H49.1179V45.1129H53.8088V41.1695H44.811V38.1657H42.5615V30.1074H44.811V27.1035H58.1226V30.1074H60.3721V35.1687H53.8157V32.1648H49.1247V36.1082H58.1226V39.1121H60.3721V47.1704H58.1226V50.1742ZM46.8684 48.1168H56.0652V45.1129H58.3146V41.1695H56.0652V38.1657H47.0673V30.1074H55.8731V33.1112H58.3146V32.1648H56.0652V29.161H46.8684V32.1648H44.619V36.1082H46.8684V39.1121H55.8663V47.1704H47.0605V44.1665H44.619V45.1129H46.8684V48.1168Z" fill="#262523"/>
<path d="M63.3965 49.1456V28.146H67.8954V37.1439H74.6438V28.146H79.1427V49.1456H74.6438V40.1477H67.8954V49.1456H63.3965Z" fill="#262523"/>
<path d="M80.1714 50.1742H73.615V41.1763H68.924V50.1742H62.3677V27.1172H68.924V36.115H73.615V27.1172H80.1714V50.1742ZM75.6724 48.1168H78.1139V29.1746H75.6724V38.1725H66.8666V29.1746H64.4251V48.1168H66.8666V39.1189H75.6724V48.1168Z" fill="#262523"/>
<path d="M83.1958 49.1456V28.146H98.9489V31.1499H87.6947V37.1507H96.6926V40.1546H87.6947V46.1554H98.9489V49.1593H83.1958V49.1456Z" fill="#262523"/>
<path d="M99.9778 50.1742H82.1672V27.1172H99.9778V32.1785H88.7236V36.1219H97.7215V41.1832H88.7236V45.1266H99.9778V50.1879V50.1742ZM84.2247 48.1168H97.9203V47.1703H86.6662V39.112H95.664V38.1656H86.6662V30.1073H97.9203V29.1609H84.2247V48.103V48.1168Z" fill="#262523"/>
<path d="M103.002 49.1456V28.146H116.506V31.1499H118.755V40.1477H114.256V43.1516H116.506V46.1554H118.755V49.1593H112.007V46.1554H109.757V43.1516H107.508V49.1524H103.009L103.002 49.1456ZM107.501 40.1408H112V37.137H114.25V31.1361H107.501V40.134V40.1408Z" fill="#262523"/>
<path d="M119.777 50.1737H110.971V47.1699H108.722V44.166H108.53V50.1669H101.973V27.1099H117.534V30.1137H119.784V41.169H115.285V42.1154H117.534V45.1193H119.784V50.1806L119.777 50.1737ZM113.029 48.1163H117.72V47.1699H115.47V44.166H113.221V39.1047H117.72V32.1643H115.47V29.1604H104.024V48.1026H106.465V42.1017H110.772V45.1056H113.022V48.1094L113.029 48.1163ZM113.029 41.169H106.472V30.1137H115.278V38.172H113.029V41.1759V41.169ZM108.53 39.1116H110.971V36.1077H113.221V32.1643H108.53V39.1047V39.1116Z" fill="#262523"/>
<path d="M122.802 49.1456V28.146H138.555V31.1499H127.3V37.1507H136.298V40.1546H127.3V46.1554H138.555V49.1593H122.802V49.1456Z" fill="#262523"/>
<path d="M139.583 50.1742H121.773V27.1172H139.583V32.1785H128.329V36.1219H137.327V41.1832H128.329V45.1266H139.583V50.1879V50.1742ZM123.83 48.1168H137.526V47.1703H126.272V39.112H135.27V38.1656H126.272V30.1073H137.526V29.1609H123.83V48.103V48.1168Z" fill="#262523"/>
<path d="M142.608 49.1456V28.146H147.107V31.1499H149.356V34.1537H151.606V37.1576H153.855V28.1597H158.354V49.1593H153.855V43.1584H151.606V40.1546H149.356V37.1507H147.107V49.1524H142.608V49.1456Z" fill="#262523"/>
<path d="M159.383 50.1737H152.826V44.1729H150.577V41.169H148.327V38.1652H148.135V50.1669H141.579V27.1099H148.135V30.1137H150.385V33.1176H152.634V36.1214H152.826V27.1236H159.383V50.1806V50.1737ZM154.884 48.1163H157.325V29.1742H154.884V38.172H150.577V35.1682H148.327V32.1643H146.078V29.1604H143.637V48.1026H146.078V36.1009H150.385V39.1047H152.634V42.1086H154.884V48.1094V48.1163Z" fill="#262523"/>
</svg>
