<svg width="77" height="77" viewBox="0 0 77 77" fill="none" xmlns="http://www.w3.org/2000/svg">
<g clip-path="url(#clip0_384_4080)">
<path d="M61.073 10.6235H58.4214V13.2752H61.073V10.6235Z" fill="#262523"/>
<path d="M18.5787 10.6235H15.927V13.2752H18.5787V10.6235Z" fill="#262523"/>
<path d="M77 42.4775H74.3484V45.1462H77V42.4775Z" fill="#262523"/>
<path d="M77 39.8257H74.3484V42.4773H77V39.8257Z" fill="#262523"/>
<path d="M77 37.1743H74.3484V39.826H77V37.1743Z" fill="#262523"/>
<path d="M77 34.5225H74.3484V37.1741H77V34.5225Z" fill="#262523"/>
<path d="M77 31.854H74.3484V34.5227H77V31.854Z" fill="#262523"/>
<path d="M74.3484 50.4492H71.6968V53.1009H74.3484V50.4492Z" fill="#262523"/>
<path d="M74.3484 47.7979H71.6968V50.4495H74.3484V47.7979Z" fill="#262523"/>
<path d="M74.3484 45.146H71.6968V47.7977H74.3484V45.146Z" fill="#262523"/>
<path d="M74.3484 37.1743H71.6968V39.826H74.3484V37.1743Z" fill="#262523"/>
<path d="M74.3484 29.2021H71.6968V31.8538H74.3484V29.2021Z" fill="#262523"/>
<path d="M74.3484 26.5508H71.6968V29.2024H74.3484V26.5508Z" fill="#262523"/>
<path d="M74.3484 23.8989H71.6968V26.5506H74.3484V23.8989Z" fill="#262523"/>
<path d="M71.6966 55.7529H69.0449V58.4216H71.6966V55.7529Z" fill="#262523"/>
<path d="M71.6966 53.1011H69.0449V55.7527H71.6966V53.1011Z" fill="#262523"/>
<path d="M71.6966 37.1743H69.0449V39.826H71.6966V37.1743Z" fill="#262523"/>
<path d="M71.6966 21.2471H69.0449V23.8987H71.6966V21.2471Z" fill="#262523"/>
<path d="M71.6966 18.5786H69.0449V21.2473H71.6966V18.5786Z" fill="#262523"/>
<path d="M69.0451 58.4214H66.3765V61.073H69.0451V58.4214Z" fill="#262523"/>
<path d="M69.0451 37.1743H66.3765V39.826H69.0451V37.1743Z" fill="#262523"/>
<path d="M69.0451 15.9268H66.3765V18.5784H69.0451V15.9268Z" fill="#262523"/>
<path d="M66.3763 61.0732H63.7246V63.7249H66.3763V61.0732Z" fill="#262523"/>
<path d="M66.3763 37.1743H63.7246V39.826H66.3763V37.1743Z" fill="#262523"/>
<path d="M66.3763 13.2754H63.7246V15.927H66.3763V13.2754Z" fill="#262523"/>
<path d="M63.7247 63.7246H61.073V66.3763H63.7247V63.7246Z" fill="#262523"/>
<path d="M63.7247 37.1743H61.073V39.826H63.7247V37.1743Z" fill="#262523"/>
<path d="M63.7247 10.6235H61.073V13.2752H63.7247V10.6235Z" fill="#262523"/>
<path d="M61.073 66.3765H58.4214V69.0451H61.073V66.3765Z" fill="#262523"/>
<path d="M61.073 63.7246H58.4214V66.3763H61.073V63.7246Z" fill="#262523"/>
<path d="M61.073 37.1743H58.4214V39.826H61.073V37.1743Z" fill="#262523"/>
<path d="M61.073 7.97217H58.4214V10.6238H61.073V7.97217Z" fill="#262523"/>
<path d="M58.4213 69.0449H55.7527V71.6966H58.4213V69.0449Z" fill="#262523"/>
<path d="M58.4213 61.0732H55.7527V63.7249H58.4213V61.0732Z" fill="#262523"/>
<path d="M58.4213 50.4492H55.7527V53.1009H58.4213V50.4492Z" fill="#262523"/>
<path d="M58.4213 47.7979H55.7527V50.4495H58.4213V47.7979Z" fill="#262523"/>
<path d="M58.4213 45.146H55.7527V47.7977H58.4213V45.146Z" fill="#262523"/>
<path d="M58.4213 42.4775H55.7527V45.1462H58.4213V42.4775Z" fill="#262523"/>
<path d="M58.4213 39.8257H55.7527V42.4773H58.4213V39.8257Z" fill="#262523"/>
<path d="M58.4213 37.1743H55.7527V39.826H58.4213V37.1743Z" fill="#262523"/>
<path d="M58.4213 34.5225H55.7527V37.1741H58.4213V34.5225Z" fill="#262523"/>
<path d="M58.4213 31.854H55.7527V34.5227H58.4213V31.854Z" fill="#262523"/>
<path d="M58.4213 29.2021H55.7527V31.8538H58.4213V29.2021Z" fill="#262523"/>
<path d="M58.4213 26.5508H55.7527V29.2024H58.4213V26.5508Z" fill="#262523"/>
<path d="M58.4213 23.8989H55.7527V26.5506H58.4213V23.8989Z" fill="#262523"/>
<path d="M58.4213 13.2754H55.7527V15.927H58.4213V13.2754Z" fill="#262523"/>
<path d="M58.4213 5.30322H55.7527V7.97188H58.4213V5.30322Z" fill="#262523"/>
<path d="M55.7527 69.0449H53.1011V71.6966H55.7527V69.0449Z" fill="#262523"/>
<path d="M55.7527 61.0732H53.1011V63.7249H55.7527V61.0732Z" fill="#262523"/>
<path d="M55.7527 58.4214H53.1011V61.073H55.7527V58.4214Z" fill="#262523"/>
<path d="M55.7527 55.7529H53.1011V58.4216H55.7527V55.7529Z" fill="#262523"/>
<path d="M55.7527 53.1011H53.1011V55.7527H55.7527V53.1011Z" fill="#262523"/>
<path d="M55.7527 37.1743H53.1011V39.826H55.7527V37.1743Z" fill="#262523"/>
<path d="M55.7527 21.2471H53.1011V23.8987H55.7527V21.2471Z" fill="#262523"/>
<path d="M55.7527 18.5786H53.1011V21.2473H55.7527V18.5786Z" fill="#262523"/>
<path d="M55.7527 15.9268H53.1011V18.5784H55.7527V15.9268Z" fill="#262523"/>
<path d="M55.7527 13.2754H53.1011V15.927H55.7527V13.2754Z" fill="#262523"/>
<path d="M55.7527 5.30322H53.1011V7.97188H55.7527V5.30322Z" fill="#262523"/>
<path d="M53.1011 71.6968H50.4495V74.3484H53.1011V71.6968Z" fill="#262523"/>
<path d="M53.1011 63.7246H50.4495V66.3763H53.1011V63.7246Z" fill="#262523"/>
<path d="M53.1011 61.0732H50.4495V63.7249H53.1011V61.0732Z" fill="#262523"/>
<path d="M53.1011 37.1743H50.4495V39.826H53.1011V37.1743Z" fill="#262523"/>
<path d="M53.1011 13.2754H50.4495V15.927H53.1011V13.2754Z" fill="#262523"/>
<path d="M53.1011 10.6235H50.4495V13.2752H53.1011V10.6235Z" fill="#262523"/>
<path d="M53.1011 7.97217H50.4495V10.6238H53.1011V7.97217Z" fill="#262523"/>
<path d="M53.1011 2.65186H50.4495V5.30351H53.1011V2.65186Z" fill="#262523"/>
<path d="M50.4495 71.6968H47.7979V74.3484H50.4495V71.6968Z" fill="#262523"/>
<path d="M50.4495 66.3765H47.7979V69.0451H50.4495V66.3765Z" fill="#262523"/>
<path d="M50.4495 58.4214H47.7979V61.073H50.4495V58.4214Z" fill="#262523"/>
<path d="M50.4495 37.1743H47.7979V39.826H50.4495V37.1743Z" fill="#262523"/>
<path d="M50.4495 15.9268H47.7979V18.5784H50.4495V15.9268Z" fill="#262523"/>
<path d="M50.4495 2.65186H47.7979V5.30351H50.4495V2.65186Z" fill="#262523"/>
<path d="M47.7979 71.6968H45.1462V74.3484H47.7979V71.6968Z" fill="#262523"/>
<path d="M47.7979 69.0449H45.1462V71.6966H47.7979V69.0449Z" fill="#262523"/>
<path d="M47.7979 58.4214H45.1462V61.073H47.7979V58.4214Z" fill="#262523"/>
<path d="M47.7979 37.1743H45.1462V39.826H47.7979V37.1743Z" fill="#262523"/>
<path d="M47.7979 15.9268H45.1462V18.5784H47.7979V15.9268Z" fill="#262523"/>
<path d="M47.7979 2.65186H45.1462V5.30351H47.7979V2.65186Z" fill="#262523"/>
<path d="M45.1462 74.3481H42.4775V76.9998H45.1462V74.3481Z" fill="#262523"/>
<path d="M45.1462 58.4214H42.4775V61.073H45.1462V58.4214Z" fill="#262523"/>
<path d="M45.1462 37.1743H42.4775V39.826H45.1462V37.1743Z" fill="#262523"/>
<path d="M45.1462 15.9268H42.4775V18.5784H45.1462V15.9268Z" fill="#262523"/>
<path d="M45.1462 0H42.4775V2.65166H45.1462V0Z" fill="#262523"/>
<path d="M42.4776 74.3481H39.8259V76.9998H42.4776V74.3481Z" fill="#262523"/>
<path d="M42.4776 58.4214H39.8259V61.073H42.4776V58.4214Z" fill="#262523"/>
<path d="M42.4776 37.1743H39.8259V39.826H42.4776V37.1743Z" fill="#262523"/>
<path d="M42.4776 15.9268H39.8259V18.5784H42.4776V15.9268Z" fill="#262523"/>
<path d="M42.4776 0H39.8259V2.65166H42.4776V0Z" fill="#262523"/>
<path d="M39.8257 74.3481H37.1741V76.9998H39.8257V74.3481Z" fill="#262523"/>
<path d="M39.8257 71.6968H37.1741V74.3484H39.8257V71.6968Z" fill="#262523"/>
<path d="M39.8257 69.0449H37.1741V71.6966H39.8257V69.0449Z" fill="#262523"/>
<path d="M39.8257 66.3765H37.1741V69.0451H39.8257V66.3765Z" fill="#262523"/>
<path d="M39.8257 63.7246H37.1741V66.3763H39.8257V63.7246Z" fill="#262523"/>
<path d="M39.8257 61.0732H37.1741V63.7249H39.8257V61.0732Z" fill="#262523"/>
<path d="M39.8257 58.4214H37.1741V61.073H39.8257V58.4214Z" fill="#262523"/>
<path d="M39.8257 55.7529H37.1741V58.4216H39.8257V55.7529Z" fill="#262523"/>
<path d="M39.8257 53.1011H37.1741V55.7527H39.8257V53.1011Z" fill="#262523"/>
<path d="M39.8257 50.4492H37.1741V53.1009H39.8257V50.4492Z" fill="#262523"/>
<path d="M39.8257 47.7979H37.1741V50.4495H39.8257V47.7979Z" fill="#262523"/>
<path d="M39.8257 45.146H37.1741V47.7977H39.8257V45.146Z" fill="#262523"/>
<path d="M39.8257 42.4775H37.1741V45.1462H39.8257V42.4775Z" fill="#262523"/>
<path d="M39.8257 39.8257H37.1741V42.4773H39.8257V39.8257Z" fill="#262523"/>
<path d="M39.8257 37.1743H37.1741V39.826H39.8257V37.1743Z" fill="#262523"/>
<path d="M39.8257 34.5225H37.1741V37.1741H39.8257V34.5225Z" fill="#262523"/>
<path d="M39.8257 31.854H37.1741V34.5227H39.8257V31.854Z" fill="#262523"/>
<path d="M39.8257 29.2021H37.1741V31.8538H39.8257V29.2021Z" fill="#262523"/>
<path d="M39.8257 26.5508H37.1741V29.2024H39.8257V26.5508Z" fill="#262523"/>
<path d="M39.8257 23.8989H37.1741V26.5506H39.8257V23.8989Z" fill="#262523"/>
<path d="M39.8257 21.2471H37.1741V23.8987H39.8257V21.2471Z" fill="#262523"/>
<path d="M39.8257 18.5786H37.1741V21.2473H39.8257V18.5786Z" fill="#262523"/>
<path d="M39.8257 15.9268H37.1741V18.5784H39.8257V15.9268Z" fill="#262523"/>
<path d="M39.8257 13.2754H37.1741V15.927H39.8257V13.2754Z" fill="#262523"/>
<path d="M39.8257 10.6235H37.1741V13.2752H39.8257V10.6235Z" fill="#262523"/>
<path d="M39.8257 7.97217H37.1741V10.6238H39.8257V7.97217Z" fill="#262523"/>
<path d="M39.8257 5.30322H37.1741V7.97188H39.8257V5.30322Z" fill="#262523"/>
<path d="M39.8257 2.65186H37.1741V5.30351H39.8257V2.65186Z" fill="#262523"/>
<path d="M39.8257 0H37.1741V2.65166H39.8257V0Z" fill="#262523"/>
<path d="M37.1741 74.3481H34.5225V76.9998H37.1741V74.3481Z" fill="#262523"/>
<path d="M37.1741 58.4214H34.5225V61.073H37.1741V58.4214Z" fill="#262523"/>
<path d="M37.1741 37.1743H34.5225V39.826H37.1741V37.1743Z" fill="#262523"/>
<path d="M37.1741 15.9268H34.5225V18.5784H37.1741V15.9268Z" fill="#262523"/>
<path d="M37.1741 0H34.5225V2.65166H37.1741V0Z" fill="#262523"/>
<path d="M34.5224 74.3481H31.8538V76.9998H34.5224V74.3481Z" fill="#262523"/>
<path d="M34.5224 58.4214H31.8538V61.073H34.5224V58.4214Z" fill="#262523"/>
<path d="M34.5224 37.1743H31.8538V39.826H34.5224V37.1743Z" fill="#262523"/>
<path d="M34.5224 15.9268H31.8538V18.5784H34.5224V15.9268Z" fill="#262523"/>
<path d="M34.5224 0H31.8538V2.65166H34.5224V0Z" fill="#262523"/>
<path d="M31.8538 71.6968H29.2021V74.3484H31.8538V71.6968Z" fill="#262523"/>
<path d="M31.8538 69.0449H29.2021V71.6966H31.8538V69.0449Z" fill="#262523"/>
<path d="M31.8538 58.4214H29.2021V61.073H31.8538V58.4214Z" fill="#262523"/>
<path d="M31.8538 37.1743H29.2021V39.826H31.8538V37.1743Z" fill="#262523"/>
<path d="M31.8538 15.9268H29.2021V18.5784H31.8538V15.9268Z" fill="#262523"/>
<path d="M31.8538 2.65186H29.2021V5.30351H31.8538V2.65186Z" fill="#262523"/>
<path d="M29.2022 71.6968H26.5505V74.3484H29.2022V71.6968Z" fill="#262523"/>
<path d="M29.2022 66.3765H26.5505V69.0451H29.2022V66.3765Z" fill="#262523"/>
<path d="M29.2022 58.4214H26.5505V61.073H29.2022V58.4214Z" fill="#262523"/>
<path d="M29.2022 37.1743H26.5505V39.826H29.2022V37.1743Z" fill="#262523"/>
<path d="M29.2022 15.9268H26.5505V18.5784H29.2022V15.9268Z" fill="#262523"/>
<path d="M29.2022 2.65186H26.5505V5.30351H29.2022V2.65186Z" fill="#262523"/>
<path d="M26.5506 71.6968H23.8989V74.3484H26.5506V71.6968Z" fill="#262523"/>
<path d="M26.5506 63.7246H23.8989V66.3763H26.5506V63.7246Z" fill="#262523"/>
<path d="M26.5506 61.0732H23.8989V63.7249H26.5506V61.0732Z" fill="#262523"/>
<path d="M26.5506 37.1743H23.8989V39.826H26.5506V37.1743Z" fill="#262523"/>
<path d="M26.5506 13.2754H23.8989V15.927H26.5506V13.2754Z" fill="#262523"/>
<path d="M26.5506 10.6235H23.8989V13.2752H26.5506V10.6235Z" fill="#262523"/>
<path d="M26.5506 7.97217H23.8989V10.6238H26.5506V7.97217Z" fill="#262523"/>
<path d="M26.5506 2.65186H23.8989V5.30351H26.5506V2.65186Z" fill="#262523"/>
<path d="M23.899 69.0449H21.2473V71.6966H23.899V69.0449Z" fill="#262523"/>
<path d="M23.899 61.0732H21.2473V63.7249H23.899V61.0732Z" fill="#262523"/>
<path d="M23.899 58.4214H21.2473V61.073H23.899V58.4214Z" fill="#262523"/>
<path d="M23.899 55.7529H21.2473V58.4216H23.899V55.7529Z" fill="#262523"/>
<path d="M23.899 53.1011H21.2473V55.7527H23.899V53.1011Z" fill="#262523"/>
<path d="M23.899 37.1743H21.2473V39.826H23.899V37.1743Z" fill="#262523"/>
<path d="M23.899 21.2471H21.2473V23.8987H23.899V21.2471Z" fill="#262523"/>
<path d="M23.899 18.5786H21.2473V21.2473H23.899V18.5786Z" fill="#262523"/>
<path d="M23.899 15.9268H21.2473V18.5784H23.899V15.9268Z" fill="#262523"/>
<path d="M23.899 13.2754H21.2473V15.927H23.899V13.2754Z" fill="#262523"/>
<path d="M23.899 5.30322H21.2473V7.97188H23.899V5.30322Z" fill="#262523"/>
<path d="M21.2473 69.0449H18.5786V71.6966H21.2473V69.0449Z" fill="#262523"/>
<path d="M21.2473 61.0732H18.5786V63.7249H21.2473V61.0732Z" fill="#262523"/>
<path d="M21.2473 50.4492H18.5786V53.1009H21.2473V50.4492Z" fill="#262523"/>
<path d="M21.2473 47.7979H18.5786V50.4495H21.2473V47.7979Z" fill="#262523"/>
<path d="M21.2473 45.146H18.5786V47.7977H21.2473V45.146Z" fill="#262523"/>
<path d="M21.2473 42.4775H18.5786V45.1462H21.2473V42.4775Z" fill="#262523"/>
<path d="M21.2473 39.8257H18.5786V42.4773H21.2473V39.8257Z" fill="#262523"/>
<path d="M21.2473 37.1743H18.5786V39.826H21.2473V37.1743Z" fill="#262523"/>
<path d="M21.2473 34.5225H18.5786V37.1741H21.2473V34.5225Z" fill="#262523"/>
<path d="M21.2473 31.854H18.5786V34.5227H21.2473V31.854Z" fill="#262523"/>
<path d="M21.2473 29.2021H18.5786V31.8538H21.2473V29.2021Z" fill="#262523"/>
<path d="M21.2473 26.5508H18.5786V29.2024H21.2473V26.5508Z" fill="#262523"/>
<path d="M21.2473 23.8989H18.5786V26.5506H21.2473V23.8989Z" fill="#262523"/>
<path d="M21.2473 13.2754H18.5786V15.927H21.2473V13.2754Z" fill="#262523"/>
<path d="M21.2473 5.30322H18.5786V7.97188H21.2473V5.30322Z" fill="#262523"/>
<path d="M18.5787 66.3765H15.927V69.0451H18.5787V66.3765Z" fill="#262523"/>
<path d="M18.5787 63.7246H15.927V66.3763H18.5787V63.7246Z" fill="#262523"/>
<path d="M18.5787 37.1743H15.927V39.826H18.5787V37.1743Z" fill="#262523"/>
<path d="M18.5787 7.97217H15.927V10.6238H18.5787V7.97217Z" fill="#262523"/>
<path d="M15.927 63.7246H13.2754V66.3763H15.927V63.7246Z" fill="#262523"/>
<path d="M15.927 37.1743H13.2754V39.826H15.927V37.1743Z" fill="#262523"/>
<path d="M15.927 10.6235H13.2754V13.2752H15.927V10.6235Z" fill="#262523"/>
<path d="M13.2752 61.0732H10.6235V63.7249H13.2752V61.0732Z" fill="#262523"/>
<path d="M13.2752 37.1743H10.6235V39.826H13.2752V37.1743Z" fill="#262523"/>
<path d="M13.2752 13.2754H10.6235V15.927H13.2752V13.2754Z" fill="#262523"/>
<path d="M10.6237 58.4214H7.95508V61.073H10.6237V58.4214Z" fill="#262523"/>
<path d="M10.6237 37.1743H7.95508V39.826H10.6237V37.1743Z" fill="#262523"/>
<path d="M10.6237 15.9268H7.95508V18.5784H10.6237V15.9268Z" fill="#262523"/>
<path d="M7.95488 55.7529H5.30322V58.4216H7.95488V55.7529Z" fill="#262523"/>
<path d="M7.95488 53.1011H5.30322V55.7527H7.95488V53.1011Z" fill="#262523"/>
<path d="M7.95488 37.1743H5.30322V39.826H7.95488V37.1743Z" fill="#262523"/>
<path d="M7.95488 21.2471H5.30322V23.8987H7.95488V21.2471Z" fill="#262523"/>
<path d="M7.95488 18.5786H5.30322V21.2473H7.95488V18.5786Z" fill="#262523"/>
<path d="M5.30327 50.4492H2.65161V53.1009H5.30327V50.4492Z" fill="#262523"/>
<path d="M5.30327 47.7979H2.65161V50.4495H5.30327V47.7979Z" fill="#262523"/>
<path d="M5.30327 45.146H2.65161V47.7977H5.30327V45.146Z" fill="#262523"/>
<path d="M5.30327 37.1743H2.65161V39.826H5.30327V37.1743Z" fill="#262523"/>
<path d="M5.30327 29.2021H2.65161V31.8538H5.30327V29.2021Z" fill="#262523"/>
<path d="M5.30327 26.5508H2.65161V29.2024H5.30327V26.5508Z" fill="#262523"/>
<path d="M5.30327 23.8989H2.65161V26.5506H5.30327V23.8989Z" fill="#262523"/>
<path d="M2.65166 42.4775H0V45.1462H2.65166V42.4775Z" fill="#262523"/>
<path d="M2.65166 39.8257H0V42.4773H2.65166V39.8257Z" fill="#262523"/>
<path d="M2.65166 37.1743H0V39.826H2.65166V37.1743Z" fill="#262523"/>
<path d="M2.65166 34.5225H0V37.1741H2.65166V34.5225Z" fill="#262523"/>
<path d="M2.65166 31.854H0V34.5227H2.65166V31.854Z" fill="#262523"/>
</g>
<defs>
<clipPath id="clip0_384_4080">
<rect width="77" height="77" fill="white"/>
</clipPath>
</defs>
</svg>
