<svg width="22" height="22" viewBox="0 0 22 22" fill="none" xmlns="http://www.w3.org/2000/svg">
<g clip-path="url(#clip0_722_12902)">
<path d="M22.0001 20.6255H20.6255V21.9998H22.0001V20.6255Z" fill="#070707"/>
<path d="M22.0001 19.248H20.6255V20.6259H22.0001V19.248Z" fill="#070707"/>
<path d="M22.0001 17.8735H20.6255V19.2479H22.0001V17.8735Z" fill="#070707"/>
<path d="M22.0001 16.499H20.6255V17.8734H22.0001V16.499Z" fill="#070707"/>
<path d="M22.0001 15.125H20.6255V16.4993H22.0001V15.125Z" fill="#070707"/>
<path d="M20.6255 20.6255H19.251V21.9998H20.6255V20.6255Z" fill="#070707"/>
<path d="M20.6255 19.248H19.251V20.6259H20.6255V19.248Z" fill="#070707"/>
<path d="M20.6255 17.8735H19.251V19.2479H20.6255V17.8735Z" fill="#070707"/>
<path d="M20.6255 16.499H19.251V17.8734H20.6255V16.499Z" fill="#070707"/>
<path d="M20.6255 15.125H19.251V16.4993H20.6255V15.125Z" fill="#070707"/>
<path d="M20.6255 13.7505H19.251V15.1248H20.6255V13.7505Z" fill="#070707"/>
<path d="M19.2508 20.6255H17.8762V21.9998H19.2508V20.6255Z" fill="#070707"/>
<path d="M19.2508 19.248H17.8762V20.6259H19.2508V19.248Z" fill="#070707"/>
<path d="M19.2508 17.8735H17.8762V19.2479H19.2508V17.8735Z" fill="#070707"/>
<path d="M19.2508 16.499H17.8762V17.8734H19.2508V16.499Z" fill="#070707"/>
<path d="M19.2508 15.125H17.8762V16.4993H19.2508V15.125Z" fill="#070707"/>
<path d="M19.2508 13.7505H17.8762V15.1248H19.2508V13.7505Z" fill="#070707"/>
<path d="M17.8764 20.6255H16.4983V21.9998H17.8764V20.6255Z" fill="#070707"/>
<path d="M17.8764 19.248H16.4983V20.6259H17.8764V19.248Z" fill="#070707"/>
<path d="M17.8764 17.8735H16.4983V19.2479H17.8764V17.8735Z" fill="#070707"/>
<path d="M17.8764 16.499H16.4983V17.8734H17.8764V16.499Z" fill="#070707"/>
<path d="M17.8764 15.125H16.4983V16.4993H17.8764V15.125Z" fill="#070707"/>
<path d="M17.8764 13.7505H16.4983V15.1248H17.8764V13.7505Z" fill="#070707"/>
<path d="M17.8764 12.376H16.4983V13.7503H17.8764V12.376Z" fill="#070707"/>
<path d="M16.4983 20.6255H15.1238V21.9998H16.4983V20.6255Z" fill="#070707"/>
<path d="M16.4983 19.248H15.1238V20.6259H16.4983V19.248Z" fill="#070707"/>
<path d="M16.4983 17.8735H15.1238V19.2479H16.4983V17.8735Z" fill="#070707"/>
<path d="M16.4983 16.499H15.1238V17.8734H16.4983V16.499Z" fill="#070707"/>
<path d="M16.4983 15.125H15.1238V16.4993H16.4983V15.125Z" fill="#070707"/>
<path d="M16.4983 13.7505H15.1238V15.1248H16.4983V13.7505Z" fill="#070707"/>
<path d="M16.4983 12.376H15.1238V13.7503H16.4983V12.376Z" fill="#070707"/>
<path d="M16.4983 6.875H15.1238V8.24934H16.4983V6.875Z" fill="#070707"/>
<path d="M16.4983 5.50098H15.1238V6.87532H16.4983V5.50098Z" fill="#070707"/>
<path d="M16.4983 4.12646H15.1238V5.50081H16.4983V4.12646Z" fill="#070707"/>
<path d="M16.4983 2.74854H15.1238V4.12638H16.4983V2.74854Z" fill="#070707"/>
<path d="M15.1236 20.6255H13.749V21.9998H15.1236V20.6255Z" fill="#070707"/>
<path d="M15.1236 19.248H13.749V20.6259H15.1236V19.248Z" fill="#070707"/>
<path d="M15.1236 17.8735H13.749V19.2479H15.1236V17.8735Z" fill="#070707"/>
<path d="M15.1236 16.499H13.749V17.8734H15.1236V16.499Z" fill="#070707"/>
<path d="M15.1236 15.125H13.749V16.4993H15.1236V15.125Z" fill="#070707"/>
<path d="M15.1236 13.7505H13.749V15.1248H15.1236V13.7505Z" fill="#070707"/>
<path d="M15.1236 12.376H13.749V13.7503H15.1236V12.376Z" fill="#070707"/>
<path d="M15.1236 8.24951H13.749V9.62385H15.1236V8.24951Z" fill="#070707"/>
<path d="M15.1236 6.875H13.749V8.24934H15.1236V6.875Z" fill="#070707"/>
<path d="M15.1236 5.50098H13.749V6.87532H15.1236V5.50098Z" fill="#070707"/>
<path d="M15.1236 4.12646H13.749V5.50081H15.1236V4.12646Z" fill="#070707"/>
<path d="M15.1236 2.74854H13.749V4.12638H15.1236V2.74854Z" fill="#070707"/>
<path d="M15.1236 1.37451H13.749V2.74885H15.1236V1.37451Z" fill="#070707"/>
<path d="M13.7491 20.6255H12.3745V21.9998H13.7491V20.6255Z" fill="#070707"/>
<path d="M13.7491 19.248H12.3745V20.6259H13.7491V19.248Z" fill="#070707"/>
<path d="M13.7491 17.8735H12.3745V19.2479H13.7491V17.8735Z" fill="#070707"/>
<path d="M13.7491 16.499H12.3745V17.8734H13.7491V16.499Z" fill="#070707"/>
<path d="M13.7491 15.125H12.3745V16.4993H13.7491V15.125Z" fill="#070707"/>
<path d="M13.7491 13.7505H12.3745V15.1248H13.7491V13.7505Z" fill="#070707"/>
<path d="M13.7491 12.376H12.3745V13.7503H13.7491V12.376Z" fill="#070707"/>
<path d="M13.7491 9.62402H12.3745V10.9984H13.7491V9.62402Z" fill="#070707"/>
<path d="M13.7491 8.24951H12.3745V9.62385H13.7491V8.24951Z" fill="#070707"/>
<path d="M13.7491 6.875H12.3745V8.24934H13.7491V6.875Z" fill="#070707"/>
<path d="M13.7491 5.50098H12.3745V6.87532H13.7491V5.50098Z" fill="#070707"/>
<path d="M13.7491 4.12646H12.3745V5.50081H13.7491V4.12646Z" fill="#070707"/>
<path d="M13.7491 2.74854H12.3745V4.12638H13.7491V2.74854Z" fill="#070707"/>
<path d="M13.7491 1.37451H12.3745V2.74885H13.7491V1.37451Z" fill="#070707"/>
<path d="M13.7491 0H12.3745V1.37434H13.7491V0Z" fill="#070707"/>
<path d="M12.3746 20.6255H11V21.9998H12.3746V20.6255Z" fill="#070707"/>
<path d="M12.3746 19.248H11V20.6259H12.3746V19.248Z" fill="#070707"/>
<path d="M12.3746 17.8735H11V19.2479H12.3746V17.8735Z" fill="#070707"/>
<path d="M12.3746 16.499H11V17.8734H12.3746V16.499Z" fill="#070707"/>
<path d="M12.3746 15.125H11V16.4993H12.3746V15.125Z" fill="#070707"/>
<path d="M12.3746 13.7505H11V15.1248H12.3746V13.7505Z" fill="#070707"/>
<path d="M12.3746 12.376H11V13.7503H12.3746V12.376Z" fill="#070707"/>
<path d="M12.3746 9.62402H11V10.9984H12.3746V9.62402Z" fill="#070707"/>
<path d="M12.3746 8.24951H11V9.62385H12.3746V8.24951Z" fill="#070707"/>
<path d="M12.3746 6.875H11V8.24934H12.3746V6.875Z" fill="#070707"/>
<path d="M12.3746 5.50098H11V6.87532H12.3746V5.50098Z" fill="#070707"/>
<path d="M12.3746 4.12646H11V5.50081H12.3746V4.12646Z" fill="#070707"/>
<path d="M12.3746 2.74854H11V4.12638H12.3746V2.74854Z" fill="#070707"/>
<path d="M12.3746 1.37451H11V2.74885H12.3746V1.37451Z" fill="#070707"/>
<path d="M12.3746 0H11V1.37434H12.3746V0Z" fill="#070707"/>
<path d="M11 20.6255H9.62549V21.9998H11V20.6255Z" fill="#070707"/>
<path d="M11 19.248H9.62549V20.6259H11V19.248Z" fill="#070707"/>
<path d="M11 17.8735H9.62549V19.2479H11V17.8735Z" fill="#070707"/>
<path d="M11 16.499H9.62549V17.8734H11V16.499Z" fill="#070707"/>
<path d="M11 15.125H9.62549V16.4993H11V15.125Z" fill="#070707"/>
<path d="M11 13.7505H9.62549V15.1248H11V13.7505Z" fill="#070707"/>
<path d="M11 12.376H9.62549V13.7503H11V12.376Z" fill="#070707"/>
<path d="M11 9.62402H9.62549V10.9984H11V9.62402Z" fill="#070707"/>
<path d="M11 8.24951H9.62549V9.62385H11V8.24951Z" fill="#070707"/>
<path d="M11 6.875H9.62549V8.24934H11V6.875Z" fill="#070707"/>
<path d="M11 5.50098H9.62549V6.87532H11V5.50098Z" fill="#070707"/>
<path d="M11 4.12646H9.62549V5.50081H11V4.12646Z" fill="#070707"/>
<path d="M11 2.74854H9.62549V4.12638H11V2.74854Z" fill="#070707"/>
<path d="M11 1.37451H9.62549V2.74885H11V1.37451Z" fill="#070707"/>
<path d="M11 0H9.62549V1.37434H11V0Z" fill="#070707"/>
<path d="M9.62554 20.6255H8.25098V21.9998H9.62554V20.6255Z" fill="#070707"/>
<path d="M9.62554 19.248H8.25098V20.6259H9.62554V19.248Z" fill="#070707"/>
<path d="M9.62554 17.8735H8.25098V19.2479H9.62554V17.8735Z" fill="#070707"/>
<path d="M9.62554 16.499H8.25098V17.8734H9.62554V16.499Z" fill="#070707"/>
<path d="M9.62554 15.125H8.25098V16.4993H9.62554V15.125Z" fill="#070707"/>
<path d="M9.62554 13.7505H8.25098V15.1248H9.62554V13.7505Z" fill="#070707"/>
<path d="M9.62554 12.376H8.25098V13.7503H9.62554V12.376Z" fill="#070707"/>
<path d="M9.62554 9.62402H8.25098V10.9984H9.62554V9.62402Z" fill="#070707"/>
<path d="M9.62554 8.24951H8.25098V9.62385H9.62554V8.24951Z" fill="#070707"/>
<path d="M9.62554 6.875H8.25098V8.24934H9.62554V6.875Z" fill="#070707"/>
<path d="M9.62554 5.50098H8.25098V6.87532H9.62554V5.50098Z" fill="#070707"/>
<path d="M9.62554 4.12646H8.25098V5.50081H9.62554V4.12646Z" fill="#070707"/>
<path d="M9.62554 2.74854H8.25098V4.12638H9.62554V2.74854Z" fill="#070707"/>
<path d="M9.62554 1.37451H8.25098V2.74885H9.62554V1.37451Z" fill="#070707"/>
<path d="M9.62554 0H8.25098V1.37434H9.62554V0Z" fill="#070707"/>
<path d="M8.25087 20.6255H6.8728V21.9998H8.25087V20.6255Z" fill="#070707"/>
<path d="M8.25087 19.248H6.8728V20.6259H8.25087V19.248Z" fill="#070707"/>
<path d="M8.25087 17.8735H6.8728V19.2479H8.25087V17.8735Z" fill="#070707"/>
<path d="M8.25087 16.499H6.8728V17.8734H8.25087V16.499Z" fill="#070707"/>
<path d="M8.25087 15.125H6.8728V16.4993H8.25087V15.125Z" fill="#070707"/>
<path d="M8.25087 13.7505H6.8728V15.1248H8.25087V13.7505Z" fill="#070707"/>
<path d="M8.25087 12.376H6.8728V13.7503H8.25087V12.376Z" fill="#070707"/>
<path d="M8.25087 8.24951H6.8728V9.62385H8.25087V8.24951Z" fill="#070707"/>
<path d="M8.25087 6.875H6.8728V8.24934H8.25087V6.875Z" fill="#070707"/>
<path d="M8.25087 5.50098H6.8728V6.87532H8.25087V5.50098Z" fill="#070707"/>
<path d="M8.25087 4.12646H6.8728V5.50081H8.25087V4.12646Z" fill="#070707"/>
<path d="M8.25087 2.74854H6.8728V4.12638H8.25087V2.74854Z" fill="#070707"/>
<path d="M8.25087 1.37451H6.8728V2.74885H8.25087V1.37451Z" fill="#070707"/>
<path d="M6.87285 20.6255H5.49829V21.9998H6.87285V20.6255Z" fill="#070707"/>
<path d="M6.87285 19.248H5.49829V20.6259H6.87285V19.248Z" fill="#070707"/>
<path d="M6.87285 17.8735H5.49829V19.2479H6.87285V17.8735Z" fill="#070707"/>
<path d="M6.87285 16.499H5.49829V17.8734H6.87285V16.499Z" fill="#070707"/>
<path d="M6.87285 15.125H5.49829V16.4993H6.87285V15.125Z" fill="#070707"/>
<path d="M6.87285 13.7505H5.49829V15.1248H6.87285V13.7505Z" fill="#070707"/>
<path d="M6.87285 12.376H5.49829V13.7503H6.87285V12.376Z" fill="#070707"/>
<path d="M6.87285 6.875H5.49829V8.24934H6.87285V6.875Z" fill="#070707"/>
<path d="M6.87285 5.50098H5.49829V6.87532H6.87285V5.50098Z" fill="#070707"/>
<path d="M6.87285 4.12646H5.49829V5.50081H6.87285V4.12646Z" fill="#070707"/>
<path d="M6.87285 2.74854H5.49829V4.12638H6.87285V2.74854Z" fill="#070707"/>
<path d="M5.49834 20.6255H4.12378V21.9998H5.49834V20.6255Z" fill="#070707"/>
<path d="M5.49834 19.248H4.12378V20.6259H5.49834V19.248Z" fill="#070707"/>
<path d="M5.49834 17.8735H4.12378V19.2479H5.49834V17.8735Z" fill="#070707"/>
<path d="M5.49834 16.499H4.12378V17.8734H5.49834V16.499Z" fill="#070707"/>
<path d="M5.49834 15.125H4.12378V16.4993H5.49834V15.125Z" fill="#070707"/>
<path d="M5.49834 13.7505H4.12378V15.1248H5.49834V13.7505Z" fill="#070707"/>
<path d="M5.49834 12.376H4.12378V13.7503H5.49834V12.376Z" fill="#070707"/>
<path d="M4.12359 20.6255H2.74902V21.9998H4.12359V20.6255Z" fill="#070707"/>
<path d="M4.12359 19.248H2.74902V20.6259H4.12359V19.248Z" fill="#070707"/>
<path d="M4.12359 17.8735H2.74902V19.2479H4.12359V17.8735Z" fill="#070707"/>
<path d="M4.12359 16.499H2.74902V17.8734H4.12359V16.499Z" fill="#070707"/>
<path d="M4.12359 15.125H2.74902V16.4993H4.12359V15.125Z" fill="#070707"/>
<path d="M4.12359 13.7505H2.74902V15.1248H4.12359V13.7505Z" fill="#070707"/>
<path d="M2.74907 20.6255H1.37451V21.9998H2.74907V20.6255Z" fill="#070707"/>
<path d="M2.74907 19.248H1.37451V20.6259H2.74907V19.248Z" fill="#070707"/>
<path d="M2.74907 17.8735H1.37451V19.2479H2.74907V17.8735Z" fill="#070707"/>
<path d="M2.74907 16.499H1.37451V17.8734H2.74907V16.499Z" fill="#070707"/>
<path d="M2.74907 15.125H1.37451V16.4993H2.74907V15.125Z" fill="#070707"/>
<path d="M2.74907 13.7505H1.37451V15.1248H2.74907V13.7505Z" fill="#070707"/>
<path d="M1.37456 20.6255H0V21.9998H1.37456V20.6255Z" fill="#070707"/>
<path d="M1.37456 19.248H0V20.6259H1.37456V19.248Z" fill="#070707"/>
<path d="M1.37456 17.8735H0V19.2479H1.37456V17.8735Z" fill="#070707"/>
<path d="M1.37456 16.499H0V17.8734H1.37456V16.499Z" fill="#070707"/>
<path d="M1.37456 15.125H0V16.4993H1.37456V15.125Z" fill="#070707"/>
</g>
<defs>
<clipPath id="clip0_722_12902">
<rect width="22" height="22" fill="white"/>
</clipPath>
</defs>
</svg>
