<svg width="24" height="25" viewBox="0 0 24 25" fill="none" xmlns="http://www.w3.org/2000/svg">
<g clip-path="url(#clip0_722_12631)">
<path d="M12.6308 6.42578H11.3694V7.71756H12.6308V6.42578Z" fill="#262523"/>
<path d="M12.6308 5.14258H11.3694V6.42613H12.6308V5.14258Z" fill="#262523"/>
<path d="M11.3694 3.85889H10.1079V5.14244H11.3694V3.85889Z" fill="#262523"/>
<path d="M24 23.1367H22.7385V24.4285H24V23.1367Z" fill="#262523"/>
<path d="M24 21.853H22.7385V23.1366H24V21.853Z" fill="#262523"/>
<path d="M22.7385 23.1367H21.4771V24.4285H22.7385V23.1367Z" fill="#262523"/>
<path d="M22.7385 21.853H21.4771V23.1366H22.7385V21.853Z" fill="#262523"/>
<path d="M22.7385 20.5698H21.4771V21.8534H22.7385V20.5698Z" fill="#262523"/>
<path d="M21.477 21.853H20.2156V23.1366H21.477V21.853Z" fill="#262523"/>
<path d="M21.477 20.5698H20.2156V21.8534H21.477V20.5698Z" fill="#262523"/>
<path d="M21.477 19.2861H20.2156V20.5697H21.477V19.2861Z" fill="#262523"/>
<path d="M20.2156 20.5698H18.946V21.8534H20.2156V20.5698Z" fill="#262523"/>
<path d="M20.2156 19.2861H18.946V20.5697H20.2156V19.2861Z" fill="#262523"/>
<path d="M20.2156 17.9941H18.946V19.2859H20.2156V17.9941Z" fill="#262523"/>
<path d="M18.946 19.2861H17.6846V20.5697H18.946V19.2861Z" fill="#262523"/>
<path d="M18.946 17.9941H17.6846V19.2859H18.946V17.9941Z" fill="#262523"/>
<path d="M18.946 16.7109H17.6846V17.9945H18.946V16.7109Z" fill="#262523"/>
<path d="M17.6846 17.9941H16.4231V19.2859H17.6846V17.9941Z" fill="#262523"/>
<path d="M17.6846 16.7109H16.4231V17.9945H17.6846V16.7109Z" fill="#262523"/>
<path d="M17.6846 15.4272H16.4231V16.7108H17.6846V15.4272Z" fill="#262523"/>
<path d="M16.4231 16.7109H15.1616V17.9945H16.4231V16.7109Z" fill="#262523"/>
<path d="M16.4231 15.4272H15.1616V16.7108H16.4231V15.4272Z" fill="#262523"/>
<path d="M16.4231 14.1436H15.1616V15.4271H16.4231V14.1436Z" fill="#262523"/>
<path d="M16.4231 11.5684H15.1616V12.8601H16.4231V11.5684Z" fill="#262523"/>
<path d="M16.4231 10.2847H15.1616V11.5682H16.4231V10.2847Z" fill="#262523"/>
<path d="M16.4231 9.00146H15.1616V10.285H16.4231V9.00146Z" fill="#262523"/>
<path d="M16.4231 7.71777H15.1616V9.00132H16.4231V7.71777Z" fill="#262523"/>
<path d="M16.4231 6.42578H15.1616V7.71756H16.4231V6.42578Z" fill="#262523"/>
<path d="M16.4231 5.14258H15.1616V6.42613H16.4231V5.14258Z" fill="#262523"/>
<path d="M16.4231 3.85889H15.1616V5.14244H16.4231V3.85889Z" fill="#262523"/>
<path d="M15.1618 15.4272H13.9004V16.7108H15.1618V15.4272Z" fill="#262523"/>
<path d="M15.1618 14.1436H13.9004V15.4271H15.1618V14.1436Z" fill="#262523"/>
<path d="M15.1618 12.8604H13.9004V14.1439H15.1618V12.8604Z" fill="#262523"/>
<path d="M15.1618 2.5752H13.9004V3.85874H15.1618V2.5752Z" fill="#262523"/>
<path d="M15.1618 1.29199H13.9004V2.57554H15.1618V1.29199Z" fill="#262523"/>
<path d="M13.9002 14.1436H12.6306V15.4271H13.9002V14.1436Z" fill="#262523"/>
<path d="M13.9002 1.29199H12.6306V2.57554H13.9002V1.29199Z" fill="#262523"/>
<path d="M12.6308 15.4272H11.3694V16.7108H12.6308V15.4272Z" fill="#262523"/>
<path d="M12.6308 0H11.3694V1.29178H12.6308V0Z" fill="#262523"/>
<path d="M11.3694 15.4272H10.1079V16.7108H11.3694V15.4272Z" fill="#262523"/>
<path d="M11.3694 0H10.1079V1.29178H11.3694V0Z" fill="#262523"/>
<path d="M10.1079 15.4272H8.84644V16.7108H10.1079V15.4272Z" fill="#262523"/>
<path d="M10.1079 0H8.84644V1.29178H10.1079V0Z" fill="#262523"/>
<path d="M8.84645 15.4272H7.5769V16.7108H8.84645V15.4272Z" fill="#262523"/>
<path d="M8.84645 0H7.5769V1.29178H8.84645V0Z" fill="#262523"/>
<path d="M7.57689 15.4272H6.31543V16.7108H7.57689V15.4272Z" fill="#262523"/>
<path d="M7.57689 0H6.31543V1.29178H7.57689V0Z" fill="#262523"/>
<path d="M6.31541 15.4272H5.05396V16.7108H6.31541V15.4272Z" fill="#262523"/>
<path d="M6.31541 0H5.05396V1.29178H6.31541V0Z" fill="#262523"/>
<path d="M5.05394 15.4272H3.79248V16.7108H5.05394V15.4272Z" fill="#262523"/>
<path d="M5.05394 0H3.79248V1.29178H5.05394V0Z" fill="#262523"/>
<path d="M3.79246 14.1436H2.53101V15.4271H3.79246V14.1436Z" fill="#262523"/>
<path d="M3.79246 1.29199H2.53101V2.57554H3.79246V1.29199Z" fill="#262523"/>
<path d="M2.53102 14.1436H1.26147V15.4271H2.53102V14.1436Z" fill="#262523"/>
<path d="M2.53102 12.8604H1.26147V14.1439H2.53102V12.8604Z" fill="#262523"/>
<path d="M2.53102 2.5752H1.26147V3.85874H2.53102V2.5752Z" fill="#262523"/>
<path d="M2.53102 1.29199H1.26147V2.57554H2.53102V1.29199Z" fill="#262523"/>
<path d="M1.26146 11.5684H0V12.8601H1.26146V11.5684Z" fill="#262523"/>
<path d="M1.26146 10.2847H0V11.5682H1.26146V10.2847Z" fill="#262523"/>
<path d="M1.26146 9.00146H0V10.285H1.26146V9.00146Z" fill="#262523"/>
<path d="M1.26146 7.71777H0V9.00132H1.26146V7.71777Z" fill="#262523"/>
<path d="M1.26146 6.42578H0V7.71756H1.26146V6.42578Z" fill="#262523"/>
<path d="M1.26146 5.14258H0V6.42613H1.26146V5.14258Z" fill="#262523"/>
<path d="M1.26146 3.85889H0V5.14244H1.26146V3.85889Z" fill="#262523"/>
</g>
<defs>
<clipPath id="clip0_722_12631">
<rect width="24" height="24.4286" fill="white"/>
</clipPath>
</defs>
</svg>
