<svg width="32" height="33" viewBox="0 0 32 33" fill="none" xmlns="http://www.w3.org/2000/svg">
<g clip-path="url(#clip0_751_5972)">
<path d="M16 19.949H14.9678V21.0274H16V19.949Z" fill="#FFFDF9"/>
<path d="M22.9676 30.1931H22.1934V31.2714H22.9676V30.1931Z" fill="#FFFDF9"/>
<path d="M22.9676 29.1148H22.1934V30.1931H22.9676V29.1148Z" fill="#FFFDF9"/>
<path d="M22.9676 28.306H22.1934V29.1148H22.9676V28.306Z" fill="#FFFDF9"/>
<path d="M22.9676 27.4973H22.1934V28.3061H22.9676V27.4973Z" fill="#FFFDF9"/>
<path d="M22.9676 26.4189H22.1934V27.4973H22.9676V26.4189Z" fill="#FFFDF9"/>
<path d="M22.9676 25.6102H22.1934V26.419H22.9676V25.6102Z" fill="#FFFDF9"/>
<path d="M22.9676 24.8015H22.1934V25.6103H22.9676V24.8015Z" fill="#FFFDF9"/>
<path d="M22.9676 23.7231H22.1934V24.8015H22.9676V23.7231Z" fill="#FFFDF9"/>
<path d="M22.9676 22.6448H22.1934V23.7232H22.9676V22.6448Z" fill="#FFFDF9"/>
<path d="M22.9676 22.1057H22.1934V22.6448H22.9676V22.1057Z" fill="#FFFDF9"/>
<path d="M22.9676 21.0273H22.1934V22.1057H22.9676V21.0273Z" fill="#FFFDF9"/>
<path d="M22.9676 19.949H22.1934V21.0274H22.9676V19.949Z" fill="#FFFDF9"/>
<path d="M22.9676 19.4099H22.1934V19.949H22.9676V19.4099Z" fill="#FFFDF9"/>
<path d="M22.9676 18.3315H22.1934V19.4099H22.9676V18.3315Z" fill="#FFFDF9"/>
<path d="M22.9676 17.2532H22.1934V18.3316H22.9676V17.2532Z" fill="#FFFDF9"/>
<path d="M22.9676 16.4445H22.1934V17.2532H22.9676V16.4445Z" fill="#FFFDF9"/>
<path d="M22.9676 15.6357H22.1934V16.4445H22.9676V15.6357Z" fill="#FFFDF9"/>
<path d="M22.9676 14.5574H22.1934V15.6358H22.9676V14.5574Z" fill="#FFFDF9"/>
<path d="M22.9676 13.7487H22.1934V14.5574H22.9676V13.7487Z" fill="#FFFDF9"/>
<path d="M22.9676 12.9399H22.1934V13.7487H22.9676V12.9399Z" fill="#FFFDF9"/>
<path d="M22.9676 11.8616H22.1934V12.9399H22.9676V11.8616Z" fill="#FFFDF9"/>
<path d="M22.9676 10.7833H22.1934V11.8616H22.9676V10.7833Z" fill="#FFFDF9"/>
<path d="M22.1934 31.2714H21.1611V31.8106H22.1934V31.2714Z" fill="#FFFDF9"/>
<path d="M22.1934 30.1931H21.1611V31.2714H22.1934V30.1931Z" fill="#FFFDF9"/>
<path d="M22.1934 29.1148H21.1611V30.1931H22.1934V29.1148Z" fill="#FFFDF9"/>
<path d="M22.1934 28.306H21.1611V29.1148H22.1934V28.306Z" fill="#FFFDF9"/>
<path d="M22.1934 27.4973H21.1611V28.3061H22.1934V27.4973Z" fill="#FFFDF9"/>
<path d="M22.1934 26.4189H21.1611V27.4973H22.1934V26.4189Z" fill="#FFFDF9"/>
<path d="M22.1934 25.6102H21.1611V26.419H22.1934V25.6102Z" fill="#FFFDF9"/>
<path d="M22.1934 24.8015H21.1611V25.6103H22.1934V24.8015Z" fill="#FFFDF9"/>
<path d="M22.1934 23.7231H21.1611V24.8015H22.1934V23.7231Z" fill="#FFFDF9"/>
<path d="M22.1934 22.6448H21.1611V23.7232H22.1934V22.6448Z" fill="#FFFDF9"/>
<path d="M22.1934 22.1057H21.1611V22.6448H22.1934V22.1057Z" fill="#FFFDF9"/>
<path d="M22.1934 21.0273H21.1611V22.1057H22.1934V21.0273Z" fill="#FFFDF9"/>
<path d="M22.1934 19.949H21.1611V21.0274H22.1934V19.949Z" fill="#FFFDF9"/>
<path d="M22.1934 19.4099H21.1611V19.949H22.1934V19.4099Z" fill="#FFFDF9"/>
<path d="M22.1934 18.3315H21.1611V19.4099H22.1934V18.3315Z" fill="#FFFDF9"/>
<path d="M22.1934 17.2532H21.1611V18.3316H22.1934V17.2532Z" fill="#FFFDF9"/>
<path d="M22.1934 16.4445H21.1611V17.2532H22.1934V16.4445Z" fill="#FFFDF9"/>
<path d="M22.1934 15.6357H21.1611V16.4445H22.1934V15.6357Z" fill="#FFFDF9"/>
<path d="M22.1934 14.5574H21.1611V15.6358H22.1934V14.5574Z" fill="#FFFDF9"/>
<path d="M22.1934 13.7487H21.1611V14.5574H22.1934V13.7487Z" fill="#FFFDF9"/>
<path d="M22.1934 12.9399H21.1611V13.7487H22.1934V12.9399Z" fill="#FFFDF9"/>
<path d="M22.1934 11.8616H21.1611V12.9399H22.1934V11.8616Z" fill="#FFFDF9"/>
<path d="M22.1934 10.7833H21.1611V11.8616H22.1934V10.7833Z" fill="#FFFDF9"/>
<path d="M22.1934 10.2441H21.1611V10.7833H22.1934V10.2441Z" fill="#FFFDF9"/>
<path d="M21.1614 31.8106H20.3872V32.8889H21.1614V31.8106Z" fill="#FFFDF9"/>
<path d="M21.1614 31.2714H20.3872V31.8106H21.1614V31.2714Z" fill="#FFFDF9"/>
<path d="M21.1614 30.1931H20.3872V31.2714H21.1614V30.1931Z" fill="#FFFDF9"/>
<path d="M21.1614 29.1148H20.3872V30.1931H21.1614V29.1148Z" fill="#FFFDF9"/>
<path d="M21.1614 28.306H20.3872V29.1148H21.1614V28.306Z" fill="#FFFDF9"/>
<path d="M21.1614 27.4973H20.3872V28.3061H21.1614V27.4973Z" fill="#FFFDF9"/>
<path d="M21.1614 26.4189H20.3872V27.4973H21.1614V26.4189Z" fill="#FFFDF9"/>
<path d="M21.1614 25.6102H20.3872V26.419H21.1614V25.6102Z" fill="#FFFDF9"/>
<path d="M21.1614 24.8015H20.3872V25.6103H21.1614V24.8015Z" fill="#FFFDF9"/>
<path d="M21.1614 23.7231H20.3872V24.8015H21.1614V23.7231Z" fill="#FFFDF9"/>
<path d="M21.1614 22.6448H20.3872V23.7232H21.1614V22.6448Z" fill="#FFFDF9"/>
<path d="M21.1614 22.1057H20.3872V22.6448H21.1614V22.1057Z" fill="#FFFDF9"/>
<path d="M21.1614 21.0273H20.3872V22.1057H21.1614V21.0273Z" fill="#FFFDF9"/>
<path d="M21.1614 19.949H20.3872V21.0274H21.1614V19.949Z" fill="#FFFDF9"/>
<path d="M21.1614 19.4099H20.3872V19.949H21.1614V19.4099Z" fill="#FFFDF9"/>
<path d="M21.1614 18.3315H20.3872V19.4099H21.1614V18.3315Z" fill="#FFFDF9"/>
<path d="M21.1614 17.2532H20.3872V18.3316H21.1614V17.2532Z" fill="#FFFDF9"/>
<path d="M21.1614 16.4445H20.3872V17.2532H21.1614V16.4445Z" fill="#FFFDF9"/>
<path d="M21.1614 15.6357H20.3872V16.4445H21.1614V15.6357Z" fill="#FFFDF9"/>
<path d="M21.1614 14.5574H20.3872V15.6358H21.1614V14.5574Z" fill="#FFFDF9"/>
<path d="M21.1614 13.7487H20.3872V14.5574H21.1614V13.7487Z" fill="#FFFDF9"/>
<path d="M21.1614 12.9399H20.3872V13.7487H21.1614V12.9399Z" fill="#FFFDF9"/>
<path d="M21.1614 11.8616H20.3872V12.9399H21.1614V11.8616Z" fill="#FFFDF9"/>
<path d="M21.1614 10.7833H20.3872V11.8616H21.1614V10.7833Z" fill="#FFFDF9"/>
<path d="M21.1614 10.2441H20.3872V10.7833H21.1614V10.2441Z" fill="#FFFDF9"/>
<path d="M21.1614 9.16577H20.3872V10.2441H21.1614V9.16577Z" fill="#FFFDF9"/>
<path d="M20.387 31.8106H19.6128V32.8889H20.387V31.8106Z" fill="#FFFDF9"/>
<path d="M20.387 31.2714H19.6128V31.8106H20.387V31.2714Z" fill="#FFFDF9"/>
<path d="M20.387 30.1931H19.6128V31.2714H20.387V30.1931Z" fill="#FFFDF9"/>
<path d="M20.387 29.1148H19.6128V30.1931H20.387V29.1148Z" fill="#FFFDF9"/>
<path d="M20.387 28.306H19.6128V29.1148H20.387V28.306Z" fill="#FFFDF9"/>
<path d="M20.387 27.4973H19.6128V28.3061H20.387V27.4973Z" fill="#FFFDF9"/>
<path d="M20.387 26.4189H19.6128V27.4973H20.387V26.4189Z" fill="#FFFDF9"/>
<path d="M20.387 14.5574H19.6128V15.6358H20.387V14.5574Z" fill="#FFFDF9"/>
<path d="M20.387 13.7487H19.6128V14.5574H20.387V13.7487Z" fill="#FFFDF9"/>
<path d="M20.387 12.9399H19.6128V13.7487H20.387V12.9399Z" fill="#FFFDF9"/>
<path d="M20.387 11.8616H19.6128V12.9399H20.387V11.8616Z" fill="#FFFDF9"/>
<path d="M20.387 10.7833H19.6128V11.8616H20.387V10.7833Z" fill="#FFFDF9"/>
<path d="M20.387 10.2441H19.6128V10.7833H20.387V10.2441Z" fill="#FFFDF9"/>
<path d="M20.387 9.16577H19.6128V10.2441H20.387V9.16577Z" fill="#FFFDF9"/>
<path d="M19.6128 31.8106H18.5806V32.8889H19.6128V31.8106Z" fill="#FFFDF9"/>
<path d="M19.6128 31.2714H18.5806V31.8106H19.6128V31.2714Z" fill="#FFFDF9"/>
<path d="M19.6128 30.1931H18.5806V31.2714H19.6128V30.1931Z" fill="#FFFDF9"/>
<path d="M19.6128 29.1148H18.5806V30.1931H19.6128V29.1148Z" fill="#FFFDF9"/>
<path d="M19.6128 28.306H18.5806V29.1148H19.6128V28.306Z" fill="#FFFDF9"/>
<path d="M19.6128 27.4973H18.5806V28.3061H19.6128V27.4973Z" fill="#FFFDF9"/>
<path d="M19.6128 26.4189H18.5806V27.4973H19.6128V26.4189Z" fill="#FFFDF9"/>
<path d="M19.6128 14.5574H18.5806V15.6358H19.6128V14.5574Z" fill="#FFFDF9"/>
<path d="M19.6128 13.7487H18.5806V14.5574H19.6128V13.7487Z" fill="#FFFDF9"/>
<path d="M19.6128 12.9399H18.5806V13.7487H19.6128V12.9399Z" fill="#FFFDF9"/>
<path d="M19.6128 11.8616H18.5806V12.9399H19.6128V11.8616Z" fill="#FFFDF9"/>
<path d="M19.6128 10.7833H18.5806V11.8616H19.6128V10.7833Z" fill="#FFFDF9"/>
<path d="M19.6128 10.2441H18.5806V10.7833H19.6128V10.2441Z" fill="#FFFDF9"/>
<path d="M19.6128 9.16577H18.5806V10.2441H19.6128V9.16577Z" fill="#FFFDF9"/>
<path d="M18.5808 31.8106H17.8066V32.8889H18.5808V31.8106Z" fill="#FFFDF9"/>
<path d="M18.5808 31.2714H17.8066V31.8106H18.5808V31.2714Z" fill="#FFFDF9"/>
<path d="M18.5808 30.1931H17.8066V31.2714H18.5808V30.1931Z" fill="#FFFDF9"/>
<path d="M18.5808 29.1148H17.8066V30.1931H18.5808V29.1148Z" fill="#FFFDF9"/>
<path d="M18.5808 28.306H17.8066V29.1148H18.5808V28.306Z" fill="#FFFDF9"/>
<path d="M18.5808 12.9399H17.8066V13.7487H18.5808V12.9399Z" fill="#FFFDF9"/>
<path d="M18.5808 11.8616H17.8066V12.9399H18.5808V11.8616Z" fill="#FFFDF9"/>
<path d="M18.5808 10.7833H17.8066V11.8616H18.5808V10.7833Z" fill="#FFFDF9"/>
<path d="M18.5808 10.2441H17.8066V10.7833H18.5808V10.2441Z" fill="#FFFDF9"/>
<path d="M18.5808 9.16577H17.8066V10.2441H18.5808V9.16577Z" fill="#FFFDF9"/>
<path d="M17.8064 31.8106H17.0322V32.8889H17.8064V31.8106Z" fill="#FFFDF9"/>
<path d="M17.8064 31.2714H17.0322V31.8106H17.8064V31.2714Z" fill="#FFFDF9"/>
<path d="M17.8064 30.1931H17.0322V31.2714H17.8064V30.1931Z" fill="#FFFDF9"/>
<path d="M17.8064 29.1148H17.0322V30.1931H17.8064V29.1148Z" fill="#FFFDF9"/>
<path d="M17.8064 28.306H17.0322V29.1148H17.8064V28.306Z" fill="#FFFDF9"/>
<path d="M17.8064 12.9399H17.0322V13.7487H17.8064V12.9399Z" fill="#FFFDF9"/>
<path d="M17.8064 11.8616H17.0322V12.9399H17.8064V11.8616Z" fill="#FFFDF9"/>
<path d="M17.8064 10.7833H17.0322V11.8616H17.8064V10.7833Z" fill="#FFFDF9"/>
<path d="M17.8064 10.2441H17.0322V10.7833H17.8064V10.2441Z" fill="#FFFDF9"/>
<path d="M17.8064 9.16577H17.0322V10.2441H17.8064V9.16577Z" fill="#FFFDF9"/>
<path d="M17.0323 31.8106H16V32.8889H17.0323V31.8106Z" fill="#FFFDF9"/>
<path d="M17.0323 31.2714H16V31.8106H17.0323V31.2714Z" fill="#FFFDF9"/>
<path d="M17.0323 30.1931H16V31.2714H17.0323V30.1931Z" fill="#FFFDF9"/>
<path d="M17.0323 29.1148H16V30.1931H17.0323V29.1148Z" fill="#FFFDF9"/>
<path d="M17.0323 28.306H16V29.1148H17.0323V28.306Z" fill="#FFFDF9"/>
<path d="M17.0323 12.9399H16V13.7487H17.0323V12.9399Z" fill="#FFFDF9"/>
<path d="M17.0323 11.8616H16V12.9399H17.0323V11.8616Z" fill="#FFFDF9"/>
<path d="M17.0323 10.7833H16V11.8616H17.0323V10.7833Z" fill="#FFFDF9"/>
<path d="M17.0323 10.2441H16V10.7833H17.0323V10.2441Z" fill="#FFFDF9"/>
<path d="M17.0323 9.16577H16V10.2441H17.0323V9.16577Z" fill="#FFFDF9"/>
<path d="M16 31.8106H14.9678V32.8889H16V31.8106Z" fill="#FFFDF9"/>
<path d="M16 31.2714H14.9678V31.8106H16V31.2714Z" fill="#FFFDF9"/>
<path d="M16 30.1931H14.9678V31.2714H16V30.1931Z" fill="#FFFDF9"/>
<path d="M16 29.1148H14.9678V30.1931H16V29.1148Z" fill="#FFFDF9"/>
<path d="M16 28.306H14.9678V29.1148H16V28.306Z" fill="#FFFDF9"/>
<path d="M16 12.9399H14.9678V13.7487H16V12.9399Z" fill="#FFFDF9"/>
<path d="M16 11.8616H14.9678V12.9399H16V11.8616Z" fill="#FFFDF9"/>
<path d="M16 10.7833H14.9678V11.8616H16V10.7833Z" fill="#FFFDF9"/>
<path d="M16 10.2441H14.9678V10.7833H16V10.2441Z" fill="#FFFDF9"/>
<path d="M16 9.16577H14.9678V10.2441H16V9.16577Z" fill="#FFFDF9"/>
<path d="M14.9676 31.8106H14.1934V32.8889H14.9676V31.8106Z" fill="#FFFDF9"/>
<path d="M14.9676 31.2714H14.1934V31.8106H14.9676V31.2714Z" fill="#FFFDF9"/>
<path d="M14.9676 30.1931H14.1934V31.2714H14.9676V30.1931Z" fill="#FFFDF9"/>
<path d="M14.9676 29.1148H14.1934V30.1931H14.9676V29.1148Z" fill="#FFFDF9"/>
<path d="M14.9676 28.306H14.1934V29.1148H14.9676V28.306Z" fill="#FFFDF9"/>
<path d="M14.9676 21.0273H14.1934V22.1057H14.9676V21.0273Z" fill="#FFFDF9"/>
<path d="M14.9676 19.949H14.1934V21.0274H14.9676V19.949Z" fill="#FFFDF9"/>
<path d="M14.9676 19.4099H14.1934V19.949H14.9676V19.4099Z" fill="#FFFDF9"/>
<path d="M14.9676 12.9399H14.1934V13.7487H14.9676V12.9399Z" fill="#FFFDF9"/>
<path d="M14.9676 11.8616H14.1934V12.9399H14.9676V11.8616Z" fill="#FFFDF9"/>
<path d="M14.9676 10.7833H14.1934V11.8616H14.9676V10.7833Z" fill="#FFFDF9"/>
<path d="M14.9676 10.2441H14.1934V10.7833H14.9676V10.2441Z" fill="#FFFDF9"/>
<path d="M14.9676 9.16577H14.1934V10.2441H14.9676V9.16577Z" fill="#FFFDF9"/>
<path d="M14.1936 31.8106H13.4194V32.8889H14.1936V31.8106Z" fill="#FFFDF9"/>
<path d="M14.1936 31.2714H13.4194V31.8106H14.1936V31.2714Z" fill="#FFFDF9"/>
<path d="M14.1936 30.1931H13.4194V31.2714H14.1936V30.1931Z" fill="#FFFDF9"/>
<path d="M14.1936 29.1148H13.4194V30.1931H14.1936V29.1148Z" fill="#FFFDF9"/>
<path d="M14.1936 28.306H13.4194V29.1148H14.1936V28.306Z" fill="#FFFDF9"/>
<path d="M14.1936 21.0273H13.4194V22.1057H14.1936V21.0273Z" fill="#FFFDF9"/>
<path d="M14.1936 19.949H13.4194V21.0274H14.1936V19.949Z" fill="#FFFDF9"/>
<path d="M14.1936 19.4099H13.4194V19.949H14.1936V19.4099Z" fill="#FFFDF9"/>
<path d="M14.1936 12.9399H13.4194V13.7487H14.1936V12.9399Z" fill="#FFFDF9"/>
<path d="M14.1936 11.8616H13.4194V12.9399H14.1936V11.8616Z" fill="#FFFDF9"/>
<path d="M14.1936 10.7833H13.4194V11.8616H14.1936V10.7833Z" fill="#FFFDF9"/>
<path d="M14.1936 10.2441H13.4194V10.7833H14.1936V10.2441Z" fill="#FFFDF9"/>
<path d="M14.1936 9.16577H13.4194V10.2441H14.1936V9.16577Z" fill="#FFFDF9"/>
<path d="M13.4195 31.8106H12.3872V32.8889H13.4195V31.8106Z" fill="#FFFDF9"/>
<path d="M13.4195 31.2714H12.3872V31.8106H13.4195V31.2714Z" fill="#FFFDF9"/>
<path d="M13.4195 30.1931H12.3872V31.2714H13.4195V30.1931Z" fill="#FFFDF9"/>
<path d="M13.4195 29.1148H12.3872V30.1931H13.4195V29.1148Z" fill="#FFFDF9"/>
<path d="M13.4195 28.306H12.3872V29.1148H13.4195V28.306Z" fill="#FFFDF9"/>
<path d="M13.4195 22.6448H12.3872V23.7232H13.4195V22.6448Z" fill="#FFFDF9"/>
<path d="M13.4195 22.1057H12.3872V22.6448H13.4195V22.1057Z" fill="#FFFDF9"/>
<path d="M13.4195 21.0273H12.3872V22.1057H13.4195V21.0273Z" fill="#FFFDF9"/>
<path d="M13.4195 19.949H12.3872V21.0274H13.4195V19.949Z" fill="#FFFDF9"/>
<path d="M13.4195 19.4099H12.3872V19.949H13.4195V19.4099Z" fill="#FFFDF9"/>
<path d="M13.4195 18.3315H12.3872V19.4099H13.4195V18.3315Z" fill="#FFFDF9"/>
<path d="M13.4195 17.2532H12.3872V18.3316H13.4195V17.2532Z" fill="#FFFDF9"/>
<path d="M13.4195 12.9399H12.3872V13.7487H13.4195V12.9399Z" fill="#FFFDF9"/>
<path d="M13.4195 11.8616H12.3872V12.9399H13.4195V11.8616Z" fill="#FFFDF9"/>
<path d="M13.4195 10.7833H12.3872V11.8616H13.4195V10.7833Z" fill="#FFFDF9"/>
<path d="M13.4195 10.2441H12.3872V10.7833H13.4195V10.2441Z" fill="#FFFDF9"/>
<path d="M13.4195 9.16577H12.3872V10.2441H13.4195V9.16577Z" fill="#FFFDF9"/>
<path d="M12.387 31.8106H11.6128V32.8889H12.387V31.8106Z" fill="#FFFDF9"/>
<path d="M12.387 31.2714H11.6128V31.8106H12.387V31.2714Z" fill="#FFFDF9"/>
<path d="M12.387 30.1931H11.6128V31.2714H12.387V30.1931Z" fill="#FFFDF9"/>
<path d="M12.387 29.1148H11.6128V30.1931H12.387V29.1148Z" fill="#FFFDF9"/>
<path d="M12.387 28.306H11.6128V29.1148H12.387V28.306Z" fill="#FFFDF9"/>
<path d="M12.387 22.6448H11.6128V23.7232H12.387V22.6448Z" fill="#FFFDF9"/>
<path d="M12.387 22.1057H11.6128V22.6448H12.387V22.1057Z" fill="#FFFDF9"/>
<path d="M12.387 21.0273H11.6128V22.1057H12.387V21.0273Z" fill="#FFFDF9"/>
<path d="M12.387 19.949H11.6128V21.0274H12.387V19.949Z" fill="#FFFDF9"/>
<path d="M12.387 19.4099H11.6128V19.949H12.387V19.4099Z" fill="#FFFDF9"/>
<path d="M12.387 18.3315H11.6128V19.4099H12.387V18.3315Z" fill="#FFFDF9"/>
<path d="M12.387 17.2532H11.6128V18.3316H12.387V17.2532Z" fill="#FFFDF9"/>
<path d="M12.387 12.9399H11.6128V13.7487H12.387V12.9399Z" fill="#FFFDF9"/>
<path d="M12.387 11.8616H11.6128V12.9399H12.387V11.8616Z" fill="#FFFDF9"/>
<path d="M12.387 10.7833H11.6128V11.8616H12.387V10.7833Z" fill="#FFFDF9"/>
<path d="M12.387 10.2441H11.6128V10.7833H12.387V10.2441Z" fill="#FFFDF9"/>
<path d="M12.387 9.16577H11.6128V10.2441H12.387V9.16577Z" fill="#FFFDF9"/>
<path d="M11.6128 31.8106H10.5806V32.8889H11.6128V31.8106Z" fill="#FFFDF9"/>
<path d="M11.6128 31.2714H10.5806V31.8106H11.6128V31.2714Z" fill="#FFFDF9"/>
<path d="M11.6128 30.1931H10.5806V31.2714H11.6128V30.1931Z" fill="#FFFDF9"/>
<path d="M11.6128 29.1148H10.5806V30.1931H11.6128V29.1148Z" fill="#FFFDF9"/>
<path d="M11.6128 28.306H10.5806V29.1148H11.6128V28.306Z" fill="#FFFDF9"/>
<path d="M11.6128 24.8015H10.5806V25.6103H11.6128V24.8015Z" fill="#FFFDF9"/>
<path d="M11.6128 23.7231H10.5806V24.8015H11.6128V23.7231Z" fill="#FFFDF9"/>
<path d="M11.6128 22.6448H10.5806V23.7232H11.6128V22.6448Z" fill="#FFFDF9"/>
<path d="M11.6128 22.1057H10.5806V22.6448H11.6128V22.1057Z" fill="#FFFDF9"/>
<path d="M11.6128 21.0273H10.5806V22.1057H11.6128V21.0273Z" fill="#FFFDF9"/>
<path d="M11.6128 19.949H10.5806V21.0274H11.6128V19.949Z" fill="#FFFDF9"/>
<path d="M11.6128 19.4099H10.5806V19.949H11.6128V19.4099Z" fill="#FFFDF9"/>
<path d="M11.6128 18.3315H10.5806V19.4099H11.6128V18.3315Z" fill="#FFFDF9"/>
<path d="M11.6128 17.2532H10.5806V18.3316H11.6128V17.2532Z" fill="#FFFDF9"/>
<path d="M11.6128 16.4445H10.5806V17.2532H11.6128V16.4445Z" fill="#FFFDF9"/>
<path d="M11.6128 15.6357H10.5806V16.4445H11.6128V15.6357Z" fill="#FFFDF9"/>
<path d="M11.6128 12.9399H10.5806V13.7487H11.6128V12.9399Z" fill="#FFFDF9"/>
<path d="M11.6128 11.8616H10.5806V12.9399H11.6128V11.8616Z" fill="#FFFDF9"/>
<path d="M11.6128 10.7833H10.5806V11.8616H11.6128V10.7833Z" fill="#FFFDF9"/>
<path d="M11.6128 10.2441H10.5806V10.7833H11.6128V10.2441Z" fill="#FFFDF9"/>
<path d="M11.6128 9.16577H10.5806V10.2441H11.6128V9.16577Z" fill="#FFFDF9"/>
<path d="M10.5808 31.8106H9.80664V32.8889H10.5808V31.8106Z" fill="#FFFDF9"/>
<path d="M10.5808 31.2714H9.80664V31.8106H10.5808V31.2714Z" fill="#FFFDF9"/>
<path d="M10.5808 30.1931H9.80664V31.2714H10.5808V30.1931Z" fill="#FFFDF9"/>
<path d="M10.5808 29.1148H9.80664V30.1931H10.5808V29.1148Z" fill="#FFFDF9"/>
<path d="M10.5808 28.306H9.80664V29.1148H10.5808V28.306Z" fill="#FFFDF9"/>
<path d="M10.5808 24.8015H9.80664V25.6103H10.5808V24.8015Z" fill="#FFFDF9"/>
<path d="M10.5808 23.7231H9.80664V24.8015H10.5808V23.7231Z" fill="#FFFDF9"/>
<path d="M10.5808 22.6448H9.80664V23.7232H10.5808V22.6448Z" fill="#FFFDF9"/>
<path d="M10.5808 22.1057H9.80664V22.6448H10.5808V22.1057Z" fill="#FFFDF9"/>
<path d="M10.5808 21.0273H9.80664V22.1057H10.5808V21.0273Z" fill="#FFFDF9"/>
<path d="M10.5808 19.949H9.80664V21.0274H10.5808V19.949Z" fill="#FFFDF9"/>
<path d="M10.5808 19.4099H9.80664V19.949H10.5808V19.4099Z" fill="#FFFDF9"/>
<path d="M10.5808 18.3315H9.80664V19.4099H10.5808V18.3315Z" fill="#FFFDF9"/>
<path d="M10.5808 17.2532H9.80664V18.3316H10.5808V17.2532Z" fill="#FFFDF9"/>
<path d="M10.5808 16.4445H9.80664V17.2532H10.5808V16.4445Z" fill="#FFFDF9"/>
<path d="M10.5808 15.6357H9.80664V16.4445H10.5808V15.6357Z" fill="#FFFDF9"/>
<path d="M10.5808 12.9399H9.80664V13.7487H10.5808V12.9399Z" fill="#FFFDF9"/>
<path d="M10.5808 11.8616H9.80664V12.9399H10.5808V11.8616Z" fill="#FFFDF9"/>
<path d="M10.5808 10.7833H9.80664V11.8616H10.5808V10.7833Z" fill="#FFFDF9"/>
<path d="M10.5808 10.2441H9.80664V10.7833H10.5808V10.2441Z" fill="#FFFDF9"/>
<path d="M10.5808 9.16577H9.80664V10.2441H10.5808V9.16577Z" fill="#FFFDF9"/>
<path d="M9.80642 31.8106H9.03223V32.8889H9.80642V31.8106Z" fill="#FFFDF9"/>
<path d="M9.80642 31.2714H9.03223V31.8106H9.80642V31.2714Z" fill="#FFFDF9"/>
<path d="M9.80642 30.1931H9.03223V31.2714H9.80642V30.1931Z" fill="#FFFDF9"/>
<path d="M9.80642 29.1148H9.03223V30.1931H9.80642V29.1148Z" fill="#FFFDF9"/>
<path d="M9.80642 28.306H9.03223V29.1148H9.80642V28.306Z" fill="#FFFDF9"/>
<path d="M9.80642 12.9399H9.03223V13.7487H9.80642V12.9399Z" fill="#FFFDF9"/>
<path d="M9.80642 11.8616H9.03223V12.9399H9.80642V11.8616Z" fill="#FFFDF9"/>
<path d="M9.80642 10.7833H9.03223V11.8616H9.80642V10.7833Z" fill="#FFFDF9"/>
<path d="M9.80642 10.2441H9.03223V10.7833H9.80642V10.2441Z" fill="#FFFDF9"/>
<path d="M9.80642 9.16577H9.03223V10.2441H9.80642V9.16577Z" fill="#FFFDF9"/>
<path d="M9.03226 31.8106H8V32.8889H9.03226V31.8106Z" fill="#FFFDF9"/>
<path d="M9.03226 31.2714H8V31.8106H9.03226V31.2714Z" fill="#FFFDF9"/>
<path d="M9.03226 30.1931H8V31.2714H9.03226V30.1931Z" fill="#FFFDF9"/>
<path d="M9.03226 29.1148H8V30.1931H9.03226V29.1148Z" fill="#FFFDF9"/>
<path d="M9.03226 28.306H8V29.1148H9.03226V28.306Z" fill="#FFFDF9"/>
<path d="M9.03226 12.9399H8V13.7487H9.03226V12.9399Z" fill="#FFFDF9"/>
<path d="M9.03226 11.8616H8V12.9399H9.03226V11.8616Z" fill="#FFFDF9"/>
<path d="M9.03226 10.7833H8V11.8616H9.03226V10.7833Z" fill="#FFFDF9"/>
<path d="M9.03226 10.2441H8V10.7833H9.03226V10.2441Z" fill="#FFFDF9"/>
<path d="M9.03226 9.16577H8V10.2441H9.03226V9.16577Z" fill="#FFFDF9"/>
<path d="M8.00003 31.8106H6.96777V32.8889H8.00003V31.8106Z" fill="#FFFDF9"/>
<path d="M8.00003 31.2714H6.96777V31.8106H8.00003V31.2714Z" fill="#FFFDF9"/>
<path d="M8.00003 30.1931H6.96777V31.2714H8.00003V30.1931Z" fill="#FFFDF9"/>
<path d="M8.00003 29.1148H6.96777V30.1931H8.00003V29.1148Z" fill="#FFFDF9"/>
<path d="M8.00003 28.306H6.96777V29.1148H8.00003V28.306Z" fill="#FFFDF9"/>
<path d="M8.00003 12.9399H6.96777V13.7487H8.00003V12.9399Z" fill="#FFFDF9"/>
<path d="M8.00003 11.8616H6.96777V12.9399H8.00003V11.8616Z" fill="#FFFDF9"/>
<path d="M8.00003 10.7833H6.96777V11.8616H8.00003V10.7833Z" fill="#FFFDF9"/>
<path d="M8.00003 10.2441H6.96777V10.7833H8.00003V10.2441Z" fill="#FFFDF9"/>
<path d="M8.00003 9.16577H6.96777V10.2441H8.00003V9.16577Z" fill="#FFFDF9"/>
<path d="M6.96755 31.8106H6.19336V32.8889H6.96755V31.8106Z" fill="#FFFDF9"/>
<path d="M6.96755 31.2714H6.19336V31.8106H6.96755V31.2714Z" fill="#FFFDF9"/>
<path d="M6.96755 30.1931H6.19336V31.2714H6.96755V30.1931Z" fill="#FFFDF9"/>
<path d="M6.96755 29.1148H6.19336V30.1931H6.96755V29.1148Z" fill="#FFFDF9"/>
<path d="M6.96755 28.306H6.19336V29.1148H6.96755V28.306Z" fill="#FFFDF9"/>
<path d="M6.96755 12.9399H6.19336V13.7487H6.96755V12.9399Z" fill="#FFFDF9"/>
<path d="M6.96755 11.8616H6.19336V12.9399H6.96755V11.8616Z" fill="#FFFDF9"/>
<path d="M6.96755 10.7833H6.19336V11.8616H6.96755V10.7833Z" fill="#FFFDF9"/>
<path d="M6.96755 10.2441H6.19336V10.7833H6.96755V10.2441Z" fill="#FFFDF9"/>
<path d="M6.96755 9.16577H6.19336V10.2441H6.96755V9.16577Z" fill="#FFFDF9"/>
<path d="M6.19363 31.8106H5.41943V32.8889H6.19363V31.8106Z" fill="#FFFDF9"/>
<path d="M6.19363 31.2714H5.41943V31.8106H6.19363V31.2714Z" fill="#FFFDF9"/>
<path d="M6.19363 30.1931H5.41943V31.2714H6.19363V30.1931Z" fill="#FFFDF9"/>
<path d="M6.19363 29.1148H5.41943V30.1931H6.19363V29.1148Z" fill="#FFFDF9"/>
<path d="M6.19363 28.306H5.41943V29.1148H6.19363V28.306Z" fill="#FFFDF9"/>
<path d="M6.19363 12.9399H5.41943V13.7487H6.19363V12.9399Z" fill="#FFFDF9"/>
<path d="M6.19363 11.8616H5.41943V12.9399H6.19363V11.8616Z" fill="#FFFDF9"/>
<path d="M6.19363 10.7833H5.41943V11.8616H6.19363V10.7833Z" fill="#FFFDF9"/>
<path d="M6.19363 10.2441H5.41943V10.7833H6.19363V10.2441Z" fill="#FFFDF9"/>
<path d="M6.19363 9.16577H5.41943V10.2441H6.19363V9.16577Z" fill="#FFFDF9"/>
<path d="M5.41947 31.8106H4.38721V32.8889H5.41947V31.8106Z" fill="#FFFDF9"/>
<path d="M5.41947 31.2714H4.38721V31.8106H5.41947V31.2714Z" fill="#FFFDF9"/>
<path d="M5.41947 30.1931H4.38721V31.2714H5.41947V30.1931Z" fill="#FFFDF9"/>
<path d="M5.41947 29.1148H4.38721V30.1931H5.41947V29.1148Z" fill="#FFFDF9"/>
<path d="M5.41947 28.306H4.38721V29.1148H5.41947V28.306Z" fill="#FFFDF9"/>
<path d="M5.41947 12.9399H4.38721V13.7487H5.41947V12.9399Z" fill="#FFFDF9"/>
<path d="M5.41947 11.8616H4.38721V12.9399H5.41947V11.8616Z" fill="#FFFDF9"/>
<path d="M5.41947 10.7833H4.38721V11.8616H5.41947V10.7833Z" fill="#FFFDF9"/>
<path d="M5.41947 10.2441H4.38721V10.7833H5.41947V10.2441Z" fill="#FFFDF9"/>
<path d="M5.41947 9.16577H4.38721V10.2441H5.41947V9.16577Z" fill="#FFFDF9"/>
<path d="M4.38699 31.8106H3.61279V32.8889H4.38699V31.8106Z" fill="#FFFDF9"/>
<path d="M4.38699 31.2714H3.61279V31.8106H4.38699V31.2714Z" fill="#FFFDF9"/>
<path d="M4.38699 30.1931H3.61279V31.2714H4.38699V30.1931Z" fill="#FFFDF9"/>
<path d="M4.38699 29.1148H3.61279V30.1931H4.38699V29.1148Z" fill="#FFFDF9"/>
<path d="M4.38699 28.306H3.61279V29.1148H4.38699V28.306Z" fill="#FFFDF9"/>
<path d="M4.38699 27.4973H3.61279V28.3061H4.38699V27.4973Z" fill="#FFFDF9"/>
<path d="M4.38699 26.4189H3.61279V27.4973H4.38699V26.4189Z" fill="#FFFDF9"/>
<path d="M4.38699 14.5574H3.61279V15.6358H4.38699V14.5574Z" fill="#FFFDF9"/>
<path d="M4.38699 13.7487H3.61279V14.5574H4.38699V13.7487Z" fill="#FFFDF9"/>
<path d="M4.38699 12.9399H3.61279V13.7487H4.38699V12.9399Z" fill="#FFFDF9"/>
<path d="M4.38699 11.8616H3.61279V12.9399H4.38699V11.8616Z" fill="#FFFDF9"/>
<path d="M4.38699 10.7833H3.61279V11.8616H4.38699V10.7833Z" fill="#FFFDF9"/>
<path d="M4.38699 10.2441H3.61279V10.7833H4.38699V10.2441Z" fill="#FFFDF9"/>
<path d="M4.38699 9.16577H3.61279V10.2441H4.38699V9.16577Z" fill="#FFFDF9"/>
<path d="M3.61282 31.8106H2.58057V32.8889H3.61282V31.8106Z" fill="#FFFDF9"/>
<path d="M3.61282 31.2714H2.58057V31.8106H3.61282V31.2714Z" fill="#FFFDF9"/>
<path d="M3.61282 30.1931H2.58057V31.2714H3.61282V30.1931Z" fill="#FFFDF9"/>
<path d="M3.61282 29.1148H2.58057V30.1931H3.61282V29.1148Z" fill="#FFFDF9"/>
<path d="M3.61282 28.306H2.58057V29.1148H3.61282V28.306Z" fill="#FFFDF9"/>
<path d="M3.61282 27.4973H2.58057V28.3061H3.61282V27.4973Z" fill="#FFFDF9"/>
<path d="M3.61282 26.4189H2.58057V27.4973H3.61282V26.4189Z" fill="#FFFDF9"/>
<path d="M3.61282 14.5574H2.58057V15.6358H3.61282V14.5574Z" fill="#FFFDF9"/>
<path d="M3.61282 13.7487H2.58057V14.5574H3.61282V13.7487Z" fill="#FFFDF9"/>
<path d="M3.61282 12.9399H2.58057V13.7487H3.61282V12.9399Z" fill="#FFFDF9"/>
<path d="M3.61282 11.8616H2.58057V12.9399H3.61282V11.8616Z" fill="#FFFDF9"/>
<path d="M3.61282 10.7833H2.58057V11.8616H3.61282V10.7833Z" fill="#FFFDF9"/>
<path d="M3.61282 10.2441H2.58057V10.7833H3.61282V10.2441Z" fill="#FFFDF9"/>
<path d="M3.61282 9.16577H2.58057V10.2441H3.61282V9.16577Z" fill="#FFFDF9"/>
<path d="M2.58083 31.8106H1.80664V32.8889H2.58083V31.8106Z" fill="#FFFDF9"/>
<path d="M2.58083 31.2714H1.80664V31.8106H2.58083V31.2714Z" fill="#FFFDF9"/>
<path d="M2.58083 30.1931H1.80664V31.2714H2.58083V30.1931Z" fill="#FFFDF9"/>
<path d="M2.58083 29.1148H1.80664V30.1931H2.58083V29.1148Z" fill="#FFFDF9"/>
<path d="M2.58083 28.306H1.80664V29.1148H2.58083V28.306Z" fill="#FFFDF9"/>
<path d="M2.58083 27.4973H1.80664V28.3061H2.58083V27.4973Z" fill="#FFFDF9"/>
<path d="M2.58083 26.4189H1.80664V27.4973H2.58083V26.4189Z" fill="#FFFDF9"/>
<path d="M2.58083 25.6102H1.80664V26.419H2.58083V25.6102Z" fill="#FFFDF9"/>
<path d="M2.58083 24.8015H1.80664V25.6103H2.58083V24.8015Z" fill="#FFFDF9"/>
<path d="M2.58083 23.7231H1.80664V24.8015H2.58083V23.7231Z" fill="#FFFDF9"/>
<path d="M2.58083 22.6448H1.80664V23.7232H2.58083V22.6448Z" fill="#FFFDF9"/>
<path d="M2.58083 22.1057H1.80664V22.6448H2.58083V22.1057Z" fill="#FFFDF9"/>
<path d="M2.58083 21.0273H1.80664V22.1057H2.58083V21.0273Z" fill="#FFFDF9"/>
<path d="M2.58083 19.949H1.80664V21.0274H2.58083V19.949Z" fill="#FFFDF9"/>
<path d="M2.58083 19.4099H1.80664V19.949H2.58083V19.4099Z" fill="#FFFDF9"/>
<path d="M2.58083 18.3315H1.80664V19.4099H2.58083V18.3315Z" fill="#FFFDF9"/>
<path d="M2.58083 17.2532H1.80664V18.3316H2.58083V17.2532Z" fill="#FFFDF9"/>
<path d="M2.58083 16.4445H1.80664V17.2532H2.58083V16.4445Z" fill="#FFFDF9"/>
<path d="M2.58083 15.6357H1.80664V16.4445H2.58083V15.6357Z" fill="#FFFDF9"/>
<path d="M2.58083 14.5574H1.80664V15.6358H2.58083V14.5574Z" fill="#FFFDF9"/>
<path d="M2.58083 13.7487H1.80664V14.5574H2.58083V13.7487Z" fill="#FFFDF9"/>
<path d="M2.58083 12.9399H1.80664V13.7487H2.58083V12.9399Z" fill="#FFFDF9"/>
<path d="M2.58083 11.8616H1.80664V12.9399H2.58083V11.8616Z" fill="#FFFDF9"/>
<path d="M2.58083 10.7833H1.80664V11.8616H2.58083V10.7833Z" fill="#FFFDF9"/>
<path d="M2.58083 10.2441H1.80664V10.7833H2.58083V10.2441Z" fill="#FFFDF9"/>
<path d="M2.58083 9.16577H1.80664V10.2441H2.58083V9.16577Z" fill="#FFFDF9"/>
<path d="M1.80642 31.2714H1.03223V31.8106H1.80642V31.2714Z" fill="#FFFDF9"/>
<path d="M1.80642 30.1931H1.03223V31.2714H1.80642V30.1931Z" fill="#FFFDF9"/>
<path d="M1.80642 29.1148H1.03223V30.1931H1.80642V29.1148Z" fill="#FFFDF9"/>
<path d="M1.80642 28.306H1.03223V29.1148H1.80642V28.306Z" fill="#FFFDF9"/>
<path d="M1.80642 27.4973H1.03223V28.3061H1.80642V27.4973Z" fill="#FFFDF9"/>
<path d="M1.80642 26.4189H1.03223V27.4973H1.80642V26.4189Z" fill="#FFFDF9"/>
<path d="M1.80642 25.6102H1.03223V26.419H1.80642V25.6102Z" fill="#FFFDF9"/>
<path d="M1.80642 24.8015H1.03223V25.6103H1.80642V24.8015Z" fill="#FFFDF9"/>
<path d="M1.80642 23.7231H1.03223V24.8015H1.80642V23.7231Z" fill="#FFFDF9"/>
<path d="M1.80642 22.6448H1.03223V23.7232H1.80642V22.6448Z" fill="#FFFDF9"/>
<path d="M1.80642 22.1057H1.03223V22.6448H1.80642V22.1057Z" fill="#FFFDF9"/>
<path d="M1.80642 21.0273H1.03223V22.1057H1.80642V21.0273Z" fill="#FFFDF9"/>
<path d="M1.80642 19.949H1.03223V21.0274H1.80642V19.949Z" fill="#FFFDF9"/>
<path d="M1.80642 19.4099H1.03223V19.949H1.80642V19.4099Z" fill="#FFFDF9"/>
<path d="M1.80642 18.3315H1.03223V19.4099H1.80642V18.3315Z" fill="#FFFDF9"/>
<path d="M1.80642 17.2532H1.03223V18.3316H1.80642V17.2532Z" fill="#FFFDF9"/>
<path d="M1.80642 16.4445H1.03223V17.2532H1.80642V16.4445Z" fill="#FFFDF9"/>
<path d="M1.80642 15.6357H1.03223V16.4445H1.80642V15.6357Z" fill="#FFFDF9"/>
<path d="M1.80642 14.5574H1.03223V15.6358H1.80642V14.5574Z" fill="#FFFDF9"/>
<path d="M1.80642 13.7487H1.03223V14.5574H1.80642V13.7487Z" fill="#FFFDF9"/>
<path d="M1.80642 12.9399H1.03223V13.7487H1.80642V12.9399Z" fill="#FFFDF9"/>
<path d="M1.80642 11.8616H1.03223V12.9399H1.80642V11.8616Z" fill="#FFFDF9"/>
<path d="M1.80642 10.7833H1.03223V11.8616H1.80642V10.7833Z" fill="#FFFDF9"/>
<path d="M1.80642 10.2441H1.03223V10.7833H1.80642V10.2441Z" fill="#FFFDF9"/>
<path d="M1.03226 30.1931H0V31.2714H1.03226V30.1931Z" fill="#FFFDF9"/>
<path d="M1.03226 29.1148H0V30.1931H1.03226V29.1148Z" fill="#FFFDF9"/>
<path d="M1.03226 28.306H0V29.1148H1.03226V28.306Z" fill="#FFFDF9"/>
<path d="M1.03226 27.4973H0V28.3061H1.03226V27.4973Z" fill="#FFFDF9"/>
<path d="M1.03226 26.4189H0V27.4973H1.03226V26.4189Z" fill="#FFFDF9"/>
<path d="M1.03226 25.6102H0V26.419H1.03226V25.6102Z" fill="#FFFDF9"/>
<path d="M1.03226 24.8015H0V25.6103H1.03226V24.8015Z" fill="#FFFDF9"/>
<path d="M1.03226 23.7231H0V24.8015H1.03226V23.7231Z" fill="#FFFDF9"/>
<path d="M1.03226 22.6448H0V23.7232H1.03226V22.6448Z" fill="#FFFDF9"/>
<path d="M1.03226 22.1057H0V22.6448H1.03226V22.1057Z" fill="#FFFDF9"/>
<path d="M1.03226 21.0273H0V22.1057H1.03226V21.0273Z" fill="#FFFDF9"/>
<path d="M1.03226 19.949H0V21.0274H1.03226V19.949Z" fill="#FFFDF9"/>
<path d="M1.03226 19.4099H0V19.949H1.03226V19.4099Z" fill="#FFFDF9"/>
<path d="M1.03226 18.3315H0V19.4099H1.03226V18.3315Z" fill="#FFFDF9"/>
<path d="M1.03226 17.2532H0V18.3316H1.03226V17.2532Z" fill="#FFFDF9"/>
<path d="M1.03226 16.4445H0V17.2532H1.03226V16.4445Z" fill="#FFFDF9"/>
<path d="M1.03226 15.6357H0V16.4445H1.03226V15.6357Z" fill="#FFFDF9"/>
<path d="M1.03226 14.5574H0V15.6358H1.03226V14.5574Z" fill="#FFFDF9"/>
<path d="M1.03226 13.7487H0V14.5574H1.03226V13.7487Z" fill="#FFFDF9"/>
<path d="M1.03226 12.9399H0V13.7487H1.03226V12.9399Z" fill="#FFFDF9"/>
<path d="M1.03226 11.8616H0V12.9399H1.03226V11.8616Z" fill="#FFFDF9"/>
<path d="M1.03226 10.7833H0V11.8616H1.03226V10.7833Z" fill="#FFFDF9"/>
</g>
<defs>
<clipPath id="clip0_751_5972">
<rect width="32" height="32.8889" fill="white"/>
</clipPath>
</defs>
</svg>
